<svg width="48" height="15" viewBox="0 0 48 15" fill="none" xmlns="http://www.w3.org/2000/svg">
<path d="M47.7034 12.6699C47.7034 11.8603 47.179 11.2674 46.4566 11.2674C45.7354 11.2674 45.2104 11.8603 45.2104 12.6699C45.2104 13.4783 45.7354 14.0702 46.4566 14.0702C47.179 14.0702 47.7034 13.4773 47.7034 12.6699ZM46.129 12.7419V13.658H45.8587V11.6379H46.5304C46.924 11.6379 47.1046 11.8261 47.1046 12.193C47.1046 12.419 46.9651 12.598 46.7854 12.624V12.6325C46.9414 12.6598 46.9987 12.8122 47.0308 13.091C47.0554 13.2717 47.0881 13.5851 47.1469 13.6586H46.8271C46.7527 13.4688 46.7602 13.2001 46.7029 12.9751C46.6555 12.804 46.5721 12.7416 46.393 12.7416H46.1305V12.7425L46.129 12.7419ZM46.4641 12.4807C46.7266 12.4807 46.8016 12.3277 46.8016 12.1927C46.8016 12.033 46.7266 11.9069 46.4641 11.9069H46.129V12.4814H46.4641V12.4807ZM44.9131 12.6699C44.9131 11.6724 45.6364 10.998 46.4554 10.998C47.2768 10.998 47.9993 11.6724 47.9993 12.6699C47.9993 13.6655 47.2771 14.3405 46.4554 14.3405C45.6364 14.3405 44.9131 13.6655 44.9131 12.6699Z" fill="#FF5A00"/>
<path d="M39.5686 14.0496L37.7905 11.8663L36.0281 14.0496H32.3195L35.9441 9.59096L32.3195 5.13101H36.1439L37.9399 7.29759L39.6682 5.13101H43.3587L39.7522 9.57223L43.4088 14.0496H39.5686ZM25.1982 14.0496V0H32.3195V3.13162H28.2147V5.13101H32.3195V8.14438H28.2147V10.9101H32.3195V14.0496H25.1982Z" fill="#FF5A00"/>
<path d="M22.1938 0V5.74984H22.1605C21.4954 4.9129 20.6641 4.62122 19.7002 4.62122C17.725 4.62122 16.237 6.09243 15.7147 8.03598C15.1189 5.89404 13.5826 4.58115 11.3051 4.58115C9.45499 4.58115 7.99461 5.49002 7.23172 6.97141V5.13068H3.40826V3.13195H7.58122V0.000657829H0V14.0496H3.40826V8.14437H6.80542C6.70078 8.59848 6.64847 9.06514 6.64973 9.53347C6.64973 12.4628 8.6942 14.5213 11.3045 14.5213C13.4986 14.5213 14.9458 13.3923 15.7105 11.3371H12.7895C12.3947 11.9556 12.0947 12.1382 11.3048 12.1382C10.3892 12.1382 9.59899 11.2632 9.59899 10.2272H15.5467C15.8047 12.5544 17.4607 14.561 19.7335 14.561C20.7139 14.561 21.6115 14.0332 22.1602 13.1414H22.1932V14.0516H25.1982V0.000657829H22.1938V0ZM9.69379 8.18642C9.88369 7.29364 10.5158 6.71028 11.3048 6.71028C12.1736 6.71028 12.7736 7.27558 12.9311 8.18642H9.69379ZM20.3701 11.9116C19.2628 11.9116 18.5746 10.782 18.5746 9.60212C18.5746 8.3408 19.1734 7.12908 20.3701 7.12908C21.6118 7.12908 22.1065 8.34146 22.1065 9.60212C22.1065 10.7971 21.5827 11.9116 20.3701 11.9116Z" fill="#29007C"/>
</svg>
