<svg width="14" height="18" viewBox="0 0 14 18" fill="none" xmlns="http://www.w3.org/2000/svg">
<path d="M13.2409 10.1807C12.7346 9.45949 11.9507 8.9794 10.8888 8.74044C11.7352 8.40266 12.3615 7.89996 12.768 7.23224C13.1747 6.5643 13.3777 5.80233 13.3777 4.94508C13.3777 3.305 12.7471 2.07067 11.4863 1.24249C10.2252 0.414176 8.47035 0 6.22228 0H0V18H7.11818C9.33349 18 11.0341 17.551 12.2206 16.6524C13.4068 15.7543 14 14.4273 14 12.6718C14 11.7324 13.7467 10.9019 13.2409 10.1807ZM4.21874 3.2143H6.22238C7.21798 3.2143 7.95622 3.38955 8.43769 3.73975C8.91866 4.09011 9.15937 4.64829 9.15937 5.41487C9.15937 6.09075 8.92283 6.60375 8.44997 6.95394C7.977 7.30431 7.26342 7.48772 6.30937 7.50417H4.21874V3.2143ZM9.13432 14.2602C8.68633 14.6105 8.0143 14.7858 7.11818 14.7858H4.21874V10.2735H7.3549C8.21764 10.2735 8.84194 10.4733 9.2276 10.8729C9.61348 11.2727 9.80646 11.864 9.80646 12.6471C9.80646 13.3723 9.5822 13.91 9.13432 14.2602Z" fill="#374151"/>
</svg>
