<svg width="30" height="36" viewBox="0 0 30 36" fill="none" xmlns="http://www.w3.org/2000/svg">
<path d="M14.6815 33.6989C14.9796 33.554 22.7299 30.2933 25.1891 28.3369C27.7229 26.3081 29.0643 23.4097 29.0643 19.9317V3.6285L28.8407 3.55604C22.6554 0.295398 14.9796 0.512774 14.607 0.512774C14.3089 0.512774 6.63318 0.295398 0.447872 3.55604L0.298828 3.6285V20.0042C0.298828 23.4822 1.64022 26.3806 4.17396 28.4094C6.63318 30.3658 14.3835 33.6264 14.6815 33.6989Z" fill="#341B14"/>
<path d="M14.6808 34.0617C14.6808 34.0617 6.48338 30.5837 3.94965 28.6273C1.26687 26.4536 0 23.4828 0 20.0772V3.12186C6.48338 -0.283703 14.6808 0.00613203 14.6808 0.00613203C14.6808 0.00613203 22.8781 -0.283703 29.3615 3.12186V20.0048C29.3615 23.4103 28.0946 26.3811 25.4119 28.5549C22.8781 30.5837 14.6808 34.0617 14.6808 34.0617ZM1.19235 20.0772C1.19235 23.2654 2.38469 25.8739 4.69486 27.6854C6.78147 29.3519 12.9668 32.0329 14.6808 32.7575C16.3948 32.0329 22.6546 29.2795 24.6666 27.6854C26.9768 25.8739 28.1692 23.1929 28.1692 20.0772V3.41169C19.5247 2.61465 9.24068 3.0494 1.19235 10.2953V20.0772Z" fill="#FFB406"/>
<path d="M22.9525 17.6853C24.0703 18.3374 24.5174 18.7722 24.592 19.5692C24.592 20.4387 23.9958 20.9459 23.027 20.9459C22.2073 20.9459 21.2385 20.5112 20.5678 19.9315V22.2502C21.3875 22.685 22.3563 23.0472 23.3996 23.0472C25.9334 23.0472 27.1257 21.3082 27.1257 19.7141C27.2002 18.265 26.7531 17.1056 24.592 15.8738C23.6232 15.2942 22.878 14.9319 22.878 14.0624C22.878 13.1929 23.6977 12.8306 24.3684 12.8306C25.2627 12.8306 26.1569 13.3378 26.6786 13.845V11.6712C26.2314 11.3089 25.2627 10.8017 23.8467 10.8742C22.1327 10.9466 20.3442 12.106 20.3442 14.1348C20.4187 15.5115 20.8659 16.526 22.9525 17.6853ZM14.1589 22.9023C14.3825 22.9748 14.7551 23.0472 15.3513 23.0472C18.2576 23.0472 19.8971 20.5112 19.8971 16.8882C19.8971 13.1929 18.1831 10.9466 15.1277 10.9466C13.7118 10.9466 12.594 11.2365 11.6252 11.8161V28.1918H14.1589V22.9023ZM14.1589 13.0479C14.3825 12.9755 14.7551 12.8306 15.0532 12.8306C16.5436 12.8306 17.1398 13.9899 17.1398 16.8158C17.1398 19.5692 16.3946 20.8735 14.9041 20.8735C14.5315 20.8735 14.2334 20.801 14.0844 20.7286V13.0479H14.1589ZM6.33412 23.0472C7.89908 23.0472 9.24047 22.685 10.2093 22.0328V11.0915H7.60099V20.5836C7.3029 20.801 6.93029 20.8735 6.40864 20.8735C5.21629 20.8735 5.06725 19.7866 5.06725 19.1345V11.0915H2.45898V18.9896C2.45898 21.6705 3.80038 23.0472 6.33412 23.0472ZM23.6977 32.8292V34.4957H23.9958V33.8436H24.0703L24.5174 34.4957H24.8901C24.8901 34.4957 24.4429 33.8436 24.3684 33.7712C24.592 33.6987 24.741 33.5538 24.741 33.3364C24.741 33.119 24.592 32.8292 24.1448 32.8292H23.6977ZM24.1448 33.0466C24.3684 33.0466 24.4429 33.1915 24.4429 33.2639C24.4429 33.4089 24.3684 33.5538 24.0703 33.5538H23.9958V33.0466H24.1448Z" fill="#FFB406"/>
<path d="M25.3365 33.6267C25.3365 34.2064 24.8148 34.7136 24.2186 34.7136C23.6225 34.7136 23.1008 34.2064 23.1008 33.6267C23.1008 33.047 23.6225 32.5398 24.2186 32.5398C24.8893 32.5398 25.3365 33.047 25.3365 33.6267ZM24.2186 32.25C23.4734 32.25 22.8027 32.8297 22.8027 33.6267C22.8027 34.3513 23.3989 35.0034 24.2186 35.0034C24.9639 35.0034 25.6345 34.4238 25.6345 33.6267C25.6345 32.9021 24.9639 32.25 24.2186 32.25Z" fill="#FFB406"/>
</svg>
