<svg width="58" height="58" viewBox="0 0 58 58" fill="none" xmlns="http://www.w3.org/2000/svg">
<g clip-path="url(#clip0_565_5675)">
<path d="M18.125 38.0625V41.6875C18.125 46.6945 27.0516 50.75 38.0625 50.75C49.0734 50.75 58 46.6945 58 41.6875V38.0625H18.125Z" fill="#FFC107"/>
<path d="M38.0625 47.125C49.0737 47.125 58 43.0676 58 38.0625C58 33.0574 49.0737 29 38.0625 29C27.0513 29 18.125 33.0574 18.125 38.0625C18.125 43.0676 27.0513 47.125 38.0625 47.125Z" fill="#FFD54F"/>
<path d="M50.75 45.052V48.677C52.132 48.1559 53.3441 47.5555 54.375 46.8871V43.5H53.9785C53.0383 44.0777 51.9621 44.5988 50.75 45.052Z" fill="#FFE082"/>
<path d="M43.5 46.7739V50.3989C44.7687 50.2403 45.9809 50.0137 47.125 49.7532V46.1282C45.9809 46.4 44.7687 46.6153 43.5 46.7739Z" fill="#FFE082"/>
<path d="M18.125 30.8125V34.4375C18.125 39.4445 27.0516 43.5 38.0625 43.5C49.0734 43.5 58 39.4445 58 34.4375V30.8125H18.125Z" fill="#FFC107"/>
<path d="M38.0625 39.875C49.0737 39.875 58 35.8176 58 30.8125C58 25.8074 49.0737 21.75 38.0625 21.75C27.0513 21.75 18.125 25.8074 18.125 30.8125C18.125 35.8176 27.0513 39.875 38.0625 39.875Z" fill="#FFD54F"/>
<path d="M50.75 37.802V41.427C52.132 40.9059 53.3441 40.3055 54.375 39.6371V36.25H53.9785C53.0383 36.8277 51.9621 37.3488 50.75 37.802Z" fill="#FFE082"/>
<path d="M43.5 39.5239V43.1489C44.7687 42.9903 45.9809 42.7637 47.125 42.5032V38.8782C45.9809 39.15 44.7687 39.3653 43.5 39.5239Z" fill="#FFE082"/>
<path d="M18.125 23.5625V27.1875C18.125 32.1945 27.0516 36.25 38.0625 36.25C49.0734 36.25 58 32.1945 58 27.1875V23.5625H18.125Z" fill="#FFC107"/>
<path d="M38.0625 32.625C49.0737 32.625 58 28.5676 58 23.5625C58 18.5574 49.0737 14.5 38.0625 14.5C27.0513 14.5 18.125 18.5574 18.125 23.5625C18.125 28.5676 27.0513 32.625 38.0625 32.625Z" fill="#FFD54F"/>
<path d="M50.75 30.552V34.177C52.132 33.6559 53.3441 33.0555 54.375 32.3871V29H53.9785C53.0383 29.5777 51.9621 30.0988 50.75 30.552Z" fill="#FFE082"/>
<path d="M43.5 32.2739V35.8989C44.7687 35.7403 45.9809 35.5137 47.125 35.2532V31.6282C45.9809 31.9 44.7687 32.1153 43.5 32.2739Z" fill="#FFE082"/>
<path d="M18.125 16.3125V19.9375C18.125 24.9445 27.0516 29 38.0625 29C49.0734 29 58 24.9445 58 19.9375V16.3125H18.125Z" fill="#FFC107"/>
<path d="M38.0625 25.375C49.0737 25.375 58 21.3176 58 16.3125C58 11.3074 49.0737 7.25 38.0625 7.25C27.0513 7.25 18.125 11.3074 18.125 16.3125C18.125 21.3176 27.0513 25.375 38.0625 25.375Z" fill="#FFD54F"/>
<path d="M50.75 23.302V26.927C52.132 26.4059 53.3441 25.8055 54.375 25.1371V21.75H53.9785C53.0383 22.3277 51.9621 22.8488 50.75 23.302Z" fill="#FFE082"/>
<path d="M43.5 25.0239V28.6489C44.7687 28.4903 45.9809 28.2637 47.125 28.0032V24.3782C45.9809 24.65 44.7687 24.8653 43.5 25.0239Z" fill="#FFE082"/>
<path d="M18.125 9.0625V12.6875C18.125 17.6945 27.0516 21.75 38.0625 21.75C49.0734 21.75 58 17.6945 58 12.6875V9.0625H18.125Z" fill="#FFC107"/>
<path d="M38.0625 18.125C49.0737 18.125 58 14.0676 58 9.0625C58 4.05742 49.0737 0 38.0625 0C27.0513 0 18.125 4.05742 18.125 9.0625C18.125 14.0676 27.0513 18.125 38.0625 18.125Z" fill="#FFD54F"/>
<path d="M50.75 16.052V19.677C52.132 19.1559 53.3441 18.5555 54.375 17.8871V14.5H53.9785C53.0383 15.0777 51.9621 15.5988 50.75 16.052Z" fill="#FFE082"/>
<path d="M43.5 17.7739V21.3989C44.7687 21.2403 45.9809 21.0137 47.125 20.7532V17.1282C45.9809 17.4 44.7687 17.6153 43.5 17.7739Z" fill="#FFE082"/>
<path d="M19.9375 25.3751C19.3371 25.3751 18.5668 25.3524 17.9551 25.3751V27.1536C17.9551 27.7766 18.0344 28.411 18.2949 29.0001C18.0344 29.5891 18.1137 30.1895 18.1137 30.8126V34.4376C18.1137 35.0606 18.2496 35.661 18.5102 36.2501C18.2496 36.8391 18.1137 37.4395 18.1137 38.0626V41.6876C18.1137 46.6946 27.0402 51.0786 38.0512 51.0786C39.8863 51.0786 41.5629 50.954 43.2508 50.7501C43.3527 50.2063 43.4887 49.3567 43.4887 48.9376V38.0626C43.5 29.7364 31.6508 25.3751 19.9375 25.3751Z" fill="white"/>
<path d="M0 45.3125V48.9375C0 53.9445 8.92656 58 19.9375 58C30.9484 58 39.875 53.9445 39.875 48.9375V45.3125H0Z" fill="#FFC107"/>
<path d="M19.9375 54.375C30.9487 54.375 39.875 50.3176 39.875 45.3125C39.875 40.3074 30.9487 36.25 19.9375 36.25C8.92632 36.25 0 40.3074 0 45.3125C0 50.3176 8.92632 54.375 19.9375 54.375Z" fill="#FFD54F"/>
<path d="M32.625 52.302V55.927C34.007 55.4059 35.2191 54.8055 36.25 54.1371V50.75H35.8535C34.9133 51.3277 33.8371 51.8488 32.625 52.302Z" fill="#FFE082"/>
<path d="M25.375 54.0239V57.6489C26.6437 57.4903 27.8559 57.2637 29 57.0032V53.3782C27.8559 53.65 26.6437 53.8653 25.375 54.0239Z" fill="#FFE082"/>
<path d="M0 38.0625V41.6875C0 46.6945 8.92656 50.75 19.9375 50.75C30.9484 50.75 39.875 46.6945 39.875 41.6875V38.0625H0Z" fill="#FFC107"/>
<path d="M19.9375 47.125C30.9487 47.125 39.875 43.0676 39.875 38.0625C39.875 33.0574 30.9487 29 19.9375 29C8.92632 29 0 33.0574 0 38.0625C0 43.0676 8.92632 47.125 19.9375 47.125Z" fill="#FFD54F"/>
<path d="M32.625 45.052V48.677C34.007 48.1559 35.2191 47.5555 36.25 46.8871V43.5H35.8535C34.9133 44.0777 33.8371 44.5988 32.625 45.052Z" fill="#FFE082"/>
<path d="M25.375 46.7739V50.3989C26.6437 50.2403 27.8559 50.0137 29 49.7532V46.1282C27.8559 46.4 26.6437 46.6153 25.375 46.7739Z" fill="#FFE082"/>
</g>
<defs>
<clipPath id="clip0_565_5675">
<rect width="58" height="58" fill="white"/>
</clipPath>
</defs>
</svg>
