<svg width="22" height="20" viewBox="0 0 22 20" fill="none" xmlns="http://www.w3.org/2000/svg">
<g clip-path="url(#clip0_519_5202)">
<path d="M22 13.1765H0V17.7017H22V13.1765Z" fill="#1EC0E8"/>
<path d="M2.54516 17.0189H0.715332V13.8232H2.47551V14.4095H1.40193V15.1183H2.39996V15.7025H1.40193V16.4333H2.54516V17.0189Z" fill="white"/>
<path d="M6.44672 13.8232L5.39547 17.0189H4.61689L3.57812 13.8232H4.3186L4.9546 16.0473C4.98576 16.151 5.00646 16.2577 5.01636 16.3659H5.0295C5.04158 16.2548 5.06358 16.1451 5.09521 16.0384L5.72727 13.8232H6.44672Z" fill="white"/>
<path d="M9.51391 17.0189H7.68408V13.8232H9.44427V14.4095H8.37134V15.1183H9.36937V15.7025H8.37134V16.4333H9.51391V17.0189Z" fill="white"/>
<path d="M13.6201 17.0189H12.9262L11.6687 15.011C11.6132 14.9256 11.5621 14.8371 11.5156 14.746H11.5071C11.518 14.8589 11.5237 15.0312 11.5241 15.2628V17.0189H10.875V13.8232H11.6155L12.8264 15.7686C12.8816 15.8567 12.9322 15.9434 12.9795 16.0294H12.988C12.9731 15.8836 12.9673 15.737 12.9709 15.5904V13.8232H13.6201V17.0189Z" fill="white"/>
<path d="M17.3323 14.4095H16.4618V17.0189H15.7725V14.4095H14.9072V13.8232H17.333L17.3323 14.4095Z" fill="white"/>
<path d="M19.9043 17.0748C19.4663 17.0748 19.1102 16.9259 18.836 16.6282C18.5618 16.3305 18.4242 15.9419 18.4233 15.4625C18.4233 14.9579 18.5631 14.5493 18.8425 14.2369C19.122 13.9245 19.4921 13.7683 19.9529 13.7683C20.3887 13.7683 20.7409 13.9176 21.0094 14.2163C21.2779 14.5149 21.4124 14.9088 21.4128 15.3978C21.4128 15.9002 21.2733 16.305 20.9943 16.6124C20.7153 16.9197 20.3519 17.0739 19.9043 17.0748ZM19.9339 14.3911C19.8234 14.3869 19.7136 14.4105 19.6137 14.4599C19.5138 14.5094 19.4266 14.5832 19.3596 14.6753C19.2177 14.8647 19.1467 15.1155 19.1467 15.4274C19.1467 15.7394 19.2177 15.9896 19.3596 16.1782C19.4279 16.2641 19.5133 16.3333 19.6098 16.3811C19.7063 16.4289 19.8116 16.454 19.9184 16.4547C20.0251 16.4554 20.1307 16.4317 20.2278 16.3853C20.3249 16.3388 20.4111 16.2707 20.4805 16.1857C20.6198 16.0068 20.6894 15.7584 20.6894 15.4405C20.6894 15.1097 20.622 14.8519 20.4871 14.667C20.4234 14.5772 20.3397 14.5049 20.2433 14.4566C20.1469 14.4083 20.0406 14.3853 19.9339 14.3897V14.3911Z" fill="white"/>
<path d="M0.91723 19.5052V19.9759H0.623535V18.6106H1.08346C1.41197 18.6106 1.57645 18.7556 1.57689 19.0455C1.57882 19.1086 1.56705 19.1714 1.54247 19.2291C1.51789 19.2868 1.48113 19.3379 1.43497 19.3786C1.32802 19.4676 1.19364 19.5127 1.05718 19.5052H0.91723ZM0.91723 18.8466V19.2719H1.03287C1.18924 19.2719 1.26743 19.2003 1.26743 19.0572C1.26743 18.9141 1.18924 18.8439 1.03287 18.8466H0.91723Z" fill="black"/>
<path d="M4.77572 19.9759H4.45575L4.36311 19.6724H3.89925L3.80726 19.9759H3.48926L3.96429 18.6106H4.31252L4.77572 19.9759ZM4.29609 19.4357L4.15614 18.9767C4.14463 18.9368 4.13715 18.8957 4.13381 18.8542H4.12658C4.12365 18.8947 4.11615 18.9346 4.10424 18.9732L3.96232 19.4357H4.29609Z" fill="black"/>
<path d="M7.73593 19.9277C7.6182 19.9806 7.49071 20.0052 7.36274 20C7.27617 20.0048 7.18959 19.9909 7.10841 19.959C7.02723 19.9272 6.95321 19.8781 6.89099 19.8149C6.83255 19.749 6.78727 19.6715 6.75783 19.587C6.72838 19.5025 6.71535 19.4127 6.7195 19.3229C6.71558 19.2252 6.73068 19.1278 6.76389 19.0364C6.7971 18.9451 6.84773 18.8618 6.91267 18.7916C6.97819 18.723 7.05653 18.6692 7.14278 18.6337C7.22904 18.5982 7.32136 18.5817 7.41399 18.5852C7.52332 18.5823 7.63228 18.5996 7.73593 18.6361V18.932C7.64553 18.8766 7.54235 18.8483 7.43764 18.8501C7.38288 18.8477 7.32824 18.8573 7.27722 18.8783C7.2262 18.8993 7.17991 18.9312 7.14132 18.9719C7.10252 19.0158 7.07254 19.0674 7.05312 19.1237C7.03371 19.18 7.02528 19.2397 7.02831 19.2995C7.02269 19.4153 7.06093 19.5288 7.13475 19.6153C7.17187 19.655 7.21658 19.686 7.26595 19.7063C7.31533 19.7266 7.36824 19.7357 7.42121 19.733C7.53179 19.734 7.64055 19.7035 7.73593 19.6449V19.9277Z" fill="black"/>
<path d="M10.9086 19.9759H10.5381L10.1577 19.3847C10.1447 19.3606 10.1333 19.3355 10.1235 19.3097H10.1189V19.9779H9.8252V18.6106H10.1189V19.2561H10.1235C10.1307 19.2382 10.1425 19.2127 10.1596 19.1797L10.5197 18.6106H10.8699L10.4152 19.2616L10.9086 19.9759Z" fill="black"/>
<path d="M14.0421 19.9759H13.7248L13.6322 19.6724H13.1683L13.0763 19.9759H12.7583L13.2327 18.6106H13.5809L14.0421 19.9759ZM13.5619 19.4357L13.4219 18.9767C13.411 18.9367 13.4037 18.8957 13.4002 18.8542H13.3963C13.3931 18.8947 13.3854 18.9347 13.3733 18.9732L13.232 19.4357H13.5619Z" fill="black"/>
<path d="M17.1371 19.8843C16.9913 19.9661 16.8274 20.006 16.6621 19.9999C16.4804 20.0102 16.3022 19.9446 16.1667 19.8176C16.1047 19.7517 16.0566 19.673 16.0253 19.5865C15.9941 19.5 15.9805 19.4076 15.9853 19.3152C15.9818 19.2182 15.9974 19.1214 16.0314 19.0311C16.0653 18.9407 16.1167 18.8587 16.1824 18.7902C16.2527 18.7214 16.3354 18.668 16.4257 18.6332C16.516 18.5983 16.612 18.5827 16.7081 18.5872C16.8323 18.585 16.9559 18.6055 17.0734 18.6477V18.9361C16.9603 18.8717 16.8328 18.8401 16.7041 18.8445C16.6489 18.8423 16.5939 18.8523 16.5427 18.8737C16.4914 18.8952 16.445 18.9277 16.4065 18.9691C16.3342 19.0613 16.2937 19.1763 16.2915 19.2955C16.2894 19.4148 16.3257 19.5313 16.3947 19.6263C16.4306 19.6652 16.474 19.6956 16.522 19.7156C16.5701 19.7355 16.6216 19.7445 16.6732 19.7419C16.7306 19.7442 16.7878 19.7334 16.8408 19.7102V19.4432H16.578V19.1976H17.1325L17.1371 19.8843Z" fill="black"/>
<path d="M20.0324 19.9759H19.2505V18.6106H20.0021V18.8611H19.5422V19.1645H19.9686V19.4143H19.5422V19.7288H20.0324V19.9759Z" fill="black"/>
<path d="M14.5432 10.5698V10.8864L14.145 10.788V10.8616L14.6345 10.9827V10.5698C14.6354 10.5699 14.6363 10.5698 14.6371 10.5695C14.638 10.5692 14.6388 10.5687 14.6394 10.568C14.64 10.5674 14.6405 10.5666 14.6408 10.5657C14.6411 10.5648 14.6412 10.5639 14.6411 10.5629C14.6411 10.5621 14.6409 10.5612 14.6406 10.5604C14.6402 10.5596 14.6397 10.5589 14.6391 10.5583C14.6385 10.5577 14.6378 10.5573 14.637 10.557C14.6362 10.5567 14.6353 10.5566 14.6345 10.5567C14.6356 10.5472 14.6335 10.5377 14.6284 10.5297C14.6233 10.5217 14.6157 10.516 14.6069 10.5134C14.5981 10.5079 14.591 10.4997 14.5865 10.49C14.5818 10.4997 14.5745 10.5078 14.5655 10.5134C14.5567 10.516 14.5491 10.5217 14.544 10.5297C14.539 10.5377 14.5368 10.5472 14.5379 10.5567C14.5371 10.5566 14.5363 10.5567 14.5355 10.557C14.5347 10.5573 14.5339 10.5577 14.5333 10.5583C14.5327 10.5589 14.5322 10.5596 14.5319 10.5604C14.5315 10.5612 14.5313 10.5621 14.5314 10.5629C14.5305 10.5646 14.5303 10.5665 14.5308 10.5683C14.5313 10.5701 14.5324 10.5717 14.534 10.5726C14.5355 10.5735 14.5374 10.5737 14.5391 10.5732C14.5408 10.5727 14.5423 10.5715 14.5432 10.5698V10.5698Z" fill="#1FC0E8"/>
<path d="M13.2363 10.3442V10.4075H13.3145V10.4914C13.3227 10.5094 13.3326 10.5265 13.3441 10.5424C13.3657 10.5699 13.3763 10.6052 13.3736 10.6408V10.788H13.2869V10.8617H14.097V10.7894L14.1424 10.799V10.4391C14.1441 10.4391 14.1458 10.4384 14.147 10.4371C14.1483 10.4358 14.1489 10.4341 14.1489 10.4323C14.1489 10.4304 14.1483 10.4287 14.147 10.4274C14.1458 10.4261 14.1441 10.4254 14.1424 10.4254C14.1432 10.416 14.1409 10.4066 14.1359 10.3989C14.1308 10.3911 14.1234 10.3854 14.1148 10.3827C14.1148 10.3769 14.1126 10.3713 14.1086 10.3671C14.1047 10.363 14.0993 10.3607 14.0938 10.3607C14.0882 10.3607 14.0828 10.363 14.0789 10.3671C14.0749 10.3713 14.0727 10.3769 14.0727 10.3827C14.0641 10.3854 14.0567 10.3911 14.0516 10.3989C14.0466 10.4066 14.0443 10.416 14.0451 10.4254C14.0434 10.4254 14.0417 10.4261 14.0405 10.4274C14.0393 10.4287 14.0386 10.4304 14.0386 10.4323C14.0386 10.4341 14.0393 10.4358 14.0405 10.4371C14.0417 10.4384 14.0434 10.4391 14.0451 10.4391H14.053V10.7866H13.875V10.6394C13.8736 10.6215 13.8758 10.6036 13.8813 10.5867C13.8869 10.5698 13.8956 10.5542 13.9072 10.541C13.9196 10.5253 13.9304 10.5082 13.9394 10.4901V10.4061H14.0175V10.3428H13.9597C13.9597 10.1398 13.8631 10.0958 13.7705 10.0476C13.7092 10.01 13.6596 9.95452 13.6279 9.88794C13.5958 9.95448 13.5461 10.0099 13.4847 10.0476C13.392 10.0958 13.2955 10.1398 13.2955 10.3428L13.2363 10.3442ZM13.6568 10.6408C13.6556 10.622 13.6588 10.6032 13.6661 10.5861C13.6735 10.5689 13.6847 10.5539 13.6989 10.5424C13.6978 10.536 13.6981 10.5295 13.6996 10.5233C13.7012 10.5171 13.7041 10.5113 13.708 10.5063C13.712 10.5014 13.7169 10.4974 13.7225 10.4947C13.728 10.492 13.7341 10.4906 13.7403 10.4906C13.7464 10.4906 13.7525 10.492 13.7581 10.4947C13.7636 10.4974 13.7686 10.5014 13.7725 10.5063C13.7765 10.5113 13.7793 10.5171 13.7809 10.5233C13.7825 10.5295 13.7827 10.536 13.7817 10.5424C13.7956 10.5541 13.8067 10.5691 13.8139 10.5862C13.8211 10.6034 13.8242 10.6221 13.8231 10.6408V10.788H13.6588L13.6568 10.6408ZM13.4341 10.6408C13.4329 10.6221 13.4361 10.6034 13.4433 10.5862C13.4505 10.5691 13.4615 10.5541 13.4755 10.5424C13.4914 10.5274 13.5053 10.5102 13.5169 10.4914C13.5289 10.5101 13.543 10.5272 13.5589 10.5424C13.5729 10.5541 13.5839 10.5691 13.5911 10.5862C13.5983 10.6034 13.6015 10.6221 13.6003 10.6408V10.788H13.4341V10.6408Z" fill="#1FC0E8"/>
<path d="M2.59017 9.84298H2.65588V9.77417H0.750488V9.8884H2.53827C2.53837 9.88168 2.53985 9.87506 2.54262 9.869C2.54539 9.86293 2.54937 9.85756 2.55429 9.85325C2.55922 9.84894 2.56497 9.84579 2.57116 9.84402C2.57736 9.84225 2.58384 9.8419 2.59017 9.84298V9.84298Z" fill="#1FC0E8"/>
<path d="M2.76869 8.61345V9.07381H2.75555C2.74823 9.07381 2.74121 9.07686 2.73604 9.08228C2.73086 9.0877 2.72796 9.09505 2.72796 9.10272C2.72796 9.11038 2.73086 9.11773 2.73604 9.12315C2.74121 9.12857 2.74823 9.13162 2.75555 9.13162H3.21547C3.22279 9.13162 3.22981 9.12857 3.23499 9.12315C3.24016 9.11773 3.24307 9.11038 3.24307 9.10272C3.24307 9.09505 3.24016 9.0877 3.23499 9.08228C3.22981 9.07686 3.22279 9.07381 3.21547 9.07381H3.20233V8.61345C3.21534 8.61193 3.22736 8.60544 3.23609 8.59522C3.24482 8.585 3.24965 8.57177 3.24965 8.55806C3.24965 8.54434 3.24482 8.53111 3.23609 8.52089C3.22736 8.51067 3.21534 8.50418 3.20233 8.50266V8.50266V8.46619C3.20233 8.34783 2.9842 8.06982 2.9842 8.06982C2.9842 8.06982 2.76607 8.34508 2.76607 8.46619V8.50266C2.75305 8.50418 2.74103 8.51067 2.7323 8.52089C2.72358 8.53111 2.71875 8.54434 2.71875 8.55806C2.71875 8.57177 2.72358 8.585 2.7323 8.59522C2.74103 8.60544 2.75305 8.61193 2.76607 8.61345H2.76869ZM3.10641 8.70704C3.10641 8.6802 3.11955 8.65887 3.13597 8.65887C3.1524 8.65887 3.16554 8.6802 3.16554 8.70704V8.90935H3.10641V8.70704ZM2.94083 8.70704C2.94083 8.70071 2.94202 8.69445 2.94434 8.68861C2.94665 8.68276 2.95003 8.67745 2.9543 8.67298C2.95858 8.6685 2.96365 8.66496 2.96923 8.66254C2.97481 8.66011 2.98079 8.65887 2.98683 8.65887C2.99292 8.65878 2.99897 8.65996 3.00463 8.66234C3.01028 8.66472 3.01543 8.66825 3.01978 8.67273C3.02412 8.67721 3.02756 8.68255 3.02991 8.68844C3.03227 8.69433 3.03348 8.70065 3.03348 8.70704V8.90935H2.94083V8.70704ZM2.80943 8.70704C2.80943 8.6802 2.82257 8.65887 2.83834 8.65887C2.85411 8.65887 2.86791 8.6802 2.86791 8.70704V8.90935H2.80943V8.70704Z" fill="#1FC0E8"/>
<path d="M5.05197 11.9083H4.98627C4.95342 11.0749 4.26353 10.9573 4.26353 10.9573C4.26353 10.9573 3.57102 11.0749 3.5362 11.9083H3.4751V11.9991H3.61636C3.64593 11.9991 3.6387 11.9551 3.6387 11.9551C3.66564 11.9551 3.66235 11.9083 3.66235 11.9083H3.61373C3.64658 11.1665 4.26353 11.0584 4.26353 11.0584C4.26353 11.0584 4.87786 11.1637 4.91334 11.9055H4.86406C4.86406 11.9055 4.86406 11.9523 4.88837 11.9523C4.88837 11.9523 4.88048 11.9964 4.91071 11.9964H5.05197V11.9083Z" fill="#1FC0E8"/>
<path d="M16.8188 8.98359H21.1867V8.93198L21.232 8.88037H16.7734L16.8188 8.93198V8.98359Z" fill="#1FC0E8"/>
<path d="M21.0918 8.46899H16.9131V8.82063H21.0918V8.46899Z" fill="#1FC0E8"/>
<path d="M20.9699 7.99414H17.0356V8.35266H20.9699V7.99414Z" fill="#1FC0E8"/>
<path d="M19.8705 6.97974H18.1353V7.12493H19.8705V6.97974Z" fill="#1FC0E8"/>
<path d="M19.0025 6.62818C18.7742 6.62753 18.5539 6.71583 18.3843 6.87591H19.6215C19.4515 6.71602 19.231 6.62776 19.0025 6.62818V6.62818Z" fill="#1FC0E8"/>
<path d="M16.833 9.24444H21.172L21.2022 9.1543H16.8027L16.833 9.24444Z" fill="#1FC0E8"/>
<path d="M20.6601 7.198H17.3447V7.93775H20.6601V7.198ZM18.0221 7.7781C17.9851 7.77823 17.9488 7.76685 17.9179 7.74538C17.887 7.72391 17.8629 7.69333 17.8487 7.65751C17.8344 7.62169 17.8306 7.58223 17.8377 7.54414C17.8449 7.50605 17.8627 7.47104 17.8888 7.44355C17.915 7.41605 17.9484 7.3973 17.9847 7.38968C18.021 7.38206 18.0587 7.3859 18.093 7.40072C18.1272 7.41555 18.1565 7.44068 18.1771 7.47295C18.1977 7.50522 18.2087 7.54316 18.2087 7.58198C18.2087 7.63387 18.1891 7.68365 18.1541 7.72041C18.1191 7.75717 18.0717 7.77792 18.0221 7.7781V7.7781ZM19.7304 7.79668H19.3953V7.83177H18.6121V7.79668H18.2771V7.36797H18.6121V7.33219H19.3953V7.36797H19.7304V7.79668ZM19.984 7.7781C19.947 7.7781 19.9108 7.7666 19.88 7.74505C19.8492 7.7235 19.8252 7.69287 19.811 7.65703C19.7968 7.62119 19.7931 7.58176 19.8004 7.54372C19.8076 7.50567 19.8254 7.47073 19.8516 7.4433C19.8778 7.41587 19.9112 7.3972 19.9475 7.38963C19.9838 7.38206 20.0215 7.38595 20.0557 7.40079C20.0899 7.41563 20.1191 7.44077 20.1397 7.47302C20.1603 7.50527 20.1713 7.54319 20.1713 7.58198C20.1713 7.60785 20.1664 7.63347 20.1569 7.65735C20.1474 7.68123 20.1335 7.70292 20.116 7.72114C20.0984 7.73937 20.0776 7.75379 20.0548 7.76357C20.0319 7.77334 20.0074 7.77828 19.9827 7.7781H19.984Z" fill="#1FC0E8"/>
<path d="M17.6243 10.4919H17.0454V10.8044H17.6243V10.4919Z" fill="#1FC0E8"/>
<path d="M17.6243 10.0007H17.0454V10.128H17.6243V10.0007Z" fill="#1FC0E8"/>
<path d="M17.3225 9.73702C17.3512 9.73702 17.3792 9.7281 17.4031 9.71139C17.427 9.69468 17.4456 9.67093 17.4566 9.64314C17.4676 9.61535 17.4705 9.58477 17.4649 9.55527C17.4593 9.52577 17.4454 9.49867 17.4251 9.4774C17.4048 9.45614 17.3789 9.44165 17.3508 9.43578C17.3226 9.42992 17.2934 9.43293 17.2669 9.44444C17.2403 9.45595 17.2177 9.47544 17.2017 9.50045C17.1858 9.52546 17.1772 9.55486 17.1772 9.58494C17.1772 9.62527 17.1925 9.66396 17.2198 9.69248C17.247 9.721 17.2839 9.73702 17.3225 9.73702Z" fill="#1FC0E8"/>
<path d="M17.9664 9.33794V9.30766H16.7029V9.52648H16.6576V9.48382H16.6234V9.33105C16.6227 9.32136 16.6238 9.31161 16.6267 9.30239C16.6297 9.29317 16.6344 9.28466 16.6405 9.27738C16.6472 9.26893 16.6529 9.25969 16.6576 9.24985V9.20444H16.7233C16.7296 9.20444 16.7356 9.20183 16.74 9.19718C16.7444 9.19253 16.7469 9.18623 16.7469 9.17966C16.7469 9.17303 16.7445 9.16665 16.7401 9.1619C16.7356 9.15714 16.7296 9.15438 16.7233 9.1542H16.672C16.6753 9.11927 16.6668 9.08426 16.6481 9.05514C16.6294 9.02601 16.6016 9.0046 16.5695 8.99456C16.5695 8.97302 16.5614 8.95237 16.5468 8.93714C16.5323 8.92191 16.5126 8.91335 16.492 8.91335C16.4715 8.91335 16.4517 8.92191 16.4372 8.93714C16.4227 8.95237 16.4145 8.97302 16.4145 8.99456C16.3824 9.0046 16.3546 9.02601 16.3359 9.05514C16.3172 9.08426 16.3088 9.11927 16.312 9.1542H16.2607C16.2544 9.15438 16.2484 9.15714 16.244 9.1619C16.2396 9.16665 16.2371 9.17303 16.2371 9.17966C16.2371 9.18623 16.2396 9.19253 16.244 9.19718C16.2485 9.20183 16.2545 9.20444 16.2607 9.20444H16.3264V9.24985C16.3309 9.25952 16.3362 9.26873 16.3422 9.27738C16.3482 9.28474 16.3528 9.29327 16.3556 9.30249C16.3584 9.3117 16.3594 9.32141 16.3586 9.33105V9.48107H16.3264V9.52373H16.2607C16.2545 9.52373 16.2485 9.52634 16.244 9.53099C16.2396 9.53563 16.2371 9.54193 16.2371 9.5485C16.2371 9.55507 16.2396 9.56138 16.244 9.56602C16.2485 9.57067 16.2545 9.57328 16.2607 9.57328V9.57328V9.60906H16.2864V9.57328H16.3094V9.60906H16.3212L16.2818 10.6151H16.2384C16.2321 10.6151 16.2261 10.6177 16.2217 10.6224C16.2172 10.627 16.2147 10.6333 16.2147 10.6399C16.2147 10.6465 16.2172 10.6528 16.2217 10.6574C16.2261 10.6621 16.2321 10.6647 16.2384 10.6647V10.6647V10.7004H16.2647V10.6647H16.2805L16.245 11.5806H16.2075C16.2012 11.5806 16.1952 11.5832 16.1908 11.5878C16.1864 11.5925 16.1839 11.5988 16.1839 11.6053C16.1839 11.6119 16.1864 11.6182 16.1908 11.6229C16.1952 11.6275 16.2012 11.6301 16.2075 11.6301V11.6652H16.2338V11.6301H16.243L16.2042 12.6203H15.4552L15.427 11.8937H15.446V11.8668C15.4508 11.8667 15.4553 11.8646 15.4586 11.861C15.4619 11.8574 15.4638 11.8526 15.4638 11.8476C15.4638 11.8426 15.4619 11.8379 15.4586 11.8344C15.4552 11.8309 15.4507 11.829 15.446 11.829H15.4237L15.3967 11.1319H15.4119V11.1587H15.4316V11.1319C15.4363 11.1317 15.4408 11.1296 15.4442 11.126C15.4475 11.1224 15.4493 11.1176 15.4493 11.1126C15.4493 11.1077 15.4474 11.103 15.4441 11.0995C15.4408 11.096 15.4363 11.0941 15.4316 11.0941H15.3981L15.3685 10.3282H15.377V10.3013H15.3941V10.3282H15.4145V10.3013C15.4193 10.3012 15.4239 10.2991 15.4273 10.2955C15.4307 10.2919 15.4327 10.2871 15.4329 10.2821C15.4327 10.2771 15.4307 10.2723 15.4273 10.2689C15.4238 10.2654 15.4193 10.2635 15.4145 10.2635H15.3672V10.2325H15.3402V10.1183C15.3397 10.1109 15.3407 10.1035 15.3431 10.0965C15.3455 10.0895 15.3492 10.0831 15.354 10.0777C15.359 10.0712 15.3634 10.0643 15.3672 10.057V10.0219H15.4145C15.4193 10.0219 15.4238 10.02 15.4273 10.0165C15.4307 10.0131 15.4327 10.0084 15.4329 10.0034C15.4327 9.99831 15.4307 9.9935 15.4273 9.98993C15.4239 9.98635 15.4193 9.98427 15.4145 9.9841H15.3672C15.3696 9.95754 15.3631 9.93093 15.3488 9.90884C15.3346 9.88674 15.3134 9.87053 15.289 9.86298C15.289 9.85485 15.2875 9.8468 15.2845 9.83928C15.2815 9.83177 15.2772 9.82494 15.2717 9.81919C15.2662 9.81344 15.2597 9.80888 15.2525 9.80577C15.2453 9.80265 15.2376 9.80105 15.2299 9.80105C15.2221 9.80105 15.2144 9.80265 15.2072 9.80577C15.2001 9.80888 15.1935 9.81344 15.188 9.81919C15.1826 9.82494 15.1782 9.83177 15.1752 9.83928C15.1723 9.8468 15.1707 9.85485 15.1707 9.86298C15.1464 9.87054 15.1253 9.88679 15.1111 9.9089C15.097 9.93101 15.0906 9.95761 15.0932 9.9841H15.0538C15.049 9.98427 15.0445 9.98638 15.0412 9.98998C15.0379 9.99357 15.036 9.99837 15.036 10.0034C15.036 10.0083 15.0379 10.013 15.0412 10.0165C15.0446 10.02 15.0491 10.0219 15.0538 10.0219H15.1044V10.057C15.1076 10.0643 15.1116 10.0713 15.1162 10.0777C15.1252 10.089 15.1297 10.1036 15.1287 10.1183V10.2325H15.1044V10.2655H15.0564C15.0517 10.2655 15.0472 10.2675 15.0439 10.271C15.0405 10.2745 15.0387 10.2792 15.0387 10.2841C15.0387 10.2891 15.0405 10.2939 15.0438 10.2975C15.0471 10.3011 15.0516 10.3032 15.0564 10.3034V10.3034V10.3302H15.0761V10.3013H15.0932V10.3282H15.1024L15.0722 11.0941H15.0387C15.0339 11.0941 15.0293 11.096 15.0259 11.0995C15.0225 11.1029 15.0204 11.1076 15.0203 11.1126C15.0204 11.1177 15.0224 11.1225 15.0258 11.1261C15.0293 11.1297 15.0338 11.1317 15.0387 11.1319V11.1319V11.1587H15.059V11.1319H15.0709L15.0387 11.829H15.0104C15.008 11.8289 15.0057 11.8293 15.0034 11.8302C15.0012 11.8311 14.9992 11.8324 14.9974 11.8342C14.9957 11.8359 14.9944 11.838 14.9934 11.8403C14.9925 11.8426 14.992 11.8451 14.992 11.8476C14.992 11.8527 14.994 11.8576 14.9974 11.8612C15.0009 11.8648 15.0055 11.8668 15.0104 11.8668V11.8937H15.0301V11.8668H15.0387L15.0091 12.6203H14.6359V11.05L14.1464 10.9289V12.6203H14.0958V10.9289H13.287V12.6203H13.2496V10.4789H13.1622V10.2222C13.1622 10.2222 13.1011 10.1451 12.4395 10.1389C12.4339 10.1164 12.4241 10.0952 12.4107 10.0767C12.3973 10.0581 12.3805 10.0426 12.3613 10.0309C12.3401 10.0185 12.3166 10.0111 12.2924 10.0093C12.2682 10.0075 12.2439 10.0114 12.2213 10.0206C12.2391 9.98685 12.2542 9.95175 12.2699 9.91872H12.358C13.1116 9.91872 13.1648 9.99717 13.1648 9.99717C13.1648 9.99717 13.4684 9.71572 13.2239 9.30146C13.1348 9.15633 13.0221 9.02869 12.8908 8.92436C12.8924 8.91918 12.8938 8.91389 12.8948 8.90854C12.9007 8.87529 12.8971 8.84096 12.8846 8.80981C12.872 8.77865 12.851 8.75205 12.8241 8.73329C12.7972 8.71453 12.7657 8.70444 12.7334 8.70428C12.7011 8.70412 12.6695 8.71389 12.6425 8.73238L12.6287 8.72205C12.6472 8.58103 12.6584 8.43907 12.6622 8.29678C12.6841 8.32409 12.7136 8.34366 12.7465 8.35285C12.7795 8.36204 12.8143 8.3604 12.8463 8.34816C12.8783 8.33592 12.906 8.31366 12.9255 8.28441C12.9451 8.25516 12.9555 8.22032 12.9555 8.18462C12.9555 8.14892 12.9451 8.11408 12.9255 8.08483C12.906 8.05558 12.8783 8.03332 12.8463 8.02108C12.8143 8.00883 12.7795 8.0072 12.7465 8.01639C12.7136 8.02558 12.6841 8.04515 12.6622 8.07245C12.6585 7.92274 12.6464 7.77339 12.6261 7.62516C12.6476 7.64363 12.6733 7.65613 12.7007 7.6615C12.7281 7.66687 12.7563 7.66494 12.7828 7.65589C12.8093 7.64684 12.8332 7.63096 12.8523 7.60971C12.8714 7.58847 12.8851 7.56253 12.8921 7.53429C12.8991 7.50605 12.8993 7.47641 12.8925 7.4481C12.8857 7.41979 12.8723 7.39371 12.8534 7.37227C12.8345 7.35082 12.8107 7.3347 12.7843 7.32539C12.7579 7.31607 12.7297 7.31385 12.7023 7.31894C12.6788 7.32348 12.6565 7.33319 12.6369 7.34743C12.6174 7.36166 12.6009 7.3801 12.5886 7.40152C12.5595 7.2553 12.5222 7.111 12.4769 6.96937C12.5064 6.9874 12.5405 6.99543 12.5746 6.99236C12.6086 6.98928 12.6409 6.97524 12.6671 6.95217C12.6932 6.92911 12.7119 6.89814 12.7205 6.86352C12.7292 6.8289 12.7274 6.79232 12.7154 6.7588C12.704 6.72503 12.6828 6.6958 12.6549 6.67513C12.6269 6.65446 12.5936 6.64336 12.5594 6.64336C12.5252 6.64336 12.4918 6.65446 12.4638 6.67513C12.4359 6.6958 12.4148 6.72503 12.4033 6.7588C12.3504 6.61867 12.2896 6.48196 12.2213 6.34936C12.2439 6.35857 12.2682 6.36242 12.2924 6.36063C12.3166 6.35885 12.3401 6.35147 12.3613 6.33904C12.3995 6.31595 12.4274 6.27789 12.4389 6.23324C12.4504 6.18859 12.4444 6.141 12.4224 6.10094C12.4003 6.06088 12.364 6.03163 12.3214 6.01963C12.2787 6.00763 12.2333 6.01386 12.195 6.03694C12.1739 6.04979 12.1558 6.06749 12.1422 6.08871C12.1285 6.10992 12.1196 6.1341 12.1162 6.15943C12.0392 6.02998 11.9551 5.90522 11.8646 5.78577C11.8887 5.79147 11.9138 5.79133 11.938 5.78537C11.9621 5.77941 11.9846 5.76778 12.0038 5.75137C12.026 5.73269 12.0433 5.70839 12.054 5.68076C12.0646 5.65314 12.0684 5.62311 12.0649 5.59353C12.0614 5.56395 12.0507 5.53581 12.0338 5.51178C12.017 5.48774 11.9946 5.46862 11.9687 5.45622C11.9428 5.44381 11.9144 5.43855 11.886 5.44092C11.8576 5.44329 11.8303 5.45322 11.8066 5.46976C11.783 5.4863 11.7637 5.50891 11.7507 5.53544C11.7378 5.56196 11.7315 5.59152 11.7325 5.62131C11.6358 5.50667 11.5325 5.39842 11.423 5.2972C11.451 5.29776 11.4787 5.29087 11.5035 5.27718C11.5283 5.26349 11.5493 5.24344 11.5647 5.21891C11.58 5.19438 11.5892 5.16617 11.5913 5.13692C11.5934 5.10767 11.5884 5.07833 11.5768 5.05166C11.5651 5.02498 11.5472 5.00184 11.5247 4.9844C11.5021 4.96696 11.4758 4.95578 11.448 4.95192C11.4202 4.94805 11.392 4.95163 11.3659 4.96231C11.3398 4.973 11.3167 4.99043 11.2988 5.013C11.2832 5.03303 11.2721 5.05647 11.2663 5.0816C11.2605 5.10673 11.2602 5.13291 11.2653 5.15819C11.1513 5.06345 11.0322 4.97568 10.9086 4.89533C10.9329 4.89181 10.9561 4.88255 10.9765 4.86824C10.9968 4.85394 11.0138 4.83496 11.0262 4.81275C11.0482 4.77269 11.0542 4.7251 11.0427 4.68045C11.0312 4.6358 11.0033 4.59774 10.9651 4.57465C10.9268 4.55157 10.8814 4.54534 10.8388 4.55734C10.7961 4.56934 10.7598 4.59859 10.7377 4.63865C10.7259 4.6608 10.7188 4.68544 10.7171 4.71078C10.7154 4.73612 10.7191 4.76155 10.7279 4.78522C10.6002 4.71353 10.4686 4.64988 10.3337 4.59461C10.3563 4.58583 10.3768 4.57207 10.394 4.55426C10.4111 4.53646 10.4243 4.51502 10.4329 4.49139C10.4428 4.46383 10.4459 4.43409 10.4419 4.40493C10.4379 4.37578 10.4269 4.34816 10.41 4.32464C10.3931 4.30112 10.3707 4.28246 10.3451 4.27039C10.3194 4.25832 10.2913 4.25323 10.2633 4.25561C10.2352 4.25798 10.2082 4.26773 10.1848 4.28395C10.1613 4.30018 10.1421 4.32235 10.129 4.34841C10.1159 4.37448 10.1093 4.40358 10.1098 4.43303C10.1103 4.46248 10.118 4.49131 10.132 4.51685C9.99664 4.46973 9.85888 4.43068 9.71934 4.39987C9.74869 4.38162 9.77199 4.35438 9.78609 4.32183C9.8002 4.28928 9.80444 4.25299 9.79825 4.21784C9.79205 4.18269 9.77571 4.15037 9.75143 4.12525C9.72715 4.10013 9.69611 4.0834 9.66247 4.07733C9.62884 4.07126 9.59424 4.07614 9.56333 4.09131C9.53243 4.10647 9.5067 4.1312 9.48963 4.16215C9.47256 4.1931 9.46496 4.22878 9.46785 4.2644C9.47074 4.30002 9.48399 4.33385 9.50581 4.36133C9.36428 4.33998 9.22168 4.32735 9.07874 4.32348C9.10502 4.30045 9.1239 4.26951 9.1328 4.23485C9.14171 4.20019 9.14021 4.1635 9.12851 4.12977C9.11681 4.09603 9.09548 4.06689 9.06742 4.04629C9.03935 4.0257 9.00591 4.01465 8.97164 4.01465C8.93738 4.01465 8.90394 4.0257 8.87588 4.04629C8.84781 4.06689 8.82648 4.09603 8.81479 4.12977C8.80309 4.1635 8.80159 4.20019 8.81049 4.23485C8.81939 4.26951 8.83827 4.30045 8.86455 4.32348C8.72161 4.32735 8.57901 4.33998 8.43748 4.36133C8.45248 4.3424 8.46341 4.32031 8.46954 4.29657C8.47566 4.27282 8.47683 4.24797 8.47296 4.2237C8.46916 4.20111 8.46115 4.17952 8.44939 4.16017C8.43763 4.14082 8.42234 4.12409 8.40441 4.11093C8.38647 4.09776 8.36623 4.08843 8.34485 4.08346C8.32347 4.07848 8.30136 4.07797 8.27979 4.08195C8.25822 4.08592 8.23761 4.09431 8.21914 4.10663C8.20066 4.11895 8.18468 4.13496 8.17211 4.15375C8.15954 4.17253 8.15063 4.19373 8.14588 4.21612C8.14114 4.23851 8.14065 4.26167 8.14445 4.28426C8.14858 4.30881 8.15777 4.33211 8.17139 4.35256C8.18501 4.373 8.20272 4.39008 8.22329 4.40262C8.08373 4.43334 7.94597 4.4724 7.81067 4.5196C7.82744 4.48857 7.83472 4.4529 7.8315 4.4174C7.82829 4.38191 7.81474 4.3483 7.7927 4.32112C7.77066 4.29395 7.74119 4.27452 7.70826 4.26546C7.67533 4.2564 7.64054 4.25814 7.6086 4.27046C7.57665 4.28277 7.54908 4.30507 7.52962 4.33432C7.51016 4.36358 7.49975 4.39839 7.49979 4.43404C7.49983 4.4697 7.51032 4.50448 7.52984 4.53369C7.54937 4.5629 7.57699 4.58512 7.60896 4.59736C7.47419 4.65269 7.34256 4.71611 7.21475 4.78729C7.22353 4.76373 7.2272 4.73841 7.2255 4.71318C7.22379 4.68795 7.21676 4.66344 7.20489 4.6414C7.18285 4.60134 7.14651 4.5721 7.10388 4.56009C7.06125 4.54809 7.01581 4.55432 6.97756 4.57741C6.93931 4.60049 6.91138 4.63855 6.89993 4.6832C6.88847 4.72785 6.89441 4.77544 6.91646 4.8155C6.92872 4.83763 6.94562 4.85655 6.96588 4.87086C6.98613 4.88516 7.00922 4.89447 7.0334 4.89808C6.90975 4.97843 6.79063 5.0662 6.67664 5.16095C6.68208 5.13567 6.68189 5.10943 6.67608 5.08425C6.67027 5.05907 6.65899 5.03563 6.64313 5.01575C6.61473 4.98034 6.57406 4.9582 6.53007 4.9542C6.48608 4.9502 6.44238 4.96467 6.40857 4.99442C6.37477 5.02417 6.35363 5.06676 6.34981 5.11283C6.34599 5.1589 6.3598 5.20468 6.3882 5.24008C6.40437 5.25981 6.42458 5.27545 6.44734 5.28582C6.4701 5.29618 6.49481 5.30102 6.51961 5.29995C6.41048 5.40129 6.30714 5.50929 6.21015 5.62337C6.21134 5.59744 6.20688 5.57157 6.19709 5.54772C6.1873 5.52387 6.17244 5.50267 6.15364 5.48575C6.11952 5.45829 6.07658 5.44571 6.03381 5.45062C5.99103 5.45553 5.95172 5.47755 5.92408 5.5121C5.89644 5.54664 5.88261 5.59103 5.88547 5.636C5.88834 5.68097 5.90768 5.72304 5.93945 5.75343C5.95854 5.76983 5.98095 5.78146 6.00497 5.78742C6.02899 5.79338 6.054 5.79353 6.07808 5.78784C5.98777 5.90735 5.90398 6.0321 5.8271 6.1615C5.82351 6.13621 5.81457 6.11209 5.80093 6.0909C5.78729 6.0697 5.76929 6.05197 5.74825 6.03901C5.72931 6.02758 5.70841 6.02016 5.68674 6.01719C5.66506 6.01422 5.64304 6.01575 5.62193 6.0217C5.60082 6.02764 5.58104 6.03788 5.56371 6.05183C5.54638 6.06578 5.53184 6.08317 5.52092 6.103C5.51001 6.12284 5.50293 6.14473 5.50009 6.16743C5.49726 6.19013 5.49872 6.2132 5.50439 6.23531C5.51007 6.25742 5.51984 6.27814 5.53316 6.29629C5.54648 6.31444 5.56309 6.32967 5.58203 6.3411C5.60306 6.35353 5.62647 6.3609 5.65056 6.36268C5.67465 6.36447 5.69882 6.36062 5.72132 6.35142C5.65325 6.48416 5.59249 6.62086 5.53932 6.76086C5.52761 6.72716 5.50629 6.69805 5.47825 6.67748C5.45021 6.6569 5.4168 6.64586 5.38256 6.64584C5.34833 6.64583 5.31491 6.65684 5.28685 6.67739C5.25879 6.69794 5.23745 6.72704 5.22571 6.76072C5.21398 6.79441 5.21242 6.83107 5.22125 6.86571C5.23009 6.90036 5.24888 6.93132 5.27508 6.9544C5.30129 6.97748 5.33364 6.99156 5.36774 6.99473C5.40185 6.9979 5.43606 6.99001 5.46573 6.97212C5.42044 7.11375 5.38314 7.25805 5.35404 7.40427C5.33661 7.37354 5.31061 7.34914 5.27953 7.33436C5.24845 7.31959 5.2138 7.31515 5.18024 7.32164C5.14668 7.32813 5.11582 7.34524 5.09183 7.37067C5.06785 7.39609 5.05188 7.42861 5.04608 7.46384C5.04029 7.49906 5.04494 7.5353 5.05942 7.56767C5.0739 7.60004 5.09751 7.62698 5.12706 7.64486C5.15661 7.66274 5.19069 7.67071 5.22469 7.66768C5.2587 7.66464 5.291 7.65077 5.31724 7.62792C5.29696 7.77617 5.28468 7.9255 5.28045 8.0752C5.26504 8.05583 5.24575 8.04024 5.22395 8.02954C5.20215 8.01883 5.17838 8.01328 5.1543 8.01327C5.11021 8.01327 5.06793 8.03162 5.03676 8.06427C5.00558 8.09691 4.98807 8.1412 4.98807 8.18737C4.98807 8.23354 5.00558 8.27783 5.03676 8.31048C5.06793 8.34313 5.11021 8.36147 5.1543 8.36147C5.17838 8.36146 5.20215 8.35591 5.22395 8.3452C5.24575 8.3345 5.26504 8.31891 5.28045 8.29954C5.28045 8.36835 5.28636 8.43716 5.29162 8.51011C5.28088 8.51441 5.2718 8.52232 5.26582 8.5326C5.25984 8.54289 5.25728 8.55496 5.25856 8.56693C5.25984 8.5789 5.26488 8.59009 5.27288 8.59873C5.28089 8.60738 5.29141 8.613 5.30279 8.6147C5.30279 8.64292 5.30805 8.67182 5.31199 8.70072V8.74338C5.29366 8.72823 5.27246 8.71733 5.24981 8.7114C5.22716 8.70547 5.20356 8.70464 5.18058 8.70898C5.13711 8.7172 5.09851 8.74308 5.07316 8.78096C5.04781 8.81885 5.03778 8.86569 5.04523 8.91129C5.048 8.92525 5.05219 8.93886 5.05772 8.95189H3.30739V9.07644H3.31921C3.32267 9.07662 3.32605 9.07751 3.32918 9.07906C3.3323 9.08061 3.33511 9.08278 3.33743 9.08547C3.33974 9.08815 3.34153 9.09129 3.34269 9.0947C3.34385 9.09811 3.34436 9.10173 3.34418 9.10534C3.34436 9.10896 3.34385 9.11258 3.34269 9.11599C3.34153 9.1194 3.33974 9.12254 3.33743 9.12522C3.33511 9.12791 3.3323 9.13008 3.32918 9.13163C3.32605 9.13318 3.32267 9.13407 3.31921 9.13425H3.30739V9.21407H3.37966L3.34352 9.26912L3.30739 9.32899V9.71366H3.34352V9.8967H3.40923C3.42038 9.8967 3.43108 9.90134 3.43896 9.9096C3.44685 9.91786 3.45128 9.92906 3.45128 9.94074C3.45128 9.95242 3.44685 9.96363 3.43896 9.97188C3.43108 9.98014 3.42038 9.98478 3.40923 9.98478H3.31724C3.32839 9.98478 3.33909 9.98014 3.34698 9.97188C3.35486 9.96363 3.35929 9.95242 3.35929 9.94074C3.35929 9.92906 3.35486 9.91786 3.34698 9.9096C3.33909 9.90134 3.32839 9.8967 3.31724 9.8967H3.25154V9.71641H3.2108V9.33174L3.29096 9.21132H2.68649L2.76665 9.33174V9.71641H2.72591V9.89945H2.66021C2.64906 9.89945 2.63837 9.90409 2.63048 9.91235C2.62259 9.92061 2.61816 9.93181 2.61816 9.94349C2.61816 9.95517 2.62259 9.96638 2.63048 9.97464C2.63837 9.9829 2.64906 9.98754 2.66021 9.98754H2.71475L2.75942 10.1286H2.71475L2.71015 10.1169V10.5766H2.6405V10.1176L2.63328 10.0976L2.59188 9.98822H0.723288V10.0949H0.618822L0.684525 10.2263V10.6179H2.47493C2.47493 10.5931 2.4999 10.5738 2.53078 10.5738H2.60108C2.5702 10.5738 2.54523 10.5931 2.54523 10.6179C2.54523 10.6426 2.5702 10.6612 2.60108 10.6612H2.66678L2.68189 10.73H2.65036L2.64247 10.6956H0.715404V10.73H0.475586L0.550488 10.8278C0.549631 10.8468 0.555536 10.8655 0.567062 10.8802C0.578589 10.895 0.594922 10.9047 0.612907 10.9076C0.608904 10.916 0.606804 10.9253 0.606763 10.9348C0.606723 10.9442 0.608743 10.9536 0.612674 10.9621C0.616606 10.9706 0.62234 10.978 0.629441 10.9838C0.636542 10.9897 0.644821 10.9937 0.653643 10.9957C0.653643 10.9957 0.641816 11.0996 0.719346 11.0996V13.164H1.29425V11.0996H1.34484V10.8243H1.41054V11.0996H1.37243V11.1828H1.40594V11.2461H1.44996V13.1654H2.46442V11.2503H2.50844V11.187H2.54195V11.1037H2.47624V10.8284H2.54195V11.1037H2.55509V13.0676H2.53735V13.1186H2.49661V13.1695H3.5656C3.5656 13.0676 3.51107 13.0676 3.51107 13.0676V12.0905C3.56363 12.0905 3.5656 12.0492 3.5656 12.0003H3.41908V11.9033H3.48479C3.52158 11.0135 4.26074 10.8883 4.26074 10.8883C4.26074 10.8883 5.00056 11.0135 5.03735 11.9033H5.10305V12.0003H4.95653C4.95653 12.0492 4.95653 12.0905 5.01107 12.0905V13.0676C5.01107 13.0676 4.95653 13.0676 4.95653 13.1695H6.02421V13.1186H5.98347V13.0676H5.95194V13.0167H5.94668V11.1037H5.9769V10.9089C5.99744 10.9194 6.01981 10.9252 6.04261 10.9262V11.1037H5.9769V11.187H6.01041V11.2503H6.05443V13.1695H6.67598C6.6816 13.1777 6.68905 13.1843 6.69766 13.1887C6.71024 13.1951 6.72455 13.1967 6.73811 13.1932C6.75168 13.1897 6.76363 13.1813 6.77191 13.1695H7.06889V12.5192L7.20818 12.2123V13.1695H7.7995V12.0354C7.80713 12.0238 7.81352 12.0113 7.81856 11.9983C7.82658 11.9746 7.82961 11.9493 7.82746 11.9242C7.82531 11.8992 7.81801 11.8749 7.80607 11.8531C7.85469 11.8696 7.90397 11.8847 7.9539 11.8999L7.92565 12.6203H7.84221V13.1977H16.7029V13.2452H16.9125V12.7421H17.7575V13.2452H17.9664V11.1993H18.0071V11.1415H17.9664V11.081L18.0071 11.0239L18.0295 10.9661H17.9638V10.3701L18.0045 10.3123H17.7982L17.8212 10.2545H18.0301V10.1974H17.9644L17.9664 9.33794ZM2.43551 10.527H1.33827V10.3013H2.43551V10.527ZM0.840241 11.1037H0.774538V10.8284H0.840241V11.1037ZM1.02947 11.1037H0.963763V10.8284H1.02947V11.1037ZM1.21869 11.1037H1.15298V10.8284H1.21869V11.1037ZM2.30279 11.6542C2.31818 11.6862 2.33072 11.7196 2.34024 11.754H2.22132V11.6542H2.30279ZM2.22132 11.6398V11.54H2.22657C2.25248 11.5701 2.27457 11.6037 2.29228 11.6398H2.22132ZM2.34484 11.7684C2.35327 11.8012 2.35964 11.8346 2.36389 11.8682H2.22132V11.7684H2.34484ZM1.66218 11.9976H1.53669C1.53676 11.9592 1.53895 11.9208 1.54326 11.8827H1.66218V11.9976ZM1.66218 11.8682H1.54523C1.54949 11.8346 1.55585 11.8012 1.56429 11.7684H1.66218V11.8682ZM1.66218 11.754H1.56954C1.57927 11.7196 1.59203 11.6862 1.60765 11.6542H1.66284L1.66218 11.754ZM1.66218 11.6398H1.61422C1.62813 11.6134 1.64417 11.5883 1.66218 11.5647V11.6398ZM1.77125 11.9976H1.67664V11.884H1.77125V11.9976ZM1.77125 11.8682H1.67664V11.7684H1.77125V11.8682ZM1.77125 11.754H1.67664V11.6542H1.77125V11.754ZM1.77125 11.6398H1.67664V11.5475L1.68321 11.54H1.77125V11.6398ZM1.77125 11.5255H1.69701C1.71978 11.5026 1.74464 11.4821 1.77125 11.4643V11.5255ZM1.88032 11.9976H1.7857V11.884H1.88032V11.9976ZM1.88032 11.8682H1.7857V11.7684H1.88032V11.8682ZM1.88032 11.754H1.7857V11.6542H1.88032V11.754ZM1.88032 11.6398H1.7857V11.54H1.88032V11.6398ZM1.88032 11.5255H1.7857V11.4567C1.81548 11.4385 1.84725 11.4242 1.88032 11.414V11.5255ZM1.98939 11.9976H1.89412V11.884H1.98939V11.9976ZM1.98939 11.8682H1.89412V11.7684H1.98939V11.8682ZM1.98939 11.754H1.89412V11.6542H1.98939V11.754ZM1.98939 11.6398H1.89412V11.54H1.98939V11.6398ZM1.98939 11.5255H1.89412V11.4092C1.91394 11.4037 1.93415 11.3998 1.95456 11.3975C1.95456 11.3975 1.96836 11.3975 1.98939 11.403V11.5255ZM2.09845 11.9976H2.00318V11.884H2.09845V11.9976ZM2.09845 11.8682H2.00318V11.7684H2.09845V11.8682ZM2.09845 11.754H2.00318V11.6542H2.09845V11.754ZM2.09845 11.6398H2.00318V11.54H2.09845V11.6398ZM2.09845 11.5255H2.00318V11.4092C2.03613 11.4173 2.06809 11.4293 2.09845 11.445V11.5255ZM2.20752 11.9976H2.11225V11.884H2.20752V11.9976ZM2.20752 11.8682H2.11225V11.7684H2.20752V11.8682ZM2.20752 11.754H2.11225V11.6542H2.20752V11.754ZM2.20752 11.6398H2.11225V11.54H2.20752V11.6398ZM2.20752 11.5255H2.11225V11.4491C2.14682 11.4675 2.17887 11.4906 2.20752 11.518V11.5255ZM2.22132 11.9976V11.884H2.36586C2.37018 11.9222 2.37237 11.9606 2.37243 11.999L2.22132 11.9976ZM2.28702 10.8278H2.35272V11.103H2.28702V10.8278ZM2.09714 10.8278H2.16284V11.103H2.09714V10.8278ZM1.90792 10.8278H1.97362V11.103H1.90792V10.8278ZM1.71869 10.8278H1.78439V11.103H1.71869V10.8278ZM1.52947 10.8278H1.59517V11.103H1.52947V10.8278ZM3.25942 9.98341H3.31265L3.25942 10.1245H3.21212L3.25942 9.98341ZM3.2338 10.6592H3.26665L3.24037 10.8009H3.21212L3.2338 10.6592ZM3.02027 9.98341H3.07349L3.05903 10.1245H3.01501L3.02027 9.98341ZM3.00318 10.6592V10.8009H2.97296V10.6592H3.00318ZM2.95391 9.98341L2.95916 10.1245H2.91448L2.90003 9.98341H2.95391ZM2.73971 10.6592L2.76271 10.8009H2.73314L2.70686 10.6592H2.73971ZM2.68649 10.7693L2.69438 10.805H2.68649V10.7693ZM2.81002 12.6892H2.69372V10.9998H2.81002V12.6892ZM2.79819 10.805L2.77848 10.6633H2.81133L2.82776 10.805H2.79819ZM2.81199 10.1286L2.77848 9.98754H2.8317L2.85732 10.1286H2.81199ZM2.89477 10.6633H2.92762L2.93288 10.805H2.90331L2.89477 10.6633ZM3.04326 12.6892H2.92631V10.9998H3.04326V12.6892ZM3.06626 10.805H3.03669L3.04195 10.6633H3.0748L3.06626 10.805ZM3.13787 9.98754H3.19109L3.15758 10.1286H3.11291L3.13787 9.98754ZM3.15824 10.6633H3.19109L3.17204 10.805H3.14642L3.15824 10.6633ZM3.27782 12.6892H3.16087V10.9998H3.27782V12.6892ZM3.33827 10.6695L3.32776 10.717L3.30739 10.805H3.27782L3.30739 10.6633H3.34024L3.33827 10.6695ZM10.8212 12.1146C10.8308 12.0912 10.8448 12.0701 10.8625 12.0526C10.8801 12.0351 10.9009 12.0215 10.9237 12.0127C10.9596 11.9928 10.9939 11.9698 11.0262 11.9439C11.0582 11.9699 11.0923 11.9929 11.128 12.0127C11.1799 12.0396 11.2594 12.0698 11.2594 12.2804V12.6245H11.0965V12.4311C11.0966 12.4214 11.0948 12.4117 11.0913 12.4027C11.0878 12.3937 11.0827 12.3855 11.0761 12.3786C11.0696 12.3717 11.0618 12.3662 11.0532 12.3625C11.0447 12.3587 11.0355 12.3568 11.0262 12.3568C11.0102 12.3575 10.9949 12.364 10.9829 12.3752C10.971 12.3863 10.963 12.4015 10.9605 12.418L10.8212 12.1146ZM11.3429 10.7899H11.3356V10.6426C11.3329 10.6071 11.3435 10.5718 11.3652 10.5442C11.3767 10.5283 11.3866 10.5113 11.3948 10.4933V10.4094H11.4526L11.5347 10.4782H11.4598V10.6647C11.425 10.7073 11.3836 10.7479 11.3435 10.7878L11.3429 10.7899ZM11.2561 11.4381V11.7822H11.0965V11.5909C11.0965 11.5713 11.0891 11.5525 11.0759 11.5386C11.0628 11.5247 11.0449 11.5168 11.0262 11.5166C11.0152 11.517 11.0044 11.5201 10.9946 11.5255C10.9702 11.5011 10.9393 11.4851 10.9059 11.4794C11.014 11.4086 11.1186 11.3321 11.2193 11.2503C11.2472 11.3077 11.2601 11.3718 11.2568 11.4361L11.2561 11.4381ZM9.31133 10.0219H9.35009V10.057C9.35387 10.0643 9.35827 10.0712 9.36324 10.0777C9.36794 10.0832 9.37153 10.0896 9.37379 10.0966C9.37605 10.1035 9.37693 10.1109 9.37638 10.1183V10.2325H9.35009V10.2518L9.31133 10.0219ZM9.3974 10.2325V10.1183C9.39699 10.1106 9.39832 10.1029 9.40129 10.0958C9.40426 10.0888 9.40878 10.0826 9.41449 10.0777C9.41449 10.0729 9.41628 10.0684 9.41949 10.065C9.42269 10.0617 9.42703 10.0598 9.43157 10.0598C9.4361 10.0598 9.44044 10.0617 9.44365 10.065C9.44685 10.0684 9.44865 10.0729 9.44865 10.0777C9.45444 10.0825 9.45902 10.0887 9.462 10.0958C9.46498 10.1028 9.46626 10.1106 9.46573 10.1183V10.2325H9.3974ZM12.4105 8.30573C12.4091 8.29216 12.4029 8.27962 12.3933 8.27049C12.3836 8.26136 12.371 8.25627 12.358 8.25618V8.25618C12.3652 8.25616 12.3723 8.25756 12.379 8.26031V8.21902H12.4105C12.4105 8.24586 12.4105 8.27476 12.4105 8.30573ZM12.3974 8.52249L12.3764 8.4991C12.3858 8.49635 12.3946 8.49141 12.402 8.48465C12.3974 8.49566 12.3961 8.50804 12.3948 8.52043L12.3974 8.52249ZM12.3363 8.21902V8.261C12.3266 8.26526 12.3184 8.27245 12.3127 8.28164C12.3069 8.29084 12.3039 8.30163 12.3041 8.31261C12.304 8.32278 12.3067 8.33278 12.3116 8.34151C12.3166 8.35025 12.3238 8.35739 12.3324 8.36216C12.3149 8.36307 12.2986 8.3712 12.2869 8.38475C12.2752 8.3983 12.2691 8.41616 12.2699 8.43441C12.2708 8.45266 12.2786 8.4698 12.2915 8.48206C12.3044 8.49432 12.3215 8.5007 12.3389 8.49979C12.2616 8.58587 12.1755 8.66272 12.082 8.72893L11.082 8.54382C11.0985 8.43658 11.1079 8.3283 11.1103 8.21971L12.3363 8.21902ZM12.0124 8.77986C11.8598 8.88523 11.7205 9.01031 11.5978 9.15214L10.9907 8.92092C11.0255 8.81839 11.053 8.71327 11.0728 8.60645L12.0124 8.77986ZM11.3948 9.61319L10.8363 9.27531C10.8871 9.1805 10.931 9.08182 10.9677 8.9801L11.5564 9.20031C11.5341 9.23196 11.5117 9.2643 11.4907 9.29871C11.4316 9.39222 11.3984 9.50109 11.3948 9.61319ZM10.8862 10.6413C10.8859 10.6365 10.8859 10.6316 10.8862 10.6268L11.0176 10.7885H10.8862V10.6413ZM10.9132 10.5587C10.9184 10.5525 10.9237 10.5477 10.9283 10.5429C10.9272 10.5365 10.9275 10.53 10.929 10.5238C10.9306 10.5176 10.9335 10.5118 10.9374 10.5068C10.9414 10.5019 10.9463 10.4979 10.9519 10.4952C10.9575 10.4925 10.9635 10.4911 10.9697 10.4911C10.9758 10.4911 10.9819 10.4925 10.9875 10.4952C10.993 10.4979 10.998 10.5019 11.0019 10.5068C11.0059 10.5118 11.0087 10.5176 11.0103 10.5238C11.0119 10.53 11.0122 10.5365 11.0111 10.5429C11.0252 10.5544 11.0365 10.5694 11.0438 10.5866C11.0511 10.6037 11.0543 10.6225 11.0531 10.6413V10.7321L10.9132 10.5587ZM11.2758 10.6413V10.7885H11.1096V10.6413C11.1085 10.6226 11.1116 10.6039 11.1188 10.5868C11.126 10.5696 11.1371 10.5546 11.151 10.5429C11.1669 10.5277 11.1811 10.5106 11.1931 10.4919C11.2047 10.5107 11.2186 10.5279 11.2345 10.5429C11.2483 10.5545 11.2593 10.5694 11.2665 10.5864C11.2737 10.6034 11.2769 10.622 11.2758 10.6406V10.6413ZM10.9408 10.0495C10.8481 10.0976 10.7515 10.1417 10.7515 10.3447H10.7417L10.3672 9.87675C10.4457 9.80551 10.5193 9.72847 10.5873 9.64622L10.9979 10.0075C10.9806 10.0238 10.9614 10.0376 10.9408 10.0488V10.0495ZM10.5807 9.55676L9.26008 8.39656L10.7515 9.29871C10.7006 9.38873 10.6435 9.47475 10.5807 9.55608V9.55676ZM9.29096 8.34014L10.9099 8.95946C10.8743 9.05763 10.8321 9.15306 10.7837 9.24504L9.29096 8.34014ZM11.0098 8.59337C10.9907 8.69643 10.9643 8.79787 10.9309 8.89684L9.31133 8.27752L11.0098 8.59337ZM9.3225 8.21696H11.0465C11.0449 8.32188 11.0359 8.42653 11.0196 8.53006L9.3225 8.21696ZM9.3225 8.15228L11.0196 7.83917C11.0359 7.94271 11.0449 8.04736 11.0465 8.15228H9.3225ZM9.31199 8.08965L10.9316 7.47033C10.9649 7.56933 10.9913 7.67076 11.0104 7.7738L9.31199 8.08965ZM9.29162 8.0291L10.7844 7.12626C10.8328 7.21824 10.8749 7.31367 10.9105 7.41184L9.29162 8.0291ZM9.26074 7.97336L10.5814 6.81316C10.6442 6.89471 10.7013 6.98096 10.7522 7.07121L9.26074 7.97336ZM10.5406 9.60424C10.4753 9.68396 10.4043 9.75848 10.3284 9.8272L9.22066 8.44336L10.5406 9.60424ZM10.2824 9.86918C10.2044 9.93517 10.1219 9.99498 10.0354 10.0481L9.19109 8.5163L9.18124 8.49428L10.2824 9.86918ZM10.1648 10.6626V10.5697C10.1657 10.5698 10.1666 10.5697 10.1674 10.5694C10.1683 10.5691 10.1691 10.5686 10.1697 10.5679C10.1703 10.5673 10.1708 10.5665 10.1711 10.5656C10.1714 10.5647 10.1715 10.5637 10.1714 10.5628C10.1714 10.5619 10.1712 10.5611 10.1709 10.5603C10.1705 10.5595 10.17 10.5588 10.1694 10.5582C10.1688 10.5576 10.1681 10.5571 10.1673 10.5569C10.1665 10.5566 10.1656 10.5565 10.1648 10.5566C10.1659 10.5471 10.1638 10.5375 10.1587 10.5296C10.1536 10.5216 10.146 10.5158 10.1372 10.5133C10.1283 10.5077 10.121 10.4996 10.1162 10.4899C10.1118 10.4996 10.1047 10.5078 10.0958 10.5133V10.5133L9.94274 10.1747L10.0124 10.1369L10.3941 10.8284L10.2548 10.8628L10.1648 10.6626ZM9.91777 10.1176L9.51961 9.24091L9.98347 10.0818L9.91777 10.1176ZM9.80739 10.1733C9.77585 10.1885 9.74168 10.2009 9.7108 10.2139L9.6451 10.0199H9.65824C9.66295 10.0199 9.66746 10.0179 9.67079 10.0144C9.67411 10.011 9.67598 10.0062 9.67598 10.0013C9.67599 9.99631 9.67414 9.99151 9.67083 9.98791C9.66752 9.98432 9.66301 9.98221 9.65824 9.98203H9.63196L9.33367 9.13149L9.80739 10.1733ZM9.54458 10.0756C9.55037 10.0804 9.55495 10.0866 9.55792 10.0937C9.5609 10.1008 9.56218 10.1085 9.56166 10.1162V10.2325H9.49596V10.1183C9.49554 10.1106 9.49687 10.1029 9.49984 10.0958C9.50281 10.0888 9.50734 10.0826 9.51304 10.0777C9.51304 10.0729 9.51484 10.0684 9.51804 10.065C9.52124 10.0617 9.52559 10.0598 9.53012 10.0598C9.53465 10.0598 9.539 10.0617 9.5422 10.065C9.54541 10.0684 9.5472 10.0729 9.5472 10.0777L9.54458 10.0756ZM9.58531 10.2325V10.1183C9.58431 10.1036 9.58878 10.089 9.5978 10.0777V10.0777L9.65364 10.2387C9.63919 10.2442 9.62408 10.2483 9.60896 10.2532V10.2325H9.58531ZM9.64379 11.134H9.65102V11.1608H9.67138V11.134C9.67621 11.1338 9.6808 11.1317 9.68421 11.1281C9.68763 11.1246 9.68962 11.1198 9.68978 11.1147C9.68961 11.1097 9.6876 11.105 9.68416 11.1015C9.68073 11.0981 9.67615 11.0961 9.67138 11.0961H9.63853L9.60831 10.3302H9.61751V10.3158L9.63459 10.3103V10.3302H9.6543V10.3013L9.67138 10.2958L10.0709 11.445V11.5943C9.93715 11.642 9.80064 11.6806 9.66218 11.7099L9.64379 11.134ZM9.73314 10.2759C9.76731 10.2628 9.79885 10.249 9.83498 10.2332L10.0748 10.7624V10.9846L10.1655 10.9619L10.1931 11.0232L10.0748 11.0521V11.2585L9.73314 10.2759ZM10.1766 11.4361C10.1766 11.2248 10.2233 11.1945 10.2542 11.1677L10.3895 11.4657C10.3192 11.4987 10.2476 11.5303 10.1747 11.5592L10.1766 11.4361ZM10.2844 10.9296L10.4296 10.8938L10.4624 10.9537L10.312 10.9908L10.2844 10.9296ZM10.6129 11.3466L10.563 11.3748V11.134L10.6129 11.2248V11.3466ZM11.1228 11.1642C11.0183 11.2465 10.9098 11.3227 10.7975 11.3927C10.7991 11.3615 10.804 11.3306 10.812 11.3005C10.897 11.2445 10.9795 11.1858 11.0597 11.1243C11.0801 11.1388 11.1011 11.1521 11.1228 11.1642V11.1642ZM10.6129 10.9289V11.0968L10.563 11.006V10.9289L10.5255 10.9385L10.4927 10.8787L10.563 10.8615V10.7878L10.4572 10.814L10.063 10.1038C10.1525 10.0487 10.2379 9.98655 10.3186 9.91803L10.6911 10.3832V10.4073H10.7101L10.7693 10.4809V10.4913C10.7783 10.5094 10.789 10.5264 10.8015 10.5422C10.813 10.5554 10.8218 10.571 10.8273 10.5879C10.8329 10.6048 10.835 10.6227 10.8337 10.6406V10.7878H10.6556V10.439C10.6574 10.439 10.659 10.4382 10.6603 10.4369C10.6615 10.4356 10.6622 10.4339 10.6622 10.4321C10.6622 10.4302 10.6615 10.4285 10.6603 10.4272C10.659 10.4259 10.6574 10.4252 10.6556 10.4252C10.6564 10.4158 10.6541 10.4065 10.6491 10.3987C10.6441 10.3909 10.6366 10.3852 10.628 10.3825C10.628 10.3767 10.6258 10.3711 10.6219 10.367C10.6179 10.3628 10.6126 10.3605 10.607 10.3605C10.6014 10.3605 10.5961 10.3628 10.5921 10.367C10.5882 10.3711 10.586 10.3767 10.586 10.3825C10.5774 10.3852 10.5699 10.3909 10.5649 10.3987C10.5598 10.4065 10.5575 10.4158 10.5584 10.4252C10.5566 10.4252 10.555 10.4259 10.5537 10.4272C10.5525 10.4285 10.5518 10.4302 10.5518 10.4321C10.5518 10.4339 10.5525 10.4356 10.5537 10.4369C10.555 10.4382 10.5566 10.439 10.5584 10.439H10.5709V10.7975L10.6162 10.7878V10.8601H11.0801L11.1346 10.9289H10.6129ZM11.1569 10.8601H11.268C11.2469 10.88 11.2259 10.9 11.2023 10.9193L11.1569 10.8601ZM11.5511 10.2208V10.4052L11.4151 10.2862C11.3981 10.1314 11.312 10.0908 11.2292 10.0474C11.1679 10.0098 11.1183 9.95434 11.0866 9.88776C11.0739 9.91201 11.0592 9.93503 11.0426 9.95657L10.63 9.59392C10.6952 9.50928 10.7545 9.41981 10.8074 9.32624L11.3987 9.68544C11.4153 9.80255 11.4679 9.91079 11.5485 9.99373C11.5485 9.99373 11.5722 9.95863 11.8113 9.93524L11.9329 10.0089C11.9046 10.0577 11.8757 10.1066 11.8462 10.1541C11.5801 10.1823 11.5485 10.2222 11.5485 10.2222L11.5511 10.2208ZM11.923 9.92904L11.9822 9.9256L11.9664 9.95519L11.923 9.92904ZM12.3829 8.35872C12.3895 8.35494 12.3953 8.34983 12.3999 8.34369C12.4045 8.33754 12.4079 8.33048 12.4099 8.32293C12.4099 8.34083 12.4099 8.35872 12.4099 8.37661C12.4016 8.36852 12.3914 8.36283 12.3803 8.36009L12.3829 8.35872ZM12.4079 8.15228C12.4102 8.1466 12.4116 8.14055 12.4119 8.13438C12.4119 8.11942 12.4062 8.10507 12.3961 8.09448C12.386 8.0839 12.3723 8.07796 12.358 8.07796V8.07796C12.3652 8.07794 12.3723 8.07934 12.379 8.08209V7.93758C12.379 7.93758 12.379 7.91418 12.3573 7.91418C12.3356 7.91418 12.3363 7.93758 12.3363 7.93758V8.08277C12.3266 8.08703 12.3184 8.09422 12.3127 8.10342C12.3069 8.11261 12.3039 8.1234 12.3041 8.13438C12.3031 8.1403 12.3031 8.14636 12.3041 8.15228H11.1077C11.1053 8.04369 11.0958 7.9354 11.0794 7.82816L12.3632 7.59076C12.3928 7.77636 12.4084 7.96411 12.4099 8.15228H12.4079ZM11.0728 7.76486C11.053 7.65803 11.0255 7.55292 10.9907 7.45038L12.2134 6.98313C12.2734 7.16069 12.32 7.34292 12.3527 7.52814L11.0728 7.76486ZM10.9651 7.38982C10.9284 7.28811 10.8845 7.18943 10.8337 7.09461L11.9611 6.41267C12.0501 6.57603 12.1266 6.74654 12.1898 6.92258L10.9651 7.38982ZM10.8028 7.03956C10.7499 6.94598 10.6906 6.85652 10.6254 6.77187L11.6221 5.89725C11.7362 6.04261 11.8395 6.19698 11.9309 6.35899L10.8028 7.03956ZM10.5873 6.72302C10.5193 6.64077 10.4457 6.56373 10.3672 6.49249L11.2042 5.4479C11.3407 5.57019 11.4679 5.7034 11.5847 5.84633L10.5873 6.72302ZM10.54 6.7643L9.22066 7.92382L10.3278 6.54204C10.4038 6.61056 10.4748 6.6851 10.54 6.76499V6.7643ZM9.17401 7.88253L10.0347 6.32046C10.1212 6.37357 10.2038 6.43337 10.2818 6.49937L9.17401 7.88253ZM9.12079 7.85018L9.71212 6.15461C9.80585 6.1919 9.89697 6.23606 9.98479 6.28674L9.12079 7.85018ZM9.06297 7.82816L9.36258 6.05002C9.46096 6.07008 9.55781 6.09768 9.65233 6.1326L9.06297 7.82816ZM9.51632 9.8444C9.50138 9.83001 9.48893 9.81302 9.47953 9.79417C9.46678 9.82274 9.44619 9.8467 9.4204 9.86298C9.39597 9.87053 9.37481 9.88674 9.36054 9.90884C9.34628 9.93093 9.3398 9.95754 9.34221 9.9841H9.30607L9.06297 8.54245L9.51632 9.8444ZM9.71343 11.84C9.71199 11.8371 9.70983 11.8347 9.70716 11.833C9.7045 11.8313 9.70144 11.8304 9.69832 11.8304H9.67007V11.7774C9.80739 11.748 9.94297 11.7104 10.0761 11.6645V11.7395C9.95656 11.7794 9.83505 11.8124 9.71212 11.8386L9.71343 11.84ZM10.2226 11.6859L10.199 11.617C10.2739 11.5875 10.3475 11.5551 10.4197 11.5207L10.4487 11.5854C10.3737 11.6212 10.2982 11.6542 10.2213 11.6845L10.2226 11.6859ZM10.4053 11.1932C10.4247 11.2169 10.4379 11.2456 10.4434 11.2764L10.4053 11.1932ZM10.5643 11.4485L10.6142 11.4209V11.5014C10.5971 11.5104 10.5807 11.5207 10.5643 11.5297V11.4485ZM10.6142 11.6466V11.6535V11.648V11.6466ZM11.289 10.9303L11.3606 10.8615H11.4263V10.7975L11.4638 10.7582V10.858C11.4401 10.8821 11.4171 10.9062 11.3928 10.9268L11.289 10.9303ZM11.4243 11.0727L11.4618 11.0349V11.0782C11.4493 11.0769 11.4368 11.0769 11.4243 11.0782V11.0727ZM11.925 10.1527C11.946 10.1176 11.967 10.0839 11.9874 10.046L12.0465 10.0811C12.0341 10.1038 12.0203 10.1259 12.0078 10.1499L11.925 10.1527ZM12.0774 10.0261L12.0183 9.99029C12.0301 9.96896 12.0406 9.94694 12.0518 9.92492H12.1306C12.1116 9.95726 12.0945 9.99029 12.0761 10.0261H12.0774ZM12.4519 8.58098C12.4647 8.46124 12.4715 8.34089 12.4723 8.2204H12.538C12.5366 8.35958 12.5278 8.49856 12.5117 8.63672C12.4914 8.61539 12.471 8.59681 12.4506 8.58098H12.4519ZM12.5406 8.15572H12.4749C12.4735 7.96387 12.4577 7.77243 12.4276 7.58319L12.4933 7.5708C12.5237 7.76304 12.54 7.95743 12.5419 8.15228L12.5406 8.15572ZM12.4808 7.50818L12.4151 7.51988C12.3821 7.33109 12.3346 7.14539 12.2732 6.96455L12.3389 6.94047C12.3999 7.1244 12.4469 7.31307 12.4795 7.50474L12.4808 7.50818ZM12.3153 6.87991L12.2496 6.90469C12.185 6.72333 12.1071 6.54755 12.0163 6.37895L12.0755 6.34385C12.1682 6.51456 12.2479 6.69265 12.314 6.87647L12.3153 6.87991ZM12.0465 6.29293L11.9874 6.32871C11.8944 6.16324 11.7892 6.00563 11.6727 5.85734L11.7253 5.81192C11.8437 5.96208 11.9507 6.12177 12.0452 6.28949L12.0465 6.29293ZM11.2877 5.34674C11.429 5.47361 11.5608 5.61164 11.6819 5.75963L11.6293 5.80573C11.5105 5.65994 11.3809 5.52418 11.2417 5.39973L11.2877 5.34674ZM10.7818 4.96827C10.9433 5.06754 11.0971 5.18006 11.2417 5.30477L11.1977 5.35982C11.0566 5.23745 10.9063 5.12722 10.7483 5.0302L10.7818 4.96827ZM11.1582 5.40868L10.3212 6.4512C10.2405 6.38269 10.1551 6.32058 10.0656 6.26541L10.7174 5.08319C10.8721 5.17894 11.0195 5.28707 11.1582 5.40661V5.40868ZM10.2213 4.68682C10.3964 4.75486 10.566 4.83748 10.7285 4.93386L10.6944 4.99579C10.5352 4.90086 10.3691 4.81918 10.1977 4.75151L10.2213 4.68682ZM10.6642 5.0536L10.013 6.23444C9.92251 6.18123 9.82829 6.13523 9.73117 6.09681L10.1766 4.81206C10.3449 4.87826 10.5079 4.95834 10.6642 5.05153V5.0536ZM9.62145 4.51341C9.80567 4.54876 9.98693 4.59938 10.1635 4.6648L10.1398 4.73361C9.96724 4.66912 9.78991 4.61941 9.60962 4.58498L9.62145 4.51341ZM10.1195 4.79211L9.67336 6.07479C9.57534 6.03887 9.475 6.01036 9.37309 5.98946L9.59911 4.64622C9.77588 4.67988 9.94987 4.72797 10.1195 4.79004V4.79211ZM9.00253 4.44804C9.18989 4.44957 9.37685 4.4666 9.56166 4.49896L9.54983 4.56777C9.36893 4.53621 9.18592 4.51965 9.00253 4.51823V4.44804ZM9.00253 4.58566C9.1824 4.58723 9.36188 4.60356 9.53932 4.63452L9.31264 5.97914C9.21007 5.96156 9.10644 5.95168 9.00253 5.94955V4.58566ZM9.00253 6.01355C9.10292 6.01582 9.20303 6.02547 9.30213 6.04245L9.00253 7.81991V6.01355ZM9.00253 8.55208L9.29162 10.2724C9.28782 10.276 9.28546 10.2809 9.28505 10.2862C9.28524 10.2899 9.28646 10.2934 9.28857 10.2963C9.29067 10.2993 9.29357 10.3015 9.29687 10.3027L9.30213 10.3323C9.20303 10.3493 9.10292 10.3589 9.00253 10.3612V8.55208ZM9.00253 10.4224C9.10646 10.4207 9.21012 10.4108 9.31264 10.3928L9.33958 10.5532L9.31856 11.0954H9.28505C9.28034 11.0954 9.27583 11.0974 9.27251 11.1009C9.26918 11.1044 9.26731 11.1091 9.26731 11.114C9.2673 11.119 9.26916 11.1238 9.27246 11.1274C9.27577 11.131 9.28028 11.1331 9.28505 11.1333V11.1333V11.1601H9.30476V11.1333H9.31987L9.29491 11.7705C9.19964 11.7801 9.10305 11.7856 9.00515 11.7863L9.00253 10.4224ZM9.00253 11.8503C9.08728 11.8503 9.17138 11.8455 9.25417 11.8386C9.2518 11.8415 9.25042 11.8451 9.25023 11.8489C9.25023 11.8539 9.25207 11.8587 9.25538 11.8623C9.25869 11.8659 9.2632 11.868 9.26797 11.8682V11.8682V11.8951H9.28702V11.9074C9.19307 11.9164 9.09845 11.9212 9.00253 11.9219V11.8503ZM8.94142 4.45217V4.52098C8.75825 4.52243 8.57546 4.53899 8.39477 4.57053L8.38295 4.50171C8.56757 4.46984 8.75431 4.45328 8.94142 4.45217V4.45217ZM6.16875 10.8759C6.18131 10.8631 6.19175 10.8483 6.19963 10.8319H6.23446V11.1071H6.16875V10.8759ZM7.71803 11.1037L7.75088 11.0314V11.1037H7.71803ZM7.56166 10.8284V11.1037H7.49596V10.9351L7.55312 10.8319L7.56166 10.8284ZM7.30476 11.1037V10.8284H7.37046V11.0239L7.32841 11.1003L7.30476 11.1037ZM6.75088 11.1037L6.73709 11.092V11.028L6.74957 11.0122L6.80476 11.0576V11.1037H6.75088ZM5.62014 10.0164C5.60923 10.0203 5.59867 10.0251 5.5886 10.0309C5.58122 10.0356 5.57419 10.0409 5.56757 10.0467V9.98754H5.62145L5.62014 10.0164ZM5.48873 8.86037L5.53275 8.8528C5.53604 8.87138 5.54063 8.89065 5.54392 8.90923H5.48873V8.86037ZM5.75154 8.50254V8.46607C5.75154 8.40551 5.69372 8.30229 5.63787 8.21696H6.8363C6.83803 8.32558 6.84748 8.43392 6.86455 8.54107L5.75154 8.74751V8.61402C5.76455 8.61249 5.77657 8.606 5.7853 8.59578C5.79403 8.58556 5.79885 8.57233 5.79885 8.55862C5.79885 8.54491 5.79403 8.53168 5.7853 8.52146C5.77657 8.51124 5.76455 8.50475 5.75154 8.50323V8.50254ZM5.5794 8.70898V8.77366C5.57414 8.74063 5.5702 8.70485 5.5656 8.67457C5.57318 8.68348 5.57739 8.69498 5.57743 8.70691L5.5794 8.70898ZM5.65299 8.70898C5.65299 8.68214 5.66613 8.66081 5.68255 8.66081C5.69898 8.66081 5.71146 8.68214 5.71146 8.70898V8.75646L5.65299 8.76678V8.70898ZM5.65299 8.83215L5.71146 8.82114V8.91129H5.65299V8.83215ZM5.76403 9.13356C5.7677 9.13365 5.77136 9.13297 5.77479 9.13156C5.77821 9.13015 5.78133 9.12803 5.78396 9.12534C5.7866 9.12265 5.78869 9.11943 5.79012 9.11588C5.79154 9.11233 5.79228 9.10851 5.79228 9.10466C5.79228 9.1008 5.79154 9.09699 5.79012 9.09344C5.78869 9.08988 5.7866 9.08667 5.78396 9.08397C5.78133 9.08128 5.77821 9.07917 5.77479 9.07775C5.77136 9.07634 5.7677 9.07566 5.76403 9.07576H5.75154V8.81426L6.87375 8.60782C6.8937 8.71455 6.92092 8.81965 6.95522 8.9223L5.75154 9.38129V9.33518L5.8317 9.21476H5.67664C5.66941 9.18861 5.66153 9.16177 5.65496 9.13493L5.76403 9.13356ZM8.02684 10.1197L7.96114 10.0839L8.03472 9.94969L8.02815 10.1162L8.02684 10.1197ZM7.7384 9.77559L8.08597 9.34206V9.48313H8.05115V9.5258H7.98873C7.98246 9.5258 7.97644 9.52841 7.972 9.53305C7.96757 9.5377 7.96508 9.544 7.96508 9.55057C7.96508 9.55714 7.96757 9.56344 7.972 9.56809C7.97644 9.57273 7.98246 9.57534 7.98873 9.57534V9.57534V9.61113H8.01501V9.57534H8.03801V9.61113H8.04918L8.04129 9.81206L7.90989 10.0502C7.83171 10.0014 7.75665 9.9474 7.68518 9.88844H7.78045V9.77559H7.7384ZM8.35666 9.3923V9.36615L8.42237 9.24297L8.35666 9.3923ZM8.31921 9.30559L8.23446 9.45973V9.33105C8.23372 9.32088 8.23538 9.31067 8.23927 9.30131C8.24316 9.29196 8.24918 9.28374 8.2568 9.27738C8.26537 9.26927 8.27288 9.26002 8.27914 9.24985C8.28567 9.2598 8.29316 9.26902 8.30148 9.27738C8.30951 9.28443 8.31582 9.2934 8.31987 9.30353L8.31921 9.30559ZM8.15824 9.25192C8.16491 9.26196 8.17262 9.27119 8.18124 9.27944C8.18873 9.28592 8.19466 9.29416 8.19854 9.30348C8.20242 9.31281 8.20414 9.32296 8.20358 9.33312V9.48313H8.11356V9.33105C8.11285 9.3191 8.11536 9.30718 8.12079 9.29665L8.13656 9.27738C8.14507 9.26921 8.15257 9.25996 8.1589 9.24985L8.15824 9.25192ZM7.35667 9.6476C7.3928 9.69164 7.43157 9.7343 7.47099 9.77559H7.20818L7.35667 9.6476ZM7.11619 9.77559H6.40594L7.13985 9.33174C7.19253 9.42531 7.2516 9.51477 7.31658 9.59943L7.11619 9.77559ZM7.19175 9.30009L8.68387 8.39794L7.36324 9.55814C7.30053 9.47575 7.24345 9.38882 7.19241 9.29802L7.19175 9.30009ZM7.16022 9.24504C7.11182 9.15306 7.06967 9.05763 7.03406 8.95946L8.65299 8.34014L7.16022 9.24504ZM7.01304 8.90097C6.97962 8.802 6.95327 8.70056 6.9342 8.5975L8.63196 8.28371L7.01304 8.90097ZM7.107 9.27876L6.28308 9.77766H5.88886C5.83892 9.67099 5.79293 9.56227 5.75285 9.45079L6.97756 8.98355C7.01426 9.08369 7.05773 9.18096 7.10765 9.27463L7.107 9.27876ZM5.94405 9.84716C5.9558 9.8464 5.96736 9.85053 5.97621 9.85864C5.98507 9.86676 5.99051 9.87821 5.99136 9.89051H6.09583L5.97953 9.95932C5.95916 9.92216 5.94011 9.88363 5.92105 9.84578L5.94405 9.84716ZM6.0518 9.99166L6.21803 9.89051H6.98742L6.87244 9.99166H6.0518ZM6.51698 10.3013L6.31987 10.4747C6.27519 10.4183 6.23314 10.3605 6.19241 10.3013H6.51698ZM7.08334 9.88844H7.56889L7.48807 9.9896H6.96836L7.08334 9.88844ZM7.62342 9.9201C7.65167 9.94487 7.68124 9.96689 7.71146 9.98891H7.56823L7.62342 9.9201ZM7.81133 10.0577C7.83038 10.0708 7.84878 10.0839 7.86849 10.0963H7.81133V10.0577ZM7.93091 10.1369C7.95391 10.1499 7.97756 10.1623 8.00121 10.1747L7.85141 10.5078V10.2841L7.93091 10.1369ZM8.29293 9.48038L8.32513 9.42189V9.46111L8.31659 9.48038H8.29293ZM8.3928 9.60975H8.40266V9.58566L8.40792 9.57397H8.42565V9.60975H8.44274L8.39609 9.74325L8.3928 9.60975ZM8.45194 9.57259H8.45719L8.45325 9.58429V9.57397L8.45194 9.57259ZM8.47099 9.53337C8.46881 9.53019 8.46595 9.52761 8.46264 9.52581C8.45933 9.52402 8.45566 9.52307 8.45194 9.52304H8.43222L8.61094 9.12943L8.47099 9.53337ZM8.40528 9.15351C8.40857 9.12775 8.40482 9.10154 8.39447 9.07791C8.38412 9.05429 8.3676 9.03421 8.34681 9.02002L8.76862 8.49428L8.75877 8.51561L8.40528 9.15351ZM8.29162 8.98767C8.26389 8.96701 8.24135 8.93962 8.22592 8.90785C8.20864 8.94383 8.18169 8.97373 8.14839 8.99387C8.11628 9.00391 8.08851 9.02533 8.06981 9.05445C8.05112 9.08357 8.04266 9.11859 8.04589 9.15351H7.99464C7.98831 9.15369 7.98229 9.15646 7.97787 9.16121C7.97346 9.16597 7.97099 9.17234 7.97099 9.17898C7.97099 9.18555 7.97348 9.19185 7.97792 9.19649C7.98235 9.20114 7.98837 9.20375 7.99464 9.20375H8.05706V9.24916C8.06068 9.2558 8.06463 9.26223 8.06889 9.26843L7.66481 9.77284H7.56166C7.50615 9.71951 7.4535 9.66299 7.40397 9.60355L8.72395 8.44336L8.29162 8.98767ZM7.19569 7.07052C7.24702 6.98041 7.30432 6.89418 7.36718 6.81247L8.68781 7.97267L7.19569 7.07052ZM8.65364 8.03048L7.03472 7.41115C7.07032 7.31298 7.11248 7.21755 7.16087 7.12558L8.65364 8.03048ZM8.63262 8.09103L6.93485 7.77724C6.95392 7.67418 6.98028 7.57275 7.01369 7.47377L8.63262 8.09103ZM8.62276 8.15365H6.89806C6.89989 8.04872 6.90911 7.94406 6.92565 7.84055L8.62276 8.15365ZM8.62276 8.21834L6.92565 8.53144C6.90911 8.42792 6.89989 8.32327 6.89806 8.21834H8.62276ZM5.7522 9.71641V9.61801C5.79227 9.71641 5.83695 9.81206 5.8836 9.90634C5.8764 9.90199 5.86826 9.89962 5.85995 9.89945H5.80213L5.79162 9.87675V9.71641H5.7522ZM5.86127 9.98754C5.87202 9.98776 5.88252 9.98403 5.89092 9.97699C5.89933 9.96995 5.90511 9.96004 5.90726 9.949C5.91383 9.96208 5.9204 9.97584 5.92763 9.98891L5.86849 10.0247C5.86192 10.0123 5.85601 9.99923 5.84944 9.98754H5.86127ZM5.89937 10.0797L5.91186 10.0722L5.90463 10.0901C5.90594 10.0866 5.90069 10.0832 5.89937 10.0797ZM6.19504 10.527C6.16219 10.4844 6.12933 10.4403 6.09911 10.3963V10.3013H6.11685C6.16635 10.3752 6.21825 10.4468 6.27257 10.516L6.25877 10.5277L6.19504 10.527ZM6.35995 10.5222L6.61225 10.3006H7.19701V10.3509L7.05509 10.527H6.36586L6.35995 10.5222ZM7.19701 10.4534V10.5298H7.13525L7.19701 10.4534ZM6.9815 10.6227L6.9158 10.7025H6.51435C6.48939 10.6764 6.46508 10.6495 6.44077 10.6227H6.9815ZM6.54523 10.9206V10.8326H6.55575L6.61291 10.8883V10.984C6.58991 10.9619 6.56691 10.9413 6.54523 10.9206ZM6.73446 10.8326H6.80016V10.8443L6.74037 10.9206L6.73446 10.9151V10.8326ZM6.99136 11.1078H6.96179L6.92368 11.0782V10.836H6.98938L6.99136 11.1078ZM6.80213 10.9798L6.78636 10.9668L6.80213 10.9475V10.9798ZM7.06495 10.6241H7.5978L7.55378 10.7039H7.00055L7.06495 10.6241ZM7.66876 10.6241H7.80016L7.76403 10.7039H7.62079L7.66876 10.6241ZM8.01961 10.4451L8.01304 10.6192H7.96902C7.96275 10.6192 7.95673 10.6219 7.95229 10.6265C7.94786 10.6311 7.94536 10.6374 7.94536 10.644C7.94536 10.6506 7.94786 10.6569 7.95229 10.6615C7.95673 10.6662 7.96275 10.6688 7.96902 10.6688H7.96573V10.7046H7.99136V10.6688H8.01107V10.7376H7.88886L8.01961 10.4451ZM8.43748 10.6688H8.45325V10.7046H8.47953V10.6688C8.4858 10.6688 8.49182 10.6662 8.49626 10.6615C8.50069 10.6569 8.50319 10.6506 8.50319 10.644C8.50319 10.6374 8.50069 10.6311 8.49626 10.6265C8.49182 10.6219 8.4858 10.6192 8.47953 10.6192H8.43617L8.42565 10.3495C8.47493 10.3633 8.52487 10.3756 8.57546 10.386L8.45456 11.1009L8.43748 10.6688ZM8.42237 10.2814L8.40792 9.91528L8.88426 8.54451L8.58531 10.3227C8.52684 10.3075 8.4723 10.2938 8.41908 10.2772L8.42237 10.2814ZM8.8271 7.855L7.96508 6.29156C8.05277 6.24062 8.1439 6.19646 8.23774 6.15943L8.8271 7.855ZM8.2949 6.13466C8.38965 6.09975 8.48672 6.07215 8.58531 6.05208L8.88426 7.83023L8.2949 6.13466ZM8.77388 7.88459L7.66613 6.50144C7.74399 6.4356 7.82634 6.3758 7.91251 6.32252L8.77388 7.88459ZM8.72723 7.92588L7.40397 6.76499C7.46952 6.68544 7.54045 6.61093 7.61619 6.54204L8.72723 7.92588ZM7.35732 6.72302L6.35995 5.84633C6.47654 5.70323 6.60374 5.57001 6.74037 5.4479L7.57743 6.49249C7.49874 6.56355 7.42517 6.6406 7.35732 6.72302ZM7.31724 6.77119C7.25183 6.85566 7.19253 6.94514 7.13985 7.03887L6.01107 6.35624C6.10249 6.19423 6.20574 6.03985 6.31987 5.8945L7.31724 6.77119ZM7.10765 7.09392C7.05711 7.18888 7.0132 7.28754 6.97624 7.38913L5.75154 6.92189C5.81453 6.74587 5.89077 6.57536 5.97953 6.41198L7.10765 7.09392ZM6.95719 7.45038C6.9229 7.55303 6.89567 7.65813 6.87572 7.76486L5.5932 7.52814C5.62559 7.34285 5.67217 7.16059 5.73249 6.98313L6.95719 7.45038ZM6.86652 7.82816C6.84944 7.93532 6.84 8.04365 6.83827 8.15228H5.59648C5.56823 8.11305 5.54523 8.08346 5.53801 8.07314C5.54254 7.9117 5.55747 7.75077 5.58268 7.59144L6.86652 7.82816ZM5.52224 8.79155L5.48873 8.79775V8.70898C5.48878 8.70194 5.49034 8.69501 5.49329 8.6887C5.49625 8.68239 5.50053 8.67685 5.50581 8.67251C5.51172 8.71035 5.51173 8.75027 5.52092 8.78743L5.52224 8.79155ZM5.5932 9.13562C5.59977 9.16246 5.60765 9.1893 5.61488 9.21545H5.54392C5.53669 9.1893 5.52946 9.16246 5.52289 9.13562H5.5932ZM5.50187 9.99166L5.50778 10.1327H5.4631L5.44865 9.99166H5.50187ZM5.5518 10.6674V10.8092H5.52224V10.6674H5.5518ZM5.68781 9.99166H5.70883C5.71409 10.002 5.71935 10.0137 5.7246 10.0247C5.71079 10.0196 5.69646 10.0161 5.6819 10.0144L5.68781 9.99166ZM5.78242 10.6674H5.81527L5.78899 10.8092H5.75943L5.78242 10.6674ZM5.81199 10.58V10.2731C5.82194 10.255 5.82883 10.2352 5.83236 10.2146C5.85272 10.249 5.87506 10.2834 5.89806 10.3158V10.5766L5.81199 10.58ZM6.0091 10.58C6.01817 10.5802 6.02712 10.5823 6.03538 10.5862C6.01426 10.5877 5.99367 10.5938 5.97493 10.6041C5.96902 10.5962 5.96141 10.59 5.95273 10.5858C5.94405 10.5816 5.93454 10.5796 5.925 10.58H6.0091ZM6.27191 10.6241H6.36324C6.38623 10.6509 6.40923 10.6777 6.43354 10.7039H6.34024C6.31461 10.6736 6.29162 10.6454 6.26928 10.6199L6.27191 10.6241ZM6.35798 10.9103C6.38032 10.9337 6.40331 10.9557 6.42368 10.9791V11.1085H6.35798V10.9103ZM6.97822 11.8737H6.86061V11.7739H6.95456L6.95982 11.7788C6.96706 11.8093 6.97233 11.8404 6.97559 11.8717L6.97822 11.8737ZM6.902 11.6453H6.86061V11.5703C6.87634 11.5899 6.8902 11.6111 6.902 11.6336V11.6453ZM6.902 11.6597C6.90471 11.6965 6.91852 11.7314 6.94142 11.7595H6.86061V11.6597H6.902ZM6.75154 11.8737V11.7739H6.84681V11.8737H6.75154ZM6.84681 11.8882V12.0031H6.75154V11.884L6.84681 11.8882ZM6.75154 11.7595V11.6597H6.84681V11.7595H6.75154ZM6.75154 11.6453V11.5455H6.84024L6.84681 11.553V11.6453H6.75154ZM6.75154 11.531V11.4712C6.77848 11.4888 6.80358 11.5093 6.82644 11.5324L6.75154 11.531ZM6.64313 11.6453V11.5455H6.73774V11.6453H6.64313ZM6.73774 11.6597V11.7595H6.64313V11.6597H6.73774ZM6.64313 11.531V11.4189C6.67619 11.429 6.70796 11.4434 6.73774 11.4615V11.5303L6.64313 11.531ZM6.64313 11.7739H6.73774V11.8737H6.64313V11.7739ZM6.86061 12.0031V11.884H6.97953C6.9844 11.9221 6.98682 11.9605 6.98676 11.999L6.86061 12.0031ZM7.07349 11.2647C7.11422 11.2922 7.15496 11.3191 7.19635 11.3452L7.16284 11.4065C7.13262 11.3879 7.10305 11.3686 7.07349 11.3494V11.2647ZM7.11685 11.2186V11.1904H7.1543V11.1071H7.11619V10.8319H7.18189V11.1071H7.21409V11.2799L7.11685 11.2186ZM7.68058 10.8353H7.70358L7.68058 10.8856V10.8353ZM7.80542 11.1106C7.88032 11.1106 7.87112 11.0067 7.87112 11.0067C7.87995 11.0047 7.88825 11.0007 7.89534 10.9949C7.90244 10.989 7.90815 10.9816 7.91203 10.973C7.91592 10.9645 7.91786 10.9552 7.91772 10.9457C7.91757 10.9363 7.91534 10.927 7.9112 10.9186C7.92978 10.9165 7.94691 10.9071 7.95911 10.8923C7.97132 10.8774 7.97768 10.8583 7.9769 10.8388L8.00778 10.7982L8.00384 10.8986L7.81067 11.454L7.80542 11.1106ZM7.9907 11.1106L7.9723 11.5881H7.94274C7.93646 11.5881 7.93045 11.5908 7.92601 11.5954C7.92157 11.6 7.91908 11.6063 7.91908 11.6129C7.91878 11.6154 7.91878 11.618 7.91908 11.6205L7.82316 11.5868L7.9907 11.1106ZM8.47887 11.8152C8.63127 11.8377 8.7849 11.8499 8.93879 11.8517V11.9205C8.78491 11.9191 8.63127 11.9071 8.47887 11.8847V11.8152ZM8.47887 11.7499L8.47428 11.6329H8.48347V11.668H8.50975V11.6329C8.51603 11.6329 8.52204 11.6303 8.52648 11.6256C8.53092 11.621 8.53341 11.6147 8.53341 11.6081C8.53341 11.6015 8.53092 11.5952 8.52648 11.5906C8.52204 11.5859 8.51603 11.5833 8.50975 11.5833H8.46836L8.46113 11.3989L8.63065 10.3942C8.73296 10.4121 8.8364 10.422 8.94011 10.4238V11.7877C8.78477 11.7851 8.62978 11.7713 8.47624 11.7464L8.47887 11.7499ZM8.6451 10.3309L8.94405 8.55346V10.3598C8.84294 10.3568 8.74216 10.3462 8.64248 10.3282L8.6451 10.3309ZM8.6451 6.04383C8.74398 6.02685 8.84388 6.01719 8.94405 6.01492V7.82128L8.6451 6.04383ZM8.63459 5.98052L8.40266 4.63315C8.57987 4.60219 8.75913 4.58585 8.93879 4.58429V5.94817C8.83598 5.95046 8.73345 5.96035 8.63196 5.97777L8.63459 5.98052ZM8.57414 5.99015C8.47224 6.01105 8.37189 6.03956 8.27388 6.07548L7.82776 4.79279C7.99709 4.73002 8.17086 4.68124 8.34747 4.64691L8.57414 5.99015ZM8.32513 4.51341L8.33695 4.58222C8.1567 4.61683 7.97939 4.66654 7.80673 4.73086L7.78374 4.66205C7.95935 4.59717 8.13947 4.54656 8.3225 4.51066L8.32513 4.51341ZM8.21606 6.09612C8.11878 6.13467 8.02436 6.18067 7.93354 6.23375L7.28308 5.05291C7.43892 4.95944 7.60174 4.87936 7.76994 4.81344L8.21606 6.09612ZM7.72592 4.68545L7.74891 4.75426C7.57754 4.82207 7.41147 4.90375 7.2522 4.99855L7.21803 4.93661C7.37984 4.83884 7.54879 4.75462 7.72329 4.68476L7.72592 4.68545ZM7.22986 5.08387L7.87703 6.26541C7.78754 6.32058 7.70211 6.38269 7.62145 6.4512L6.78636 5.40661C6.92503 5.28692 7.07244 5.17878 7.22723 5.08319L7.22986 5.08387ZM7.16416 4.96689L7.19766 5.02882C7.03998 5.12616 6.88973 5.23613 6.74826 5.35775L6.70489 5.30339C6.84882 5.17854 7.00195 5.06579 7.16284 4.9662L7.16416 4.96689ZM6.65824 5.34537L6.70226 5.40042C6.56302 5.52505 6.43319 5.66079 6.31396 5.80642L6.26205 5.76031C6.38337 5.61206 6.51538 5.4738 6.65693 5.34674L6.65824 5.34537ZM6.22197 5.80917L6.27388 5.85459C6.15761 6.00305 6.0524 6.16064 5.95916 6.32596L5.90069 6.29018C5.99505 6.12103 6.10204 5.95996 6.22066 5.80848L6.22197 5.80917ZM5.86981 6.34592L5.92894 6.38101C5.83842 6.54806 5.76044 6.72223 5.69569 6.90193L5.62999 6.87716C5.69577 6.69345 5.77553 6.51557 5.86849 6.34523L5.86981 6.34592ZM5.61094 6.93771L5.67664 6.9618C5.61583 7.14283 5.56838 7.32848 5.53472 7.51713L5.46902 7.50474C5.50153 7.31192 5.54855 7.12209 5.60962 6.93703L5.61094 6.93771ZM5.45522 7.56805L5.52092 7.58043C5.49092 7.7697 5.47489 7.96111 5.47296 8.15296H5.40725C5.40806 7.95678 5.42366 7.76097 5.45391 7.56736L5.45522 7.56805ZM5.43091 8.21765L5.40725 8.25412C5.40725 8.24173 5.40725 8.23004 5.40725 8.21765H5.43091ZM3.49136 10.5766H3.42105V10.1293H3.49136V10.5766ZM3.72132 10.5766H3.65036V10.1293H3.72132V10.5766ZM3.95128 10.5766H3.88032V10.1293H3.95128V10.5766ZM4.18058 10.5766H4.11028V10.1293H4.18058V10.5766ZM4.41054 10.5766H4.33958V10.1293H4.41054V10.5766ZM4.6405 10.5766H4.56954V10.1293H4.6405V10.5766ZM4.8698 10.5766H4.7995V10.1293H4.8698V10.5766ZM4.9861 9.82995H3.53538V9.41225H4.9861V9.82995ZM5.09977 10.5766H5.02946V10.1293H5.09977V10.5766ZM5.07217 9.94418C5.07234 9.93244 5.07692 9.92124 5.08491 9.913C5.0929 9.90476 5.10367 9.90014 5.11488 9.90014H5.17664V9.71641H5.21343V9.33174L5.17729 9.27187L5.14247 9.21132H5.21343V9.13149H5.20161C5.19816 9.13132 5.19477 9.13043 5.19164 9.12888C5.18852 9.12733 5.18572 9.12515 5.1834 9.12247C5.18108 9.11978 5.17929 9.11665 5.17813 9.11324C5.17697 9.10983 5.17646 9.10621 5.17664 9.10259C5.17646 9.09898 5.17697 9.09536 5.17813 9.09195C5.17929 9.08854 5.18108 9.0854 5.1834 9.08272C5.18572 9.08003 5.18852 9.07785 5.19164 9.0763C5.19477 9.07475 5.19816 9.07387 5.20161 9.07369H5.21343V9.05236C5.22392 9.05339 5.23448 9.05339 5.24497 9.05236C5.27083 9.04714 5.29515 9.03559 5.31593 9.01864V9.07576H5.30279C5.29547 9.07576 5.28845 9.0788 5.28328 9.08422C5.2781 9.08964 5.2752 9.09699 5.2752 9.10466C5.2752 9.11232 5.2781 9.11967 5.28328 9.12509C5.28845 9.13051 5.29547 9.13356 5.30279 9.13356H5.39543L5.41514 9.21338H5.23577L5.31593 9.33381V9.39711C5.2879 9.4114 5.26426 9.43365 5.24773 9.46134C5.2312 9.48902 5.22243 9.52101 5.22243 9.55367C5.22243 9.58632 5.2312 9.61831 5.24773 9.64599C5.26426 9.67368 5.2879 9.69593 5.31593 9.71022V9.71847H5.2752V9.90152H5.20949C5.20397 9.90152 5.1985 9.90266 5.1934 9.90487C5.1883 9.90708 5.18366 9.91033 5.17976 9.91442C5.17585 9.91851 5.17275 9.92336 5.17064 9.92871C5.16853 9.93405 5.16744 9.93978 5.16744 9.94556C5.16744 9.95134 5.16853 9.95707 5.17064 9.96241C5.17275 9.96776 5.17585 9.97261 5.17976 9.9767C5.18366 9.98079 5.1883 9.98404 5.1934 9.98625C5.1985 9.98846 5.20397 9.9896 5.20949 9.9896H5.11751C5.11157 9.98999 5.10562 9.98907 5.10004 9.98691C5.09446 9.98475 5.08937 9.98139 5.0851 9.97705C5.08084 9.97271 5.07748 9.96748 5.07525 9.9617C5.07303 9.95592 5.07198 9.94972 5.07217 9.94349V9.94418ZM5.28702 10.664L5.31002 10.8057H5.27979L5.25417 10.664H5.28702ZM5.20752 9.98822H5.2614L5.30607 10.1293H5.2614L5.20752 9.98822ZM5.21343 10.8057L5.19307 10.7176L5.18189 10.6702V10.664H5.21475L5.24431 10.8057H5.21475H5.21343ZM5.35929 12.6898H5.24234V10.9998H5.35929V12.6898ZM5.34681 10.8057L5.32776 10.664H5.36061L5.37638 10.8057H5.34681ZM5.36127 10.1293L5.32776 9.98822H5.38032L5.40529 10.1293H5.36127ZM5.44405 10.664H5.4769L5.48216 10.8057H5.45194L5.44405 10.664ZM5.59254 12.6898H5.47559V10.9998H5.59254V12.6898ZM5.61554 10.8057H5.58597L5.59123 10.664H5.62408L5.61554 10.8057ZM5.70752 10.664H5.74037L5.72066 10.8057H5.69109L5.70752 10.664ZM5.82513 11.1044V12.6871H5.70883V10.9998H5.82513V11.1044ZM5.83236 10.8057H5.82447L5.83236 10.7699V10.8057ZM5.87112 10.7369H5.84024L5.85535 10.6681H5.90594C5.89922 10.6795 5.89392 10.6918 5.89017 10.7046H5.87703L5.87112 10.7369ZM6.30016 12.001H6.14839C6.14839 11.9597 6.15167 11.9219 6.15561 11.8861H6.30016V12.001ZM6.30016 11.8717H6.15759C6.16184 11.838 6.16821 11.8047 6.17664 11.7719H6.30016V11.8717ZM6.30016 11.7574H6.18124C6.19075 11.723 6.20329 11.6896 6.21869 11.6576H6.30016V11.7574ZM6.30016 11.6432H6.22657C6.24428 11.6071 6.26637 11.5736 6.29228 11.5434H6.30016V11.6432ZM6.40923 12.001H6.3133V11.884H6.40857L6.40923 12.001ZM6.40923 11.8717H6.3133V11.7719H6.40857L6.40923 11.8717ZM6.40923 11.7574H6.3133V11.6576H6.40857L6.40923 11.7574ZM6.40923 11.6432H6.3133V11.5434H6.40857L6.40923 11.6432ZM6.40923 11.529H6.3133V11.5241C6.34196 11.4968 6.374 11.4737 6.40857 11.4553L6.40923 11.529ZM6.5183 12.001H6.42303V11.884H6.5183V12.001ZM6.5183 11.8717H6.42303V11.7719H6.5183V11.8717ZM6.5183 11.7574H6.42303V11.6576H6.5183V11.7574ZM6.5183 11.6432H6.42303V11.5434H6.5183V11.6432ZM6.42303 11.529V11.445C6.44631 11.4333 6.47048 11.4236 6.4953 11.4161C6.50295 11.4168 6.51064 11.4168 6.5183 11.4161V11.5269L6.42303 11.529ZM6.6267 12.001H6.53209V11.884H6.62868L6.6267 12.001ZM6.6267 11.8717H6.53209V11.7719H6.62868L6.6267 11.8717ZM6.6267 11.7574H6.53209V11.6576H6.62868L6.6267 11.7574ZM6.6267 11.6432H6.53209V11.5434H6.62868L6.6267 11.6432ZM6.6267 11.529H6.53209V11.4182C6.55142 11.4171 6.57037 11.4122 6.58794 11.4037C6.5978 11.4037 6.61093 11.4078 6.6267 11.4127V11.529ZM6.64116 12.001V11.884H6.73577V11.999L6.64116 12.001ZM7.07414 12.2205V11.8152C7.10196 11.814 7.12902 11.8054 7.1528 11.7902C7.17658 11.775 7.19631 11.7538 7.21015 11.7285C7.21003 11.726 7.21003 11.7235 7.21015 11.721V11.9116L7.07414 12.2205ZM7.80607 11.7154V11.6398C7.85995 11.6597 7.91383 11.6776 7.96836 11.6948V11.7684C7.9112 11.7519 7.85798 11.734 7.80542 11.7154H7.80607ZM8.58137 12.6203H8.51107L8.48741 12.0148C8.61296 12.0322 8.73927 12.043 8.86586 12.0471C8.84728 12.0632 8.83229 12.0834 8.82196 12.1062C8.81163 12.1291 8.80621 12.154 8.80608 12.1793C8.80465 12.2031 8.80789 12.227 8.81562 12.2494C8.82334 12.2719 8.83537 12.2925 8.85098 12.3099C8.86659 12.3273 8.88543 12.3411 8.90635 12.3506C8.92728 12.3601 8.94983 12.365 8.97263 12.365C8.99543 12.365 9.01798 12.3601 9.03891 12.3506C9.05983 12.3411 9.07867 12.3273 9.09428 12.3099C9.10989 12.2925 9.12192 12.2719 9.12965 12.2494C9.13737 12.227 9.14062 12.2031 9.13919 12.1793C9.13918 12.154 9.13388 12.1291 9.12366 12.1063C9.11344 12.0835 9.09856 12.0633 9.08006 12.0471C9.14576 12.0471 9.21541 12.0409 9.28242 12.0347L9.2568 12.6203H8.58137ZM9.69832 12.6203L9.68518 12.2838C9.71561 12.2738 9.7426 12.2547 9.76286 12.2288C9.78312 12.203 9.7958 12.1716 9.79934 12.1384C9.80289 12.1051 9.79716 12.0716 9.78284 12.0417C9.76853 12.0118 9.74624 11.9869 9.71869 11.9701C9.83784 11.9437 9.95561 11.9108 10.0715 11.8717V12.6203H9.69832ZM10.4546 12.6203H10.1766V12.2763C10.1745 12.2134 10.1815 12.1505 10.1977 12.0898C10.2182 12.1015 10.2409 12.1085 10.2643 12.1103C10.2876 12.1121 10.3111 12.1086 10.333 12.1001C10.3638 12.0888 10.3907 12.0679 10.4099 12.0402C10.4335 12.0719 10.4552 12.1318 10.4552 12.2763L10.4546 12.6203ZM10.3363 11.7774H10.333C10.3737 11.7602 10.4145 11.7409 10.4546 11.7223V11.7788L10.3363 11.7774ZM10.5617 12.6203V11.84L10.6116 11.9508V12.6203H10.5617ZM10.7949 12.3554L10.9151 12.6203H10.7949V12.3554ZM11.425 12.6203V11.4182C11.4376 11.4185 11.4502 11.4171 11.4624 11.414V12.6203H11.425ZM12.4828 12.6203H12.2312V12.2763C12.2299 12.2582 12.2322 12.24 12.238 12.2229C12.2438 12.2057 12.2528 12.19 12.2646 12.1768C12.2764 12.1635 12.2907 12.1529 12.3066 12.1456C12.3225 12.1384 12.3397 12.1346 12.357 12.1346C12.3743 12.1346 12.3915 12.1384 12.4074 12.1456C12.4233 12.1529 12.4376 12.1635 12.4494 12.1768C12.4612 12.19 12.4702 12.2057 12.476 12.2229C12.4817 12.24 12.4841 12.2582 12.4828 12.2763V12.6203ZM12.4828 11.809H12.2312V11.5978C12.2335 11.5645 12.2477 11.5333 12.2711 11.5106C12.2944 11.4878 12.3251 11.4752 12.357 11.4752C12.3889 11.4752 12.4196 11.4878 12.4429 11.5106C12.4663 11.5333 12.4805 11.5645 12.4828 11.5978V11.809ZM12.9657 12.6203H12.8705V11.6301C12.8705 11.1484 12.4657 11.1952 12.3586 10.9977C12.2509 11.1952 11.8462 11.1484 11.8462 11.6301V12.6203H11.7496V10.8312C11.7589 10.8532 11.7728 10.8727 11.7903 10.8883C11.8071 10.903 11.8264 10.9141 11.8473 10.921C11.8682 10.9279 11.8902 10.9303 11.912 10.9283C11.9337 10.9263 11.9549 10.9197 11.9743 10.9091C11.9937 10.8984 12.0109 10.8839 12.0249 10.8663C12.0425 10.8444 12.0545 10.8181 12.0597 10.7899H12.967L12.9657 12.6203ZM13.9151 12.6203H13.7561V12.427C13.7571 12.4167 13.756 12.4063 13.7529 12.3964C13.7497 12.3866 13.7447 12.3775 13.738 12.3699C13.7314 12.3622 13.7233 12.3561 13.7142 12.3519C13.7052 12.3477 13.6954 12.3455 13.6855 12.3455C13.6756 12.3455 13.6658 12.3477 13.6568 12.3519C13.6477 12.3561 13.6396 12.3622 13.633 12.3699C13.6263 12.3775 13.6213 12.3866 13.6182 12.3964C13.615 12.4063 13.6139 12.4167 13.6149 12.427V12.6203H13.4552V12.2763C13.4552 12.0657 13.5314 12.0354 13.5866 12.0086C13.6224 11.9888 13.6565 11.9657 13.6885 11.9398C13.7208 11.9657 13.755 11.9887 13.791 12.0086C13.8422 12.0354 13.9184 12.0657 13.9184 12.2763L13.9151 12.6203ZM13.9151 11.7774H13.7561V11.5861C13.7571 11.5758 13.756 11.5654 13.7529 11.5555C13.7497 11.5457 13.7447 11.5366 13.738 11.529C13.7314 11.5213 13.7233 11.5152 13.7142 11.511C13.7052 11.5068 13.6954 11.5046 13.6855 11.5046C13.6756 11.5046 13.6658 11.5068 13.6568 11.511C13.6477 11.5152 13.6396 11.5213 13.633 11.529C13.6263 11.5366 13.6213 11.5457 13.6182 11.5555C13.615 11.5654 13.6139 11.5758 13.6149 11.5861V11.7774H13.4552V11.4333C13.4552 11.2221 13.5314 11.1918 13.5866 11.1649C13.6224 11.1451 13.6565 11.1221 13.6885 11.0961C13.7208 11.122 13.755 11.145 13.791 11.1649C13.8422 11.1918 13.9184 11.2221 13.9184 11.4333L13.9151 11.7774ZM14.5347 12.6203H14.2561V12.2763C14.2561 12.0657 14.3021 12.0354 14.3337 12.0086C14.3561 11.9875 14.3767 11.9645 14.3954 11.9398C14.4139 11.9647 14.4346 11.9877 14.4572 12.0086C14.4881 12.0354 14.5347 12.0657 14.5347 12.2763V12.6203ZM14.5347 11.7774H14.2561V11.4333C14.2561 11.2221 14.3021 11.1918 14.3337 11.1649C14.3561 11.1439 14.3767 11.1208 14.3954 11.0961C14.4139 11.121 14.4346 11.1441 14.4572 11.1649C14.4881 11.1918 14.5347 11.2221 14.5347 11.4333V11.7774ZM15.22 10.2325H15.1543V10.1183C15.1538 10.1106 15.1551 10.1028 15.158 10.0958C15.161 10.0887 15.1656 10.0825 15.1714 10.0777C15.1714 10.0729 15.1732 10.0684 15.1764 10.065C15.1796 10.0617 15.1839 10.0598 15.1885 10.0598C15.193 10.0598 15.1973 10.0617 15.2005 10.065C15.2038 10.0684 15.2055 10.0729 15.2055 10.0777C15.2113 10.0826 15.2158 10.0888 15.2187 10.0958C15.2217 10.1029 15.223 10.1106 15.2226 10.1183L15.22 10.2325ZM15.312 10.2325H15.2463V10.1183C15.2458 10.1106 15.247 10.1028 15.25 10.0958C15.253 10.0887 15.2576 10.0825 15.2634 10.0777C15.2634 10.0729 15.2652 10.0684 15.2684 10.065C15.2716 10.0617 15.2759 10.0598 15.2805 10.0598C15.285 10.0598 15.2893 10.0617 15.2925 10.065C15.2957 10.0684 15.2975 10.0729 15.2975 10.0777C15.3032 10.0826 15.3078 10.0888 15.3107 10.0958C15.3137 10.1029 15.315 10.1106 15.3146 10.1183L15.312 10.2325ZM16.4749 9.48313H16.3849V9.33105C16.3843 9.32082 16.386 9.31057 16.39 9.30121C16.394 9.29185 16.4002 9.28367 16.4079 9.27738C16.4162 9.26902 16.4237 9.2598 16.4303 9.24985C16.4365 9.26002 16.444 9.26927 16.4526 9.27738C16.4602 9.28374 16.4662 9.29196 16.4701 9.30131C16.474 9.31067 16.4757 9.32088 16.4749 9.33105V9.48313ZM16.5958 9.48313H16.5058V9.33105C16.5052 9.3209 16.507 9.31074 16.5108 9.30142C16.5147 9.29209 16.5207 9.28386 16.5281 9.27738C16.5368 9.26913 16.5445 9.2599 16.5511 9.24985C16.5574 9.26002 16.5649 9.26927 16.5735 9.27738C16.5811 9.28374 16.5871 9.29196 16.591 9.30131C16.5949 9.31067 16.5966 9.32088 16.5958 9.33105V9.48313ZM17.3225 9.37991C17.3615 9.37991 17.3996 9.39202 17.432 9.4147C17.4644 9.43739 17.4897 9.46963 17.5046 9.50735C17.5195 9.54507 17.5234 9.58658 17.5158 9.62663C17.5082 9.66667 17.4894 9.70346 17.4619 9.73233C17.4343 9.7612 17.3992 9.78086 17.361 9.78883C17.3227 9.79679 17.2831 9.7927 17.2471 9.77708C17.2111 9.76145 17.1803 9.73499 17.1586 9.70104C17.137 9.6671 17.1254 9.62718 17.1254 9.58635C17.1251 9.55907 17.13 9.532 17.1398 9.50672C17.1496 9.48143 17.1641 9.45843 17.1824 9.43904C17.2008 9.41965 17.2226 9.40426 17.2466 9.39376C17.2707 9.38325 17.2964 9.37784 17.3225 9.37785V9.37991ZM16.7029 10.6186L16.6931 10.355L16.7055 10.3701L16.7029 10.6186ZM16.6891 10.3123V10.2545H16.8409L16.8639 10.3123H16.6891ZM16.6734 9.6125V9.57672H16.6963V9.6125H16.7036V10.1974H16.6812L16.6589 9.6125H16.6734ZM17.7581 12.5956H16.9125V11.1993H17.7575L17.7581 12.5956ZM17.7581 10.9695H16.9125V10.3701H17.7575L17.7581 10.9695ZM17.7581 10.1974H16.9125V9.95038H17.7575L17.7581 10.1974ZM17.7982 9.8967H16.8613L16.8383 9.8389H17.8238L17.7982 9.8967Z" fill="#1FC0E8"/>
<path d="M21.3758 10.2511V10.194H21.3015V9.30493H20.0381V10.194H19.9723V10.2511H20.1819L20.2043 10.3089H19.9953L20.0354 10.3667V10.9661H19.9697L19.9927 11.0239L20.0328 11.081V11.1416H19.9927V11.1994H20.0328V13.2452H20.2417V12.7422H21.0867V13.2452H21.2963V11.1994H21.3475V11.1416H21.2963V11.081L21.3475 11.0239L21.3705 10.9661H21.2963V10.3702L21.3475 10.3124H21.1386L21.1609 10.2546L21.3758 10.2511ZM20.6819 9.37787C20.7209 9.37787 20.759 9.38998 20.7915 9.41267C20.8239 9.43535 20.8491 9.46759 20.864 9.50531C20.879 9.54304 20.8829 9.58455 20.8753 9.62459C20.8677 9.66464 20.8489 9.70142 20.8213 9.73029C20.7938 9.75916 20.7586 9.77883 20.7204 9.78679C20.6822 9.79476 20.6425 9.79067 20.6065 9.77504C20.5705 9.75942 20.5397 9.73296 20.5181 9.69901C20.4964 9.66506 20.4848 9.62515 20.4848 9.58431C20.4848 9.52956 20.5056 9.47706 20.5426 9.43834C20.5795 9.39962 20.6297 9.37787 20.6819 9.37787V9.37787ZM21.0919 12.5922H20.247V11.1994H21.0919V12.5922ZM21.0919 10.9661H20.247V10.3702H21.0919V10.9661ZM21.0919 10.194H20.247V9.9504H21.0919V10.194ZM20.2069 9.89329L20.1846 9.83549H21.1662L21.1438 9.89329H20.2069Z" fill="#1FC0E8"/>
<path d="M20.9592 10.4919H20.3804V10.8044H20.9592V10.4919Z" fill="#1FC0E8"/>
<path d="M20.9592 10.0007H20.3804V10.128H20.9592V10.0007Z" fill="#1FC0E8"/>
<path d="M20.682 9.73702C20.7107 9.73688 20.7387 9.72785 20.7625 9.71105C20.7863 9.69426 20.8048 9.67046 20.8157 9.64266C20.8266 9.61486 20.8293 9.5843 20.8237 9.55485C20.818 9.52539 20.8041 9.49836 20.7838 9.47716C20.7634 9.45596 20.7376 9.44155 20.7094 9.43573C20.6813 9.42992 20.6521 9.43297 20.6256 9.4445C20.5991 9.45603 20.5765 9.47553 20.5606 9.50052C20.5446 9.52552 20.5361 9.55489 20.5361 9.58494C20.5361 9.60497 20.5399 9.6248 20.5472 9.6433C20.5546 9.66179 20.5653 9.67859 20.5789 9.69272C20.5924 9.70685 20.6085 9.71804 20.6262 9.72564C20.6439 9.73324 20.6629 9.73711 20.682 9.73702Z" fill="#1FC0E8"/>
<path d="M19.0722 9.4556H19.0571L19.0439 9.59322H18.9657L18.9526 9.4556H18.9375L18.9316 9.39917H18.0649V10.194H18.1129V10.2483L18.0873 10.3116H18.1031L18.0649 10.3667V10.9661H18.1306L18.1076 11.0239L18.0676 11.081V11.1415H18.1076V11.1993H18.0676V13.2452H18.2437V10.366L18.2798 10.2972H18.2653C18.2855 10.1276 18.3642 9.97165 18.4865 9.8586C18.6089 9.74555 18.7664 9.68323 18.9296 9.68337H19.0807C19.2439 9.68323 19.4014 9.74555 19.5238 9.8586C19.6461 9.97165 19.7248 10.1276 19.745 10.2972H19.7305L19.7666 10.366C19.7666 10.3722 19.7666 10.3784 19.7666 10.3853V13.2452H19.9421V11.1993H19.9007V11.1415H19.9408V11.081L19.9007 11.0239L19.8783 10.9661H19.9408V10.3701L19.9059 10.3151H19.9184L19.8935 10.2518V10.1974H19.9408V9.39917H19.0787L19.0722 9.4556ZM19.0846 9.48725C19.2745 9.4846 19.4587 9.55514 19.6021 9.68545C19.7456 9.81575 19.8383 9.99674 19.8626 10.194V10.2545L19.8724 10.28H19.7693C19.7442 10.1079 19.663 9.95033 19.5393 9.83407C19.4125 9.71623 19.2489 9.65091 19.0794 9.65034H18.9283C18.7587 9.65065 18.5951 9.71601 18.4684 9.83407C18.3443 9.95008 18.2627 10.1078 18.2377 10.28H18.1359L18.1464 10.2545V10.194C18.1706 9.99679 18.2631 9.81582 18.4065 9.6855C18.5498 9.55518 18.7339 9.48462 18.9237 9.48725H18.9283L18.9414 9.62144H19.0728L19.086 9.48725H19.0846Z" fill="#1FC0E8"/>
<path d="M0.705423 13.1764C0.601798 12.5531 0.5497 11.9215 0.549707 11.2888C0.549707 5.25388 5.23762 0.347464 10.9965 0.347464C16.7554 0.347464 21.4433 5.25732 21.4433 11.2923C21.4433 11.925 21.3912 12.5565 21.2876 13.1798H21.6207C21.7214 12.5562 21.7719 11.9248 21.7718 11.2923C21.7718 5.06808 16.9367 0.00683594 10.9965 0.00683594C5.05628 0.00683594 0.221192 5.07152 0.221192 11.2957C0.221036 11.9282 0.271589 12.5596 0.372312 13.1833L0.705423 13.1764Z" fill="#1FC0E8"/>
</g>
<defs>
<clipPath id="clip0_519_5202">
<rect width="22" height="20" fill="white"/>
</clipPath>
</defs>
</svg>
