<svg width="151" height="33" viewBox="0 0 151 33" fill="none" xmlns="http://www.w3.org/2000/svg">
<path d="M27.7291 0.310059C34.8938 0.310059 41.5111 1.38553 46.4424 3.21962C48.9024 4.13551 51.0695 5.285 52.6534 6.67965C54.1184 7.9679 55.1798 9.55452 55.3484 11.3724L55.3705 11.8743V21.1257C55.3705 23.1564 54.2538 24.9165 52.6534 26.3204C51.0695 27.715 48.9052 28.8645 46.4424 29.7804C41.5111 31.6145 34.8938 32.69 27.7291 32.69C20.5645 32.69 13.9472 31.6145 9.01593 29.7804C6.55585 28.8645 4.38877 27.715 2.80492 26.3204C1.33992 25.0321 0.278494 23.4455 0.109881 21.6276L0.0877686 21.1257V11.8743C0.0877686 9.84363 1.20448 8.08355 2.80492 6.67965C4.38877 5.285 6.55309 4.13551 9.01593 3.21962C13.9472 1.38553 20.5645 0.310059 27.7291 0.310059ZM49.8422 18.9979C48.8057 19.5668 47.6586 20.0757 46.4424 20.529C41.5111 22.3631 34.8938 23.4386 27.7291 23.4386C20.5645 23.4386 13.9472 22.3631 9.01593 20.529C7.83537 20.0958 6.6984 19.5838 5.61604 18.9979V21.1257C5.61604 21.6507 5.89246 22.3238 6.81015 23.1333C7.74167 23.952 9.22048 24.7962 11.2604 25.5548C15.3348 27.0697 21.156 28.0643 27.7291 28.0643C34.305 28.0643 40.1235 27.0697 44.1979 25.5548C46.2378 24.7962 47.7166 23.952 48.6481 23.1333C49.5686 22.3238 49.8422 21.6507 49.8422 21.1257V18.9979V18.9979Z" fill="#65A30D"/>
<path d="M75.5169 7.84117C76.473 7.84117 77.2481 8.61623 77.2481 9.57231V9.57231C77.2481 10.5284 76.473 11.3035 75.5169 11.3035H70.0203V15.0437H73.7479C74.6761 15.0437 75.4285 15.7962 75.4285 16.7243V16.7243C75.4285 17.6525 74.6761 18.4049 73.7479 18.4049H70.0203V23.5822C70.0203 24.6868 69.1248 25.5822 68.0203 25.5822H67.6987C66.5942 25.5822 65.6987 24.6868 65.6987 23.5822V9.84117C65.6987 8.7366 66.5942 7.84117 67.6987 7.84117H75.5169Z" fill="black"/>
<path d="M90.3864 14.9174V18.506H79.2667V14.9174H90.3864Z" fill="black"/>
<path d="M93.4463 16.6864C93.4463 14.9342 93.8254 13.3758 94.5836 12.0111C95.3417 10.6295 96.3947 9.55968 97.7426 8.80151C99.1073 8.0265 100.649 7.639 102.367 7.639C104.473 7.639 106.276 8.19498 107.776 9.30696C109.275 10.4189 110.278 11.9353 110.783 13.8559H106.032C105.678 13.1146 105.173 12.5502 104.516 12.1627C103.875 11.7752 103.142 11.5814 102.317 11.5814C100.986 11.5814 99.9076 12.0448 99.082 12.9714C98.2565 13.8981 97.8437 15.1364 97.8437 16.6864C97.8437 18.2364 98.2565 19.4748 99.082 20.4014C99.9076 21.3281 100.986 21.7914 102.317 21.7914C103.142 21.7914 103.875 21.5976 104.516 21.2101C105.173 20.8226 105.678 20.2582 106.032 19.5169H110.783C110.278 21.4376 109.275 22.9539 107.776 24.0659C106.276 25.161 104.473 25.7086 102.367 25.7086C100.649 25.7086 99.1073 25.3295 97.7426 24.5713C96.3947 23.7963 95.3417 22.7265 94.5836 21.3618C93.8254 19.9971 93.4463 18.4386 93.4463 16.6864Z" fill="black"/>
<path d="M119.849 25.7844C118.467 25.7844 117.22 25.4895 116.108 24.8999C115.013 24.3102 114.146 23.4678 113.505 22.3726C112.882 21.2775 112.57 19.9971 112.57 18.5313C112.57 17.0823 112.89 15.8103 113.531 14.7152C114.171 13.6032 115.047 12.7524 116.159 12.1627C117.271 11.573 118.518 11.2782 119.899 11.2782C121.281 11.2782 122.527 11.573 123.639 12.1627C124.751 12.7524 125.627 13.6032 126.268 14.7152C126.908 15.8103 127.228 17.0823 127.228 18.5313C127.228 19.9802 126.9 21.2607 126.242 22.3726C125.602 23.4678 124.718 24.3102 123.589 24.8999C122.477 25.4895 121.23 25.7844 119.849 25.7844ZM119.849 22.0441C120.674 22.0441 121.373 21.7408 121.946 21.1343C122.536 20.5278 122.831 19.6601 122.831 18.5313C122.831 17.4025 122.544 16.5348 121.971 15.9283C121.415 15.3217 120.725 15.0185 119.899 15.0185C119.057 15.0185 118.358 15.3217 117.802 15.9283C117.246 16.5179 116.968 17.3856 116.968 18.5313C116.968 19.6601 117.237 20.5278 117.776 21.1343C118.332 21.7408 119.023 22.0441 119.849 22.0441Z" fill="black"/>
<path d="M131.694 10.0146C130.936 10.0146 130.313 9.79555 129.824 9.3575C129.352 8.9026 129.116 8.34662 129.116 7.68954C129.116 7.01562 129.352 6.45963 129.824 6.02158C130.313 5.56668 130.936 5.33923 131.694 5.33923C132.435 5.33923 133.042 5.56668 133.514 6.02158C134.002 6.45963 134.247 7.01562 134.247 7.68954C134.247 8.34662 134.002 8.9026 133.514 9.3575C133.042 9.79555 132.435 10.0146 131.694 10.0146ZM133.842 11.4804V25.5822H129.521V11.4804H133.842Z" fill="black"/>
<path d="M145.567 11.3287C147.218 11.3287 148.532 11.8679 149.509 12.9461C150.503 14.0076 151 15.4734 151 17.3435V25.5822H146.704V17.9247C146.704 16.9813 146.459 16.2484 145.971 15.7261C145.482 15.2038 144.825 14.9426 144 14.9426C143.174 14.9426 142.517 15.2038 142.028 15.7261C141.54 16.2484 141.296 16.9813 141.296 17.9247V25.5822H136.974V11.4804H141.296V13.3505C141.734 12.7271 142.323 12.2385 143.065 11.8847C143.806 11.5141 144.64 11.3287 145.567 11.3287Z" fill="black"/>
</svg>
