<svg width="41" height="28" viewBox="0 0 41 28" fill="none" xmlns="http://www.w3.org/2000/svg">
<g clip-path="url(#clip0_529_7201)">
<path d="M3.8485 26.9982H5.64743V27.6354H3.16879V23.5166H5.58871V24.152H3.8485V25.2257H5.42857V25.8471H3.8485V26.9982Z" fill="#FE4D5F"/>
<path d="M11.7186 23.5166H12.4642L10.8449 27.6354H10.2044L8.54423 23.5166H9.29868L10.5211 26.6726L11.7186 23.5166Z" fill="#FE4D5F"/>
<path d="M16.336 26.9982H18.1332V27.6354H15.6421V23.5166H18.0602V24.152H16.336V25.2257H17.9161V25.8471H16.336V26.9982Z" fill="#FE4D5F"/>
<path d="M24.2524 23.5166H24.9215V27.6354H24.3432L22.1795 24.6941V27.6354H21.514V23.5166H22.1332L24.2524 26.4085V23.5166Z" fill="#FE4D5F"/>
<path d="M31.2595 23.5166V24.1485H30.0371V27.6354H29.3556V24.1485H28.1368V23.5166H31.2595Z" fill="#FE4D5F"/>
<path d="M37.3574 27.435C37.0113 27.6176 36.6251 27.7131 36.2328 27.7131C35.8406 27.7131 35.4544 27.6176 35.1083 27.435C34.7787 27.2564 34.5058 26.9907 34.32 26.6676C34.1333 26.3335 34.0353 25.958 34.0353 25.5763C34.0353 25.1945 34.1333 24.819 34.32 24.485C34.5063 24.1622 34.7791 23.8967 35.1083 23.7176C35.4544 23.535 35.8406 23.4395 36.2328 23.4395C36.6251 23.4395 37.0113 23.535 37.3574 23.7176C37.6852 23.8973 37.9566 24.1628 38.1421 24.485C38.3278 24.8194 38.4251 25.1948 38.4251 25.5763C38.4251 25.9578 38.3278 26.3332 38.1421 26.6676C37.9572 26.9902 37.6856 27.2558 37.3574 27.435ZM36.2328 27.0619C36.4312 27.0667 36.6285 27.0316 36.8128 26.9586C36.997 26.8856 37.1643 26.7763 37.3044 26.6373C37.4446 26.4983 37.5547 26.3326 37.628 26.1502C37.7014 25.9678 37.7364 25.7725 37.7311 25.5763C37.7364 25.3801 37.7014 25.1848 37.628 25.0024C37.5547 24.82 37.4446 24.6542 37.3044 24.5153C37.1643 24.3763 36.997 24.267 36.8128 24.194C36.6285 24.121 36.4312 24.0859 36.2328 24.0907C35.9639 24.0875 35.6988 24.1542 35.4642 24.2843C35.2414 24.4096 35.057 24.592 34.9304 24.8124C34.8026 25.0446 34.7357 25.3048 34.7357 25.5692C34.7357 25.8336 34.8026 26.0938 34.9304 26.3261C35.057 26.5464 35.2414 26.7289 35.4642 26.8542C35.6974 26.9892 35.9626 27.0608 36.2328 27.0619Z" fill="#FE4D5F"/>
<path d="M7.11896 16.5849H4.47128V18.3838H6.88053V19.3413H4.47128V21.9604H3.41434V15.6045H7.11896V16.5849Z" fill="#25364F"/>
<path d="M9.31469 20.9765H12.0869V21.9604H8.25597V15.6045H11.9926V16.5849H9.32359V18.243H11.7506V19.1987H9.31469V20.9765Z" fill="#25364F"/>
<path d="M15.3627 22.0578C14.6332 22.0578 14.0466 21.8694 13.603 21.4927C13.3825 21.3036 13.2082 21.0676 13.093 20.8025C12.9777 20.5373 12.9246 20.2498 12.9375 19.9614H14.0051C13.9983 20.1162 14.0291 20.2704 14.0951 20.411C14.161 20.5516 14.2602 20.6745 14.3841 20.7693C14.6583 20.9535 14.9807 21.0549 15.3121 21.0611C15.6435 21.0674 15.9695 20.9782 16.2506 20.8045C16.3652 20.7307 16.4589 20.6293 16.523 20.5098C16.5871 20.3904 16.6195 20.2568 16.6172 20.1216C16.6179 20.0624 16.612 20.0034 16.5994 19.9456C16.5877 19.8914 16.5666 19.8396 16.5371 19.7924C16.5075 19.7455 16.479 19.7032 16.4517 19.6657C16.4167 19.6213 16.3732 19.5842 16.3236 19.5566C16.2649 19.5214 16.2186 19.4914 16.1812 19.4668C16.1258 19.4321 16.066 19.4049 16.0033 19.3858L15.8147 19.3207C15.7702 19.3031 15.699 19.2837 15.603 19.2573L15.3877 19.2045L15.1563 19.15C14.7516 19.0647 14.356 18.9415 13.9748 18.7821C13.7287 18.6819 13.5141 18.5184 13.3533 18.3086C13.1925 18.0988 13.0913 17.8502 13.0602 17.5887C13.0479 17.5036 13.0419 17.4177 13.0425 17.3317C13.0304 17.0773 13.079 16.8236 13.1844 16.5912C13.2898 16.3588 13.449 16.1542 13.6492 15.994C14.0549 15.6719 14.6012 15.5117 15.2916 15.5117C15.982 15.5117 16.5264 15.6877 16.9197 16.0398C17.1174 16.2202 17.2727 16.4415 17.3745 16.6878C17.4763 16.9342 17.5221 17.1997 17.5086 17.4655H16.4731C16.4794 17.3274 16.452 17.1899 16.3931 17.0646C16.3343 16.9393 16.2457 16.8298 16.135 16.7456C15.8846 16.5633 15.579 16.4708 15.2684 16.4833C14.975 16.4728 14.6849 16.5474 14.4339 16.6981C14.3303 16.7587 14.2448 16.8453 14.1861 16.9492C14.1273 17.053 14.0974 17.1705 14.0994 17.2895C14.098 17.3774 14.1143 17.4648 14.1474 17.5465C14.1808 17.6273 14.2348 17.6982 14.304 17.7524C14.3709 17.8099 14.4429 17.8612 14.5193 17.9055C14.614 17.958 14.7143 17.9999 14.8183 18.0305C14.9481 18.071 15.0567 18.1044 15.1457 18.1273C15.2346 18.1502 15.3592 18.1819 15.5193 18.2206C15.9288 18.3092 16.3291 18.4353 16.7151 18.5973C17.2738 18.8672 17.5935 19.2702 17.6741 19.8065C17.69 19.9078 17.6978 20.0102 17.6973 20.1128C17.7058 20.4889 17.595 20.8582 17.3805 21.1689C17.1723 21.467 16.8803 21.6983 16.5407 21.8342C16.1669 21.9854 15.7665 22.0614 15.3627 22.0578Z" fill="#25364F"/>
<path d="M22.9997 15.6045V16.5796H21.1136V21.9604H20.0727V16.5796H18.1848V15.6045H22.9997Z" fill="#25364F"/>
<path d="M27.8432 21.7651C27.4355 21.9721 26.9838 22.0802 26.5255 22.0802C26.0673 22.0802 25.6156 21.9721 25.2079 21.7651C24.8224 21.5631 24.5018 21.2582 24.2827 20.885C24.0552 20.4908 23.939 20.0433 23.9464 19.5895V15.6045H25.0033V19.5191C24.9943 19.726 25.0273 19.9326 25.1004 20.1267C25.1734 20.3207 25.285 20.4984 25.4286 20.6491C25.7253 20.9238 26.1165 21.0767 26.5229 21.0767C26.9293 21.0767 27.3205 20.9238 27.6172 20.6491C27.7605 20.4983 27.8718 20.3206 27.9446 20.1265C28.0173 19.9324 28.05 19.7259 28.0407 19.5191V15.6045H29.1083V19.5842C29.1156 20.0381 28.9995 20.4855 28.772 20.8797C28.5524 21.2551 28.2306 21.5619 27.8432 21.7651Z" fill="#25364F"/>
<path d="M38.2951 21.9604H37.2275L36.4837 17.3559L34.3965 21.8636H34.1296L32.0282 17.3611L31.2827 21.9604H30.215L31.2666 15.6045H32.3022L34.2595 19.9257L36.2275 15.6045H37.2791L38.2951 21.9604Z" fill="#25364F"/>
<path d="M22.8343 15.7705H18.3503V16.4165H20.2328V17.8897L20.9446 17.9619V16.4165H22.8307L22.8343 15.7705Z" fill="#25364F"/>
<path d="M16.8129 16.1573C16.457 15.8387 15.9428 15.6768 15.2951 15.6768C14.6474 15.6768 14.1296 15.8281 13.7578 16.1238C13.5929 16.2559 13.4595 16.4223 13.3672 16.6113C13.2749 16.8002 13.226 17.007 13.2239 17.2169L13.9357 17.2767C13.9355 17.1325 13.9731 16.9907 14.0448 16.8652C14.1166 16.7396 14.22 16.6346 14.3449 16.5604C14.6223 16.3922 14.9433 16.3078 15.2684 16.3175C15.6141 16.3057 15.9538 16.4092 16.2328 16.6114C16.3424 16.6931 16.4339 16.7962 16.5015 16.9142C16.5691 17.0323 16.6116 17.1629 16.6261 17.2979H17.3378C17.3323 17.0826 17.283 16.8707 17.1928 16.6747C17.1026 16.4787 16.9734 16.3027 16.8129 16.1573Z" fill="#25364F"/>
<path d="M6.95171 15.7705H3.57982V17.5641C3.82003 17.5095 4.06203 17.4603 4.30402 17.4127V16.42H6.95171V15.7705Z" fill="#25364F"/>
<path d="M11.8218 15.7705H8.42323V17.0255C8.66167 17.0255 8.90366 17.0255 9.14743 17.0255V16.42H11.8165L11.8218 15.7705Z" fill="#25364F"/>
<path d="M23.7791 15.4411H25.1706V18.3137C26.1101 18.3595 27.0122 18.3735 27.8734 18.363V15.4411H29.2684V18.3225C29.7435 18.3014 30.2026 18.2714 30.6492 18.2362L31.1047 15.4411H32.3894L33.5033 17.9053C34.0709 17.8173 34.6065 17.7293 35.1047 17.6184L36.0941 15.4446H37.3965L37.6581 16.9918C39.5923 16.4215 40.5567 15.9023 40.4143 15.9498C40.0585 16.066 38.0531 16.4162 38.0531 16.4162V11.9701L37.5798 12.3221V14.0823L36.3983 14.2002C36.635 13.6158 35.9268 13.3817 35.9268 13.3817V12.6777H35.5709V13.3817C35.442 13.4234 35.3288 13.5027 35.2462 13.6092C35.1637 13.7157 35.1156 13.8444 35.1083 13.9784L33.4286 11.4156C33.919 11.116 34.3481 10.7279 34.6937 10.2715C34.8237 10.4429 34.9812 10.5922 35.1599 10.7133C35.5033 10.9404 35.9375 10.9861 36.0727 10.7802C36.2079 10.5743 35.957 10.2522 35.5763 10.0761C35.3747 9.98608 35.1605 9.92674 34.941 9.90013C35.3248 9.26864 35.5277 8.54585 35.5282 7.80906C35.528 7.64491 35.5179 7.48093 35.498 7.31797C35.722 7.37568 35.9537 7.39825 36.1848 7.38486C36.6065 7.35141 36.9695 7.12787 36.9268 6.89025C36.8841 6.65263 36.4606 6.55054 36.0514 6.64559C35.8293 6.6997 35.6177 6.78949 35.425 6.91137C35.2133 6.01636 34.7138 5.21344 34.0015 4.62317L34.014 4.60909C34.2392 4.52166 34.4466 4.39465 34.6261 4.23417C34.925 3.95959 35.0442 3.57235 34.8449 3.4157C34.6457 3.25904 34.2506 3.4333 34.0051 3.75013C33.8651 3.93405 33.7629 4.14335 33.7044 4.36618L33.6901 4.38202C32.9091 3.82952 31.9807 3.51726 31.0211 3.48434V3.40866C31.1314 3.20738 31.2009 2.98676 31.2257 2.75916C31.2595 2.37016 31.0798 2.00405 30.8183 2.00405C30.5567 2.00405 30.377 2.37016 30.4108 2.75916C30.4356 2.98676 30.5051 3.20738 30.6154 3.40866V3.48434C29.7363 3.51617 28.8821 3.78123 28.1421 4.25177L28.0674 4.15848C28.0195 3.93357 27.9277 3.72009 27.7969 3.53011C27.5656 3.20272 27.1795 3.01438 26.9731 3.16223C26.7667 3.31009 26.8681 3.70084 27.151 3.98775C27.3232 4.15434 27.5238 4.2896 27.7435 4.38731L27.8218 4.47355C27.1016 5.0172 26.5699 5.76883 26.3005 6.62447L26.1777 6.59631C25.9825 6.45346 25.7632 6.34618 25.53 6.27948C25.1243 6.16683 24.6973 6.25308 24.6403 6.48894C24.5834 6.7248 24.9375 6.96242 25.3521 7.01698C25.5975 7.04258 25.8455 7.02591 26.0852 6.9677L26.199 6.98882C26.0168 7.85603 26.1281 8.75848 26.5158 9.55689L26.4375 9.59386C26.1937 9.60083 25.953 9.64905 25.7257 9.73643C25.612 9.78212 25.5058 9.84441 25.4108 9.92125V9.51641C26.0015 9.04997 25.1741 9.16438 25.1741 9.16438V7.64712H24.5834V9.16614C24.5834 9.16614 24.1118 9.16614 24.1118 9.28231C24.1118 9.39848 24.5834 9.63434 24.5834 9.63434V12.6724C24.5834 12.9065 23.5158 12.9065 23.5158 12.9065V11.3857C23.3965 11.0337 22.925 11.0337 22.925 11.0337V9.62554L21.5015 8.92148L20.2026 9.62554V11.0337C20.1404 11.0169 20.0754 11.0128 20.0116 11.0216C19.9477 11.0303 19.8863 11.0518 19.8311 11.0847C19.7759 11.1176 19.728 11.1613 19.6903 11.213C19.6526 11.2647 19.6259 11.3235 19.6119 11.3857V12.5544C18.4304 12.4383 18.3129 13.4891 18.3129 13.4891L17.957 11.5036H17.6012C17.6012 11.5036 17.1296 8.6997 17.0104 8.34766C16.8912 7.99563 16.1848 7.6436 15.4748 8.11532C14.7649 8.58705 14.1759 13.8411 14.1759 13.8411H13.0086V13.1371H12.183V13.8411H9.46594V7.41302H8.99263V5.07729H8.40188V2.85597L7.45704 0.286133L6.5122 2.9739V5.42756H6.03889L5.21327 6.24427H5.56914V9.16614H5.44993V9.63434H5.8058V13.1388H5.09405V11.2695H4.85918V9.28231H4.62252V11.2695H4.38587V12.9065H3.91256V11.2695H3.67768V9.8614H3.44103V11.3223H3.14566V13.7813H2.78978V16.8158C1.83201 17.1364 1.00407 17.7536 0.428574 18.576C1.34306 18.1964 2.28525 17.8857 3.24708 17.6466V15.4411H7.28445V16.7489H4.63676V17.3526C5.77852 17.1623 6.93287 17.0553 8.0905 17.0323V15.4482H12.1546V16.756H9.48551V17.0323C10.5531 17.0481 11.6812 17.108 12.8912 17.2083C12.8978 16.9531 12.9604 16.7024 13.0747 16.4735C13.189 16.2447 13.3522 16.0431 13.5531 15.8829C13.9873 15.5309 14.5745 15.3549 15.3005 15.3549C16.0264 15.3549 16.6172 15.545 17.0407 15.9199C17.2554 16.1162 17.4243 16.3565 17.5356 16.624C17.6468 16.8915 17.6978 17.1798 17.6848 17.4688V17.6343H17.6332L19.9054 17.8631V16.7454H18.0175V15.4411H23.167V16.7454H21.2809V17.9951L23.0442 18.1711C23.2898 18.194 23.5336 18.2134 23.7738 18.2327L23.7791 15.4411ZM34.9232 14.0735H34.6261L33.9143 12.9065H33.6777V13.7232H32.3788V14.3076L31.8289 14.2794L31.5247 12.0845C31.6848 12.0616 31.8432 12.0317 31.998 11.9947C31.9716 12.2078 31.9855 12.4238 32.0389 12.6319C32.1421 13.0103 32.441 13.3043 32.6884 13.2268C32.9357 13.1494 32.9784 12.7481 32.8094 12.3908C32.7134 12.1948 32.5846 12.0163 32.4286 11.8627C32.7101 11.7706 32.9823 11.6528 33.2417 11.5107L34.9232 14.0735ZM31.8699 11.5529C31.7364 11.5846 31.603 11.6092 31.4659 11.6286L31.1723 9.51641L31.8699 11.5529ZM31.0816 8.58529C31.1512 8.56663 31.2186 8.54067 31.2827 8.50784L32.9962 11.1217C32.7572 11.2546 32.5057 11.3642 32.2453 11.4491L31.0816 8.58529ZM33.1706 11.0073L31.4481 8.37935L31.4748 8.35119L34.288 9.98989C33.9834 10.3954 33.6043 10.7406 33.1706 11.0073ZM35.03 7.80378C35.0304 8.47093 34.8457 9.12539 34.4962 9.69595L31.603 8.19101C31.6747 8.07171 31.7128 7.93555 31.7133 7.79673C31.7142 7.79031 31.7142 7.7838 31.7133 7.77737L35.0033 7.35141C35.0224 7.50145 35.0313 7.65257 35.03 7.80378ZM34.941 7.00994L31.6812 7.58904C31.6418 7.4555 31.5683 7.33425 31.4677 7.237L33.6759 4.9488C34.3115 5.48269 34.7554 6.20579 34.941 7.00994ZM31.0175 3.93846C31.8679 3.97122 32.6903 4.24828 33.3841 4.73582L31.304 7.11731C31.1908 7.05113 31.0646 7.00972 30.9339 6.99586L31.0175 3.93846ZM30.8396 8.61873L31.2595 11.6532C31.1182 11.6674 30.9763 11.6744 30.8343 11.6744C30.3161 11.6746 29.8018 11.5852 29.3147 11.4103L30.441 8.54304C30.5629 8.59773 30.6951 8.62594 30.8289 8.62577L30.8396 8.61873ZM28.9695 11.2678C28.2116 10.9261 27.5767 10.3644 27.1492 9.65722L30.0318 8.13821C30.088 8.25162 30.1695 8.35093 30.2702 8.42863L28.9695 11.2678ZM30.6492 3.93846L30.7346 6.99586C30.6269 7.00659 30.522 7.0364 30.425 7.08387L28.4677 4.61965C29.1185 4.20695 29.868 3.97193 30.6403 3.93846H30.6492ZM28.1581 4.81854L30.256 7.1842C30.1656 7.2544 30.091 7.34254 30.0371 7.44294L26.7933 6.73888C27.0354 5.97823 27.5089 5.31003 28.1492 4.82558L28.1581 4.81854ZM26.7133 7.05923L29.9766 7.61544C29.9613 7.67288 29.9535 7.73204 29.9535 7.79145C29.9537 7.84164 29.9585 7.89171 29.9677 7.94107L26.9837 9.33159C26.6443 8.62203 26.5493 7.822 26.7133 7.05395V7.05923ZM25.4108 10.5514C25.6598 10.5841 25.9123 10.5272 26.1225 10.3912C26.3258 10.2671 26.5038 10.1065 26.6474 9.91773L26.7115 9.88428C27.1948 10.6802 27.9125 11.3109 28.7684 11.692L28.7595 11.7113C28.5793 11.8589 28.428 12.0379 28.3129 12.2394C28.135 12.5914 28.1492 12.9927 28.393 13.0807C28.6368 13.1687 28.9481 12.8871 29.0709 12.514C29.1378 12.2958 29.1608 12.0667 29.1385 11.8398C29.6802 12.0324 30.2515 12.1307 30.8272 12.1302C30.9926 12.1302 31.1546 12.1302 31.3147 12.1074L31.6136 14.2671L26.7684 14.0136L25.4108 12.6724V10.5514Z" fill="#25364F"/>
<path d="M16.0336 16.8722C15.8108 16.7154 15.5415 16.6367 15.2684 16.6486C15.0073 16.6386 14.7488 16.7041 14.5247 16.837C14.4442 16.8821 14.3776 16.948 14.3321 17.0277C14.2867 17.1074 14.264 17.1979 14.2667 17.2893V17.3052C14.9203 17.3639 15.5988 17.4272 16.3022 17.4953V17.4618C16.3084 17.3495 16.2871 17.2373 16.2404 17.1347C16.1937 17.0321 16.1227 16.9421 16.0336 16.8722Z" fill="#25364F"/>
<path d="M37.1225 15.7705H36.32L35.5193 17.5307C35.788 17.4726 36.0531 17.4127 36.2951 17.3547L36.5549 16.7967L36.6314 17.2719C36.877 17.2086 37.1118 17.1452 37.3432 17.0836L37.1225 15.7705Z" fill="#25364F"/>
<path d="M28.2079 15.7705V18.3579C28.4535 18.3579 28.6973 18.3456 28.9357 18.3368V15.7705H28.2079Z" fill="#25364F"/>
<path d="M32.1723 15.7705H31.3876L30.9837 18.2083L31.7257 18.1362L31.9446 16.8002L32.5211 18.0323C32.7382 18.0042 32.9517 17.976 33.1617 17.9443L32.1723 15.7705Z" fill="#25364F"/>
<path d="M24.1118 18.2523C24.3574 18.2682 24.5976 18.284 24.836 18.2963V15.7705H24.1118V18.2523Z" fill="#25364F"/>
<path d="M32.1812 18.0846L32.1047 17.9209L32.0763 18.0969L32.1812 18.0846Z" fill="#25364F"/>
</g>
<defs>
<clipPath id="clip0_529_7201">
<rect width="40" height="27.4286" fill="white" transform="translate(0.428574 0.286133)"/>
</clipPath>
</defs>
</svg>
