<svg width="24" height="24" viewBox="0 0 24 24" fill="none" xmlns="http://www.w3.org/2000/svg">
<g clip-path="url(#clip0_521_3367)">
<path d="M3.70997 18.356H4.60944V18.6746H3.37012V16.6152H4.58008V16.9329H3.70997V17.4698H4.50001V17.7805H3.70997V18.356Z" fill="#FE4D5F"/>
<path d="M7.64481 16.6152H8.01758L7.20797 18.6746H6.88769L6.05762 16.6152H6.43484L7.04605 18.1932L7.64481 16.6152Z" fill="#FE4D5F"/>
<path d="M9.95391 18.356H10.8525V18.6746H9.60693V16.6152H10.816V16.9329H9.95391V17.4698H10.7439V17.7805H9.95391V18.356Z" fill="#FE4D5F"/>
<path d="M13.9117 16.6152H14.2462V18.6746H13.9571L12.8752 17.204V18.6746H12.5425V16.6152H12.8521L13.9117 18.0612V16.6152Z" fill="#FE4D5F"/>
<path d="M17.4154 16.6152V16.9312H16.8042V18.6746H16.4634V16.9312H15.854V16.6152H17.4154Z" fill="#FE4D5F"/>
<path d="M20.4643 18.5744C20.2912 18.6657 20.0981 18.7135 19.902 18.7135C19.7059 18.7135 19.5128 18.6657 19.3397 18.5744C19.1749 18.4852 19.0385 18.3523 18.9456 18.1907C18.8522 18.0237 18.8032 17.836 18.8032 17.6451C18.8032 17.4542 18.8522 17.2665 18.9456 17.0994C19.0387 16.938 19.1751 16.8053 19.3397 16.7157C19.5128 16.6244 19.7059 16.5767 19.902 16.5767C20.0981 16.5767 20.2912 16.6244 20.4643 16.7157C20.6282 16.8056 20.7639 16.9383 20.8566 17.0994C20.9495 17.2666 20.9981 17.4543 20.9981 17.6451C20.9981 17.8358 20.9495 18.0235 20.8566 18.1907C20.7642 18.352 20.6284 18.4848 20.4643 18.5744V18.5744ZM19.902 18.3879C20.0012 18.3903 20.0999 18.3727 20.192 18.3362C20.2841 18.2997 20.3677 18.2451 20.4378 18.1756C20.5079 18.1061 20.5629 18.0232 20.5996 17.932C20.6363 17.8408 20.6538 17.7432 20.6511 17.6451C20.6538 17.547 20.6363 17.4493 20.5996 17.3581C20.5629 17.2669 20.5079 17.1841 20.4378 17.1146C20.3677 17.0451 20.2841 16.9904 20.192 16.9539C20.0999 16.9174 20.0012 16.8999 19.902 16.9023C19.7675 16.9007 19.635 16.934 19.5177 16.9991C19.4063 17.0617 19.3141 17.153 19.2508 17.2631C19.1869 17.3793 19.1535 17.5094 19.1535 17.6416C19.1535 17.7738 19.1869 17.9039 19.2508 18.02C19.3141 18.1302 19.4063 18.2214 19.5177 18.284C19.6343 18.3515 19.7669 18.3873 19.902 18.3879V18.3879Z" fill="#FE4D5F"/>
<path d="M5.34499 13.1494H4.02115V14.0488H5.22577V14.5276H4.02115V15.8371H3.49268V12.6592H5.34499V13.1494Z" fill="#25364F"/>
<path d="M6.44293 15.3452H7.82905V15.8371H5.91357V12.6592H7.7819V13.1494H6.44738V13.9784H7.66091V14.4563H6.44293V15.3452Z" fill="#25364F"/>
<path d="M9.467 15.8858C9.10223 15.8858 8.80893 15.7916 8.58711 15.6033C8.4769 15.5087 8.38973 15.3907 8.33211 15.2582C8.27449 15.1256 8.24791 14.9818 8.25437 14.8376H8.78817C8.78476 14.9151 8.8002 14.9922 8.83317 15.0625C8.86615 15.1327 8.91571 15.1942 8.97768 15.2416C9.11478 15.3337 9.27598 15.3844 9.44167 15.3875C9.60736 15.3906 9.7704 15.346 9.91095 15.2592C9.96821 15.2223 10.0151 15.1716 10.0471 15.1118C10.0792 15.0521 10.0954 14.9853 10.0942 14.9177C10.0946 14.8881 10.0916 14.8586 10.0853 14.8297C10.0795 14.8026 10.0689 14.7767 10.0542 14.7531C10.0394 14.7297 10.0251 14.7086 10.0115 14.6898C9.994 14.6676 9.97223 14.649 9.94743 14.6352C9.91807 14.6176 9.89493 14.6027 9.87625 14.5903C9.84854 14.573 9.81863 14.5594 9.78728 14.5498L9.69298 14.5173C9.67074 14.5085 9.63515 14.4988 9.58711 14.4856L9.47945 14.4592L9.3638 14.4319C9.16143 14.3893 8.96362 14.3277 8.77305 14.248C8.64997 14.1979 8.54267 14.1161 8.46227 14.0112C8.38186 13.9063 8.33128 13.782 8.31575 13.6513C8.30957 13.6087 8.3066 13.5658 8.30686 13.5228C8.30081 13.3956 8.32513 13.2687 8.37783 13.1525C8.43054 13.0363 8.51015 12.9341 8.61024 12.8539C8.81308 12.6929 9.08622 12.6128 9.43141 12.6128C9.77661 12.6128 10.0488 12.7008 10.2455 12.8768C10.3444 12.967 10.422 13.0777 10.4729 13.2008C10.5238 13.324 10.5467 13.4568 10.54 13.5897H10.0222C10.0253 13.5207 10.0116 13.4519 9.98219 13.3892C9.95277 13.3266 9.90849 13.2719 9.85312 13.2297C9.72794 13.1386 9.57514 13.0924 9.41985 13.0986C9.27315 13.0933 9.12809 13.1306 9.00259 13.206C8.9508 13.2363 8.90804 13.2796 8.87866 13.3315C8.84928 13.3835 8.83433 13.4422 8.83533 13.5017C8.83462 13.5457 8.84279 13.5893 8.85935 13.6302C8.87604 13.6706 8.90301 13.7061 8.93764 13.7331C8.97107 13.7619 9.0071 13.7875 9.04529 13.8097C9.09263 13.8359 9.14276 13.8569 9.19476 13.8722C9.2597 13.8924 9.31397 13.9092 9.35846 13.9206C9.40294 13.932 9.46522 13.9479 9.54529 13.9672C9.75005 14.0115 9.9502 14.0746 10.1432 14.1556C10.4225 14.2905 10.5824 14.4921 10.6227 14.7602C10.6306 14.8108 10.6345 14.8621 10.6343 14.9133C10.6385 15.1014 10.5832 15.286 10.4759 15.4414C10.3718 15.5905 10.2258 15.7061 10.056 15.774C9.8691 15.8496 9.66888 15.8876 9.467 15.8858V15.8858Z" fill="#25364F"/>
<path d="M13.2854 12.6592V13.1467H12.3423V15.8371H11.8219V13.1467H10.8779V12.6592H13.2854Z" fill="#25364F"/>
<path d="M15.7074 15.7395C15.5035 15.843 15.2777 15.897 15.0485 15.897C14.8194 15.897 14.5936 15.843 14.3897 15.7395C14.197 15.6385 14.0367 15.486 13.9271 15.2994C13.8134 15.1023 13.7553 14.8786 13.759 14.6517V12.6592H14.2874V14.6165C14.2829 14.7199 14.2994 14.8232 14.336 14.9203C14.3725 15.0173 14.4283 15.1061 14.5001 15.1815C14.6484 15.3188 14.844 15.3953 15.0472 15.3953C15.2504 15.3953 15.446 15.3188 15.5944 15.1815C15.666 15.1061 15.7217 15.0172 15.7581 14.9202C15.7944 14.8231 15.8108 14.7199 15.8061 14.6165V12.6592H16.3399V14.649C16.3436 14.876 16.2855 15.0997 16.1718 15.2968C16.062 15.4845 15.9011 15.6379 15.7074 15.7395V15.7395Z" fill="#25364F"/>
<path d="M20.9331 15.8371H20.3993L20.0274 13.5349L18.9838 15.7887H18.8504L17.7997 13.5375L17.4269 15.8371H16.8931L17.4189 12.6592H17.9367L18.9153 14.8198L19.8993 12.6592H20.4251L20.9331 15.8371Z" fill="#25364F"/>
<path d="M13.2029 12.7422H10.9609V13.0652H11.9022V13.8018L12.2581 13.8379V13.0652H13.2012L13.2029 12.7422Z" fill="#25364F"/>
<path d="M10.1919 12.9356C10.014 12.7763 9.75689 12.6953 9.43305 12.6953C9.1092 12.6953 8.85031 12.771 8.66436 12.9189C8.58191 12.9849 8.51523 13.0681 8.46909 13.1626C8.42295 13.2571 8.39849 13.3605 8.39746 13.4654L8.75333 13.4953C8.75324 13.4232 8.77204 13.3523 8.8079 13.2895C8.84376 13.2267 8.89546 13.1742 8.95796 13.1371C9.09664 13.053 9.25712 13.0108 9.4197 13.0157C9.59255 13.0098 9.76238 13.0616 9.90191 13.1626C9.9567 13.2035 10.0024 13.255 10.0362 13.3141C10.0701 13.3731 10.0913 13.4384 10.0985 13.5059H10.4544C10.4517 13.3982 10.427 13.2923 10.3819 13.1943C10.3368 13.0963 10.2722 13.0083 10.1919 12.9356V12.9356Z" fill="#25364F"/>
<path d="M5.26163 12.7422H3.57568V13.639C3.69579 13.6117 3.81679 13.5871 3.93778 13.5633V13.0669H5.26163V12.7422Z" fill="#25364F"/>
<path d="M7.69685 12.7422H5.99756V13.3697C6.11678 13.3697 6.23777 13.3697 6.35966 13.3697V13.0669H7.69418L7.69685 12.7422Z" fill="#25364F"/>
<path d="M13.6753 12.5775H14.371V14.0138C14.8407 14.0367 15.2918 14.0437 15.7224 14.0384V12.5775H16.4199V14.0182C16.6575 14.0076 16.887 13.9927 17.1103 13.9751L17.3381 12.5775H17.9804L18.5374 13.8096C18.8212 13.7656 19.089 13.7216 19.3381 13.6661L19.8327 12.5792H20.484L20.6148 13.3528C21.5819 13.0677 22.0641 12.8081 21.9929 12.8318C21.8149 12.8899 20.8123 13.0651 20.8123 13.0651V10.842L20.5756 11.018V11.8981L19.9849 11.957C20.1032 11.6648 19.7491 11.5478 19.7491 11.5478V11.1958H19.5712V11.5478C19.5067 11.5686 19.4501 11.6083 19.4088 11.6615C19.3675 11.7148 19.3435 11.7791 19.3399 11.8461L18.5 10.5647C18.7452 10.4149 18.9598 10.2209 19.1326 9.99269C19.1976 10.0784 19.2763 10.153 19.3657 10.2136C19.5374 10.3271 19.7544 10.35 19.8221 10.247C19.8897 10.1441 19.7642 9.98301 19.5738 9.895C19.4731 9.84998 19.366 9.8203 19.2562 9.807C19.4481 9.49125 19.5496 9.12986 19.5498 8.76146C19.5497 8.67939 19.5447 8.5974 19.5347 8.51592C19.6467 8.54477 19.7626 8.55606 19.8781 8.54936C20.089 8.53264 20.2705 8.42087 20.2491 8.30206C20.2278 8.18325 20.016 8.1322 19.8114 8.17973C19.7004 8.20678 19.5946 8.25168 19.4982 8.31262C19.3924 7.86511 19.1426 7.46365 18.7865 7.16852L18.7927 7.16148C18.9053 7.11777 19.009 7.05426 19.0988 6.97402C19.2482 6.83673 19.3078 6.64311 19.2082 6.56478C19.1085 6.48646 18.911 6.57358 18.7883 6.732C18.7183 6.82396 18.6672 6.92861 18.6379 7.04003L18.6308 7.04795C18.2403 6.77169 17.7761 6.61556 17.2963 6.59911V6.56126C17.3514 6.46062 17.3861 6.35031 17.3986 6.23651C17.4155 6.04201 17.3256 5.85896 17.1948 5.85896C17.0641 5.85896 16.9742 6.04201 16.9911 6.23651C17.0035 6.35031 17.0383 6.46062 17.0934 6.56126V6.59911C16.6539 6.61502 16.2267 6.74755 15.8568 6.98282L15.8194 6.93618C15.7955 6.82372 15.7495 6.71698 15.6842 6.62199C15.5685 6.45829 15.3754 6.36412 15.2722 6.43805C15.169 6.51198 15.2198 6.70736 15.3612 6.85081C15.4473 6.9341 15.5476 7.00173 15.6575 7.05059L15.6966 7.09371C15.3365 7.36553 15.0707 7.74135 14.9359 8.16917L14.8746 8.15509C14.777 8.08367 14.6673 8.03002 14.5507 7.99667C14.3479 7.94035 14.1343 7.98347 14.1059 8.1014C14.0774 8.21933 14.2544 8.33814 14.4617 8.36543C14.5844 8.37823 14.7085 8.36989 14.8283 8.34078L14.8852 8.35134C14.7941 8.78495 14.8497 9.23617 15.0436 9.63538L15.0044 9.65386C14.8826 9.65735 14.7622 9.68146 14.6486 9.72515C14.5917 9.74799 14.5386 9.77914 14.4911 9.81756V9.61514C14.7865 9.38192 14.3728 9.43912 14.3728 9.43912V8.68049H14.0774V9.44C14.0774 9.44 13.8416 9.44 13.8416 9.49809C13.8416 9.55617 14.0774 9.6741 14.0774 9.6741V11.1931C14.0774 11.3102 13.5436 11.3102 13.5436 11.3102V10.5498C13.484 10.3738 13.2482 10.3738 13.2482 10.3738V9.6697L12.5365 9.31767L11.887 9.6697V10.3738C11.8559 10.3654 11.8234 10.3633 11.7915 10.3677C11.7596 10.3721 11.7289 10.3828 11.7013 10.3993C11.6737 10.4157 11.6497 10.4376 11.6309 10.4634C11.612 10.4893 11.5987 10.5187 11.5916 10.5498V11.1342C11.0009 11.0761 10.9422 11.6015 10.9422 11.6015L10.7642 10.6087H10.5863C10.5863 10.6087 10.3505 9.20678 10.2909 9.03077C10.2313 8.85475 9.87811 8.67873 9.52313 8.9146C9.16815 9.15046 8.87367 11.7775 8.87367 11.7775H8.29004V11.4255H7.87723V11.7775H6.51868V8.56344H6.28203V7.39558H5.98666V6.28492L5.51424 5L5.04182 6.34388V7.57071H4.80516L4.39235 7.97907H4.57028V9.44H4.51068V9.6741H4.68861V11.4263H4.33274V10.4917H4.2153V9.49809H4.09698V10.4917H3.97865V11.3102H3.74199V10.4917H3.62456V9.78764H3.50623V10.5181H3.35854V11.7476H3.18061V13.2648C2.70172 13.4251 2.28775 13.7337 2 14.1449C2.45724 13.9551 2.92834 13.7998 3.40925 13.6802V12.5775H5.42794V13.2314H4.10409V13.5333C4.67497 13.4381 5.25215 13.3846 5.83096 13.3731V12.581H7.86299V13.2349H6.52847V13.3731C7.06228 13.381 7.62634 13.4109 8.23132 13.4611C8.2346 13.3335 8.26591 13.2081 8.32306 13.0937C8.38021 12.9793 8.46183 12.8785 8.56228 12.7984C8.77936 12.6224 9.07295 12.5344 9.43594 12.5344C9.79893 12.5344 10.0943 12.6294 10.3061 12.8169C10.4134 12.915 10.4979 13.0352 10.5535 13.1689C10.6091 13.3027 10.6346 13.4468 10.6281 13.5913V13.6741H10.6023L11.7384 13.7885V13.2296H10.7945V12.5775H13.3692V13.2296H12.4262V13.8545L13.3078 13.9425C13.4306 13.9539 13.5525 13.9636 13.6726 13.9733L13.6753 12.5775ZM19.2473 11.8937H19.0988L18.7429 11.3102H18.6246V11.7185H17.9751V12.0107L17.7002 11.9966L17.548 10.8992C17.6281 10.8877 17.7073 10.8728 17.7847 10.8543C17.7715 10.9608 17.7785 11.0689 17.8052 11.1729C17.8568 11.3621 18.0062 11.5091 18.1299 11.4703C18.2536 11.4316 18.2749 11.231 18.1904 11.0523C18.1424 10.9543 18.078 10.8651 18 10.7883C18.1408 10.7422 18.2769 10.6833 18.4066 10.6123L19.2473 11.8937ZM17.7206 10.6334C17.6539 10.6492 17.5872 10.6616 17.5187 10.6712L17.3719 9.61514L17.7206 10.6334ZM17.3265 9.14958C17.3613 9.14025 17.395 9.12727 17.427 9.11085L18.2838 10.4178C18.1643 10.4842 18.0386 10.539 17.9084 10.5815L17.3265 9.14958ZM18.371 10.3606L17.5098 9.04661L17.5231 9.03253L18.9297 9.85188C18.7774 10.0547 18.5879 10.2272 18.371 10.3606V10.3606ZM19.3007 8.75882C19.3009 9.0924 19.2086 9.41963 19.0338 9.70491L17.5872 8.95244C17.6231 8.89279 17.6421 8.82471 17.6423 8.7553C17.6428 8.75209 17.6428 8.74883 17.6423 8.74562L19.2874 8.53264C19.2969 8.60766 19.3014 8.68322 19.3007 8.75882V8.75882ZM19.2562 8.36191L17.6263 8.65145C17.6066 8.58468 17.5699 8.52406 17.5196 8.47544L18.6237 7.33133C18.9415 7.59828 19.1634 7.95983 19.2562 8.36191V8.36191ZM17.2945 6.82617C17.7197 6.84254 18.1309 6.98108 18.4778 7.22484L17.4377 8.41559C17.3811 8.3825 17.318 8.36179 17.2527 8.35486L17.2945 6.82617ZM17.2055 9.1663L17.4155 10.6836C17.3448 10.6906 17.2739 10.6942 17.2028 10.6941C16.9437 10.6942 16.6866 10.6496 16.4431 10.5621L17.0062 9.12845C17.0671 9.1558 17.1333 9.1699 17.2002 9.16982L17.2055 9.1663ZM16.2705 10.4908C15.8915 10.32 15.574 10.0391 15.3603 9.68555L16.8016 8.92604C16.8297 8.98274 16.8705 9.0324 16.9208 9.07125L16.2705 10.4908ZM17.1103 6.82617L17.153 8.35486C17.0992 8.36023 17.0467 8.37513 16.9982 8.39887L16.0196 7.16676C16.345 6.96041 16.7197 6.8429 17.1059 6.82617H17.1103ZM15.8648 7.26621L16.9137 8.44903C16.8685 8.48413 16.8312 8.5282 16.8043 8.57841L15.1824 8.22637C15.3034 7.84605 15.5402 7.51195 15.8603 7.26973L15.8648 7.26621ZM15.1423 8.38655L16.774 8.66465C16.7664 8.69338 16.7625 8.72296 16.7625 8.75266C16.7626 8.77776 16.765 8.80279 16.7696 8.82747L15.2776 9.52273C15.1079 9.16795 15.0604 8.76793 15.1423 8.38391V8.38655ZM14.4911 10.1326C14.6156 10.149 14.7419 10.1206 14.847 10.0525C14.9486 9.99048 15.0376 9.91019 15.1094 9.8158L15.1415 9.79908C15.3831 10.197 15.742 10.5124 16.1699 10.7029L16.1655 10.7126C16.0754 10.7864 15.9997 10.8759 15.9422 10.9766C15.8532 11.1526 15.8603 11.3533 15.9822 11.3973C16.1041 11.4413 16.2598 11.3005 16.3212 11.1139C16.3546 11.0048 16.3661 10.8903 16.355 10.7768C16.6258 10.8731 16.9115 10.9223 17.1993 10.9221C17.282 10.9221 17.363 10.9221 17.4431 10.9106L17.5925 11.9905L15.1699 11.8637L14.4911 11.1931V10.1326Z" fill="#25364F"/>
<path d="M9.8025 13.293C9.69114 13.2146 9.55649 13.1753 9.41994 13.1813C9.28936 13.1762 9.16013 13.209 9.04805 13.2754C9.0078 13.298 8.97451 13.3309 8.95178 13.3708C8.92905 13.4106 8.91774 13.4559 8.91905 13.5016V13.5095C9.24586 13.5389 9.58512 13.5705 9.93684 13.6046V13.5879C9.9399 13.5317 9.92929 13.4756 9.90592 13.4243C9.88255 13.373 9.84708 13.328 9.8025 13.293V13.293Z" fill="#25364F"/>
<path d="M20.347 12.7422H19.9458L19.5454 13.6223C19.6798 13.5932 19.8123 13.5633 19.9333 13.5343L20.0632 13.2553L20.1015 13.4929C20.2242 13.4612 20.3417 13.4295 20.4573 13.3987L20.347 12.7422Z" fill="#25364F"/>
<path d="M15.8896 12.7422V14.0359C16.0124 14.0359 16.1343 14.0297 16.2535 14.0253V12.7422H15.8896Z" fill="#25364F"/>
<path d="M17.8716 12.7422H17.4793L17.2773 13.9611L17.6483 13.925L17.7578 13.257L18.046 13.8731C18.1546 13.859 18.2613 13.8449 18.3663 13.8291L17.8716 12.7422Z" fill="#25364F"/>
<path d="M13.8418 13.9831C13.9646 13.991 14.0847 13.9989 14.2039 14.0051V12.7422H13.8418V13.9831Z" fill="#25364F"/>
<path d="M17.8762 13.8992L17.838 13.8174L17.8237 13.9054L17.8762 13.8992Z" fill="#25364F"/>
</g>
<defs>
<clipPath id="clip0_521_3367">
<rect width="20" height="13.7143" fill="white" transform="translate(2 5)"/>
</clipPath>
</defs>
</svg>
