<svg width="28" height="28" viewBox="0 0 28 28" fill="none" xmlns="http://www.w3.org/2000/svg">
<path fill-rule="evenodd" clip-rule="evenodd" d="M19.9742 6.48857C20.4006 6.48857 20.787 6.66028 21.0666 6.93783C21.3462 7.21543 21.5192 7.59885 21.5192 8.02234C21.5192 8.4456 21.3462 8.82908 21.0666 9.10657L21.0665 9.10697C20.787 9.3844 20.4006 9.55622 19.9742 9.55622C19.5476 9.55622 19.1613 9.38445 18.8817 9.10697V9.10657C18.6023 8.82908 18.4293 8.4456 18.4293 8.02234C18.4293 7.59925 18.6023 7.21571 18.8817 6.93817V6.93783C19.1613 6.66028 19.5475 6.48857 19.9742 6.48857ZM15.0166 12.9239C15.5843 13.0446 16.1535 13.1647 16.7249 13.2675C17.0566 13.3266 17.333 13.5135 17.5112 13.7678C17.6894 14.0221 17.77 14.3442 17.7106 14.6737C17.6511 15.003 17.4628 15.2774 17.2067 15.4543C16.9506 15.6312 16.6261 15.7111 16.2942 15.6522C16.0531 15.6089 15.8122 15.5636 15.5716 15.5166C15.9145 17.2013 16.1799 18.9871 16.0302 20.6922C15.8764 22.4457 15.2843 24.1133 13.8902 25.4974C11.7565 27.6156 7.8314 28.3706 6.59966 27.8328C8.33413 27.6483 10.6585 26.6409 11.9819 24.7238C13.01 23.2343 13.5593 21.3967 13.5731 19.5963C13.5851 18.0257 13.2827 16.4978 12.9596 14.9689C12.3938 14.8489 11.8267 14.7291 11.2574 14.6267C10.9257 14.5677 10.6493 14.3806 10.4711 14.1264C10.2929 13.8722 10.2123 13.5501 10.2717 13.2206C10.3311 12.8913 10.5195 12.6169 10.7756 12.4399C11.0317 12.263 11.3562 12.1831 11.6881 12.242C11.9295 12.2854 12.1704 12.3307 12.4112 12.3778C12.0687 10.6941 11.8044 8.90994 11.9545 7.20628C12.1579 4.89988 13.1479 2.93904 15.0333 1.62503C17.1661 0.138837 19.9499 -0.161012 21.4247 0.0694743C18.9187 0.638754 16.0051 1.85343 14.7722 5.80657C14.0659 8.07171 14.5323 10.655 15.0166 12.9239ZM8.02308 18.3529C8.44948 18.3529 8.83572 18.5247 9.11529 18.8022L9.11558 18.8023C9.39509 19.08 9.56812 19.4634 9.56812 19.8865C9.56812 20.3099 9.39509 20.6932 9.11558 20.9707L9.11529 20.9711C8.83572 21.2486 8.44948 21.4204 8.02308 21.4204C7.59649 21.4204 7.2102 21.2486 6.93069 20.9711V20.9707C6.65118 20.6932 6.47815 20.3099 6.47815 19.8865C6.47815 19.4634 6.65118 19.08 6.93069 18.8023C7.2102 18.5248 7.59649 18.3529 8.02308 18.3529Z" fill="#003F7D"/>
<path fill-rule="evenodd" clip-rule="evenodd" d="M0 19.7897C0 17.3955 0.871369 15.1999 2.80885 13.6958C4.82072 12.1339 7.36378 11.7345 9.84464 11.9823C9.23231 12.7481 9.11328 13.4808 9.4907 14.3981L9.35831 14.3867C7.66212 14.2398 5.80614 14.5079 4.41499 15.5392C3.02221 16.5715 2.45001 18.1092 2.45001 19.7897C2.45001 21.3544 3.08558 22.7676 4.11502 23.7895C6.11501 25.7751 8.53623 25.8042 10.9151 24.7578C9.57986 26.2629 6.50377 27.8608 3.81751 26.6024C3.14329 26.2864 2.52964 25.8276 2.00165 25.256C0.769654 23.9224 0 21.9735 0 19.7897ZM28 8.12455C28 10.5187 27.1286 12.7143 25.1912 14.2184C23.1794 15.7803 20.6362 16.1797 18.1554 15.9319C18.7677 15.166 18.8868 14.4335 18.5093 13.5161L18.6417 13.5276C20.3379 13.6744 22.1938 13.4063 23.585 12.3751C24.9778 11.3427 25.55 9.80501 25.55 8.12455C25.55 6.55986 24.9145 5.14661 23.885 4.12464C21.885 2.13917 19.4638 2.10999 17.085 3.15641C18.4202 1.65131 21.4963 0.0533726 24.1825 1.31187C24.8567 1.62778 25.4703 2.08666 25.9984 2.6582C27.2304 3.99172 28 5.94067 28 8.12455Z" fill="#5BC3CD"/>
</svg>
