<svg width="21" height="21" viewBox="0 0 21 21" fill="none" xmlns="http://www.w3.org/2000/svg">
<g clip-path="url(#clip0_678_11145)">
<path d="M1.45742 11.9839L1.44819 11.9485L2.04756 11.2981C2.43701 10.8743 2.70406 10.5505 2.84918 10.3355C2.99409 10.1205 3.06661 9.87093 3.06661 9.59112C3.06661 9.17542 2.93019 8.84684 2.65751 8.60739C2.38475 8.36822 2.00499 8.24805 1.51829 8.24805C1.05997 8.24805 0.691855 8.39025 0.414012 8.67511C0.136169 8.95996 0.00229281 9.3029 0.0125058 9.71257L0.0186582 9.72647H1.02245V9.72655C1.02245 9.54596 1.06658 9.36114 1.1548 9.23038C1.24303 9.09954 1.36419 9.03633 1.51833 9.03633C1.69068 9.03633 1.82 9.08806 1.90622 9.18936C1.99235 9.29084 2.0355 9.4273 2.0355 9.59768C2.0355 9.71732 1.99289 9.85854 1.90774 10.0207C1.82259 10.1829 1.67317 10.3676 1.49257 10.5744L0.0523324 12.0714V12.7062H3.12226V11.9839H1.45742Z" fill="#374151"/>
<path d="M2.12942 5.21162V1.54688L0.0527344 1.85712V2.59315H1.04594V5.21162H0.0527344V6.02423H3.12263V5.21162H2.12942Z" fill="#374151"/>
<path d="M2.99663 17.5144C2.86271 17.3368 2.67715 17.205 2.43987 17.1178C2.64873 17.0225 2.81558 16.8902 2.94027 16.7209C3.06504 16.5516 3.12734 16.3664 3.12734 16.1658C3.12734 15.7622 2.98334 15.4504 2.6954 15.2304C2.40747 15.0103 2.02319 14.9004 1.54248 14.9004C1.12875 14.9004 0.776916 15.0099 0.486891 15.229C0.196866 15.448 0.0579036 15.7497 0.0701264 16.1025L0.0762789 16.1366H1.07408C1.07408 15.956 1.12465 15.8997 1.22612 15.8226C1.32752 15.7455 1.44519 15.6992 1.57899 15.6992C1.74937 15.6992 1.8791 15.7429 1.96843 15.8383C2.05764 15.9336 2.10223 16.0492 2.10223 16.1892C2.10223 16.3656 2.05256 16.5119 1.95326 16.6113C1.85383 16.7107 1.71192 16.7686 1.52735 16.7686H1.04545V17.491H1.52735C1.73222 17.491 1.89087 17.5515 2.00346 17.6498C2.11605 17.7482 2.17233 17.9106 2.17233 18.1254C2.17233 18.2797 2.11851 18.4102 2.01117 18.5116C1.90363 18.613 1.75962 18.665 1.57911 18.665C1.42091 18.665 1.28666 18.5968 1.17604 18.5006C1.06542 18.4043 1.01026 18.3036 1.01026 18.123H0.00626436L0.000234988 18.162C-0.00989599 18.5757 0.140633 18.902 0.451945 19.12C0.763258 19.338 1.12678 19.4522 1.54248 19.4522C2.0252 19.4522 2.42166 19.3388 2.73199 19.1066C3.04232 18.8744 3.19736 18.5567 3.19736 18.1511C3.19736 17.9036 3.13054 17.6919 2.99663 17.5144Z" fill="#374151"/>
<path d="M20.9999 14.873H6.10181V17.8527H20.9999V14.873Z" fill="#374151"/>
<path d="M20.9999 9.00391H6.10181V11.9835H20.9999V9.00391Z" fill="#374151"/>
<path d="M20.9999 2.95508H6.10181V5.93469H20.9999V2.95508Z" fill="#374151"/>
</g>
<defs>
<clipPath id="clip0_678_11145">
<rect width="21" height="21" fill="white"/>
</clipPath>
</defs>
</svg>
