<svg width="21" height="21" viewBox="0 0 21 21" fill="none" xmlns="http://www.w3.org/2000/svg">
<g clip-path="url(#clip0_678_11114)">
<path d="M21.0001 14.748H6.62842V17.6223H21.0001V14.748Z" fill="#374151"/>
<path d="M2.4445 1.85742H1.37916L0 6.12532H0.99775L1.23831 5.25431H2.58531L2.82894 6.12532H3.82669L2.4445 1.85742ZM1.4584 4.55753L1.90157 2.9897H1.91909L2.36513 4.55753H1.4584Z" fill="#374151"/>
<path d="M3.64755 10.8027C3.52839 10.6312 3.34345 10.5177 3.09305 10.461C3.29259 10.3807 3.44025 10.2614 3.53623 10.1029C3.63204 9.94452 3.67995 9.76356 3.67995 9.56008C3.67995 9.17076 3.53127 8.87906 3.2339 8.68239C2.93654 8.4858 2.52281 8.38867 1.99256 8.38867H0.531494V12.6566H2.20383C2.72625 12.6566 3.12726 12.5512 3.40703 12.338C3.68672 12.1248 3.8267 11.8103 3.8267 11.3936C3.8267 11.1705 3.76694 10.9738 3.64755 10.8027ZM1.4895 9.17248H1.48958H1.99252C2.22725 9.17248 2.40144 9.20247 2.51494 9.28552C2.62843 9.3687 2.68503 9.49536 2.68503 9.67739C2.68503 9.83784 2.62937 9.93816 2.51781 10.0213C2.40641 10.1044 2.23796 10.1306 2.01307 10.1306H1.4895V9.17248ZM2.67933 11.7595C2.57367 11.8427 2.41514 11.8726 2.20383 11.8726H1.48962V10.8274H2.25965C2.46313 10.8274 2.61022 10.8734 2.70127 10.9684C2.79228 11.0633 2.83769 11.1972 2.83769 11.3831C2.83765 11.5552 2.78498 11.6764 2.67933 11.7595Z" fill="#374151"/>
<path d="M1.54114 15.7824C1.67022 15.6015 1.86315 15.511 2.08821 15.511C2.35432 15.511 2.55062 15.57 2.66124 15.705C2.7717 15.8401 2.84171 16.0546 2.85549 16.3159H3.82092L3.82683 16.3066C3.78954 15.8059 3.62815 15.4236 3.34263 15.1518C3.05675 14.8797 2.64401 14.748 2.10408 14.748C1.5954 14.748 1.16712 14.9108 0.849121 15.2366C0.531208 15.5623 0.357178 15.9834 0.357178 16.4999V17.392C0.357178 17.9104 0.537483 18.3321 0.868193 18.6568C1.19874 18.9816 1.63589 19.1439 2.16409 19.1439C2.69028 19.1439 3.09547 19.0118 3.37245 18.7477C3.64927 18.4836 3.79935 18.1211 3.81883 17.6202L3.81489 17.6223H2.84954C2.83576 17.8836 2.77908 18.0828 2.67925 18.21C2.57949 18.3371 2.41026 18.3907 2.17163 18.3907C1.92513 18.3907 1.69946 18.2948 1.55861 18.1129C1.41776 17.931 1.31543 17.6874 1.31543 17.392V16.494C1.31543 16.2005 1.41206 15.9633 1.54114 15.7824Z" fill="#374151"/>
<path d="M21.0001 9.08594H6.62842V11.9602H21.0001V9.08594Z" fill="#374151"/>
<path d="M21.0001 3.25H6.62842V6.1243H21.0001V3.25Z" fill="#374151"/>
</g>
<defs>
<clipPath id="clip0_678_11114">
<rect width="21" height="21" fill="white"/>
</clipPath>
</defs>
</svg>
