<svg width="108" height="108" viewBox="0 0 108 108" fill="none" xmlns="http://www.w3.org/2000/svg">
<path d="M59.4004 106.2H106.2V1.80005H59.4004V28.8001" fill="#ECFCCB"/>
<path d="M62.5273 53.6976C61.4482 51.4854 58.7802 50.5667 56.5678 51.6456C56.552 51.6532 56.5363 51.6611 56.5207 51.669L48.5827 55.6884L48.0733 55.728L43.5949 48.168C49.4173 48.2193 54.1787 43.5411 54.2302 37.7187C54.2818 31.8964 49.6033 27.135 43.781 27.0834C37.9587 27.0319 33.1972 31.7103 33.1457 37.5327C33.1216 40.2696 34.1627 42.9088 36.0493 44.892L33.1459 43.632L18.1051 49.9806C16.738 50.5185 15.7177 51.6872 15.3691 53.1144L12.3829 65.2104C11.7748 67.6275 13.2289 70.083 15.6409 70.7112C18.037 71.3083 20.4636 69.8501 21.0607 67.4541C21.0643 67.4394 21.0679 67.4246 21.0715 67.41L23.4925 57.6L31.6537 54.2142L28.6693 70.8462L18.0169 82.782L9.22753 74.9934C7.39828 73.3644 4.59478 73.5264 2.96578 75.3556C2.94688 75.3768 2.92821 75.3984 2.90953 75.42C1.28053 77.3113 1.46796 80.1591 3.33073 81.8208L15.2719 92.4048C17.0402 93.9802 19.7341 93.8891 21.3919 92.1978L33.8407 79.5816L44.6515 86.1534L51.5311 100.091C52.2797 101.623 53.8345 102.596 55.5397 102.6C56.235 102.6 56.9201 102.435 57.5395 102.119C59.7571 100.978 60.649 98.2689 59.5429 96.0336L52.0783 80.9136C51.699 80.1445 51.1093 79.4992 50.3773 79.0524L38.2183 71.6724L40.7527 60.12L42.5743 63.8118C43.3236 65.3433 44.8779 66.3162 46.5829 66.321C47.2782 66.3207 47.9633 66.156 48.5827 65.8404L60.5239 59.7924C62.7476 58.6516 63.6404 55.935 62.5273 53.6976Z" fill="#F9FAFB"/>
<path d="M106.2 0H59.4C58.4059 0 57.6 0.80595 57.6 1.8V28.8C57.6 29.794 58.4059 30.6 59.4 30.6C60.394 30.6 61.2 29.794 61.2 28.8V3.6H104.4V104.4H1.8C0.80595 104.4 0 105.206 0 106.2C0 107.194 0.80595 108 1.8 108H106.2C107.194 108 108 107.194 108 106.2V1.8C108 0.80595 107.194 0 106.2 0Z" fill="#65A30D"/>
<path d="M61.1564 95.238L53.6918 80.118C53.1617 79.0425 52.3364 78.1402 51.3122 77.517L40.2512 70.794L41.4338 65.4084C43.2039 67.9844 46.607 68.8531 49.3952 67.4406L61.3364 61.38C64.427 59.7883 65.6749 56.0153 64.1426 52.8948C63.4031 51.3834 62.0859 50.2339 60.4886 49.7052C58.9109 49.1775 57.187 49.3074 55.706 50.0652L48.866 53.5302L46.5404 49.608C53.1638 48.0258 57.2502 41.3736 55.668 34.7505C54.0858 28.1272 47.4337 24.0408 40.8106 25.623C34.1875 27.2052 30.1008 33.8573 31.683 40.4804C31.8133 41.0256 31.9807 41.5613 32.1836 42.084L17.4596 48.3048C15.546 49.0538 14.1168 50.6877 13.6292 52.6842L10.643 64.7802C9.80491 68.1561 11.8385 71.5779 15.2042 72.4554C16.8101 72.8689 18.5149 72.6192 19.9346 71.7624C21.3859 70.8959 22.4283 69.4827 22.8272 67.8402L25.0196 58.9158L29.2982 57.141L26.9852 70.029L17.8682 80.2458L10.4198 73.647C7.84448 71.3578 3.90113 71.5898 1.61198 74.1649C1.58903 74.1906 1.56631 74.2167 1.54403 74.2428C-0.71564 76.8818 -0.452615 80.8429 2.13623 83.16L14.0756 93.744C16.5862 95.8761 20.3059 95.7505 22.667 93.4542L34.1204 81.8532L43.268 87.4098L49.9154 100.883C50.9606 103.035 53.144 104.402 55.5368 104.4C56.5154 104.401 57.4804 104.17 58.352 103.725C61.4438 102.133 62.6912 98.3585 61.1564 95.238ZM56.7266 100.514C55.3996 101.153 53.805 100.611 53.1428 99.2952L46.2596 85.356C46.1091 85.0488 45.8735 84.7917 45.581 84.6144L34.7702 78.0426C34.057 77.6099 33.1399 77.7237 32.5544 78.318L20.1002 90.9342C19.1015 91.9118 17.522 91.9656 16.4588 91.0584L4.51943 80.4744C3.39421 79.4655 3.28148 77.7424 4.26563 76.5954C5.21198 75.487 6.87743 75.3556 7.98578 76.3017C8.00041 76.3143 8.01503 76.3269 8.02943 76.3398L16.8188 84.1284C17.5607 84.786 18.6944 84.7199 19.355 83.9808L30.0074 72.0468C30.2288 71.7986 30.3771 71.4939 30.4358 71.1666L33.4202 54.5346C33.5921 53.5554 32.9376 52.6223 31.9584 52.4506C31.6218 52.3914 31.2753 52.4295 30.9596 52.56L22.7984 55.9458C22.2697 56.1651 21.8766 56.6228 21.74 57.1788L19.3226 66.978C19.1525 67.6876 18.7034 68.2989 18.077 68.6736C17.4801 69.0374 16.7606 69.1427 16.0844 68.9652C14.6318 68.5811 13.7597 67.0986 14.1296 65.6424L17.1158 53.5428C17.3325 52.6702 17.9625 51.959 18.8024 51.6384L33.134 45.5904L35.3318 46.5426C36.2458 46.9336 37.3037 46.5097 37.6948 45.5958C37.9747 44.9417 37.8428 44.1839 37.3586 43.6626C35.8061 42.0219 34.9421 39.8481 34.9448 37.5894C35.0184 32.8122 38.9507 28.9993 43.7277 29.0729C48.5049 29.1465 52.3178 33.0788 52.2442 37.8558C52.1715 42.5812 48.3197 46.3738 43.5936 46.3734C42.5996 46.3725 41.7929 47.1777 41.792 48.1718C41.7918 48.4953 41.8787 48.813 42.0438 49.0914L46.524 56.6514C46.8766 57.2395 47.5304 57.5786 48.2142 57.528L48.7236 57.4884C48.9576 57.4692 49.1855 57.4051 49.395 57.2994L57.3312 53.28C57.956 52.9578 58.6853 52.9038 59.3508 53.1306C60.0328 53.358 60.5948 53.8494 60.9114 54.495C61.5828 55.8461 61.048 57.4859 59.709 58.1814L47.7678 64.2312C46.4383 64.8663 44.8453 64.3185 44.1876 63L42.3642 59.3082C42.033 58.6163 41.2939 58.2165 40.5336 58.3182C39.7742 58.4106 39.1562 58.9731 38.9928 59.7204L36.4604 71.28C36.2962 72.0306 36.6265 72.8028 37.283 73.2024L49.4438 80.5932C49.8826 80.8629 50.2365 81.2508 50.4644 81.7128L57.9272 96.8328C58.5944 98.1821 58.0611 99.8172 56.7266 100.514Z" fill="#4B5563"/>
<path d="M68.4004 55.8C68.4004 56.7941 69.2063 57.6 70.2004 57.6H89.2552L85.1278 61.7274C84.4127 62.4182 84.3929 63.5576 85.0837 64.2726C85.7744 64.9877 86.9138 65.0075 87.6289 64.3167C87.6437 64.3023 87.6586 64.2877 87.673 64.2726L94.873 57.0726C95.5757 56.3697 95.5757 55.2303 94.873 54.5274L87.673 47.3274C86.9579 46.6367 85.8185 46.6565 85.1278 47.3715C84.4541 48.069 84.4541 49.1749 85.1278 49.8726L89.2552 54H70.2004C69.2063 54 68.4004 54.806 68.4004 55.8Z" fill="#4B5563"/>
<path d="M57.5996 68.4001V81.0001C57.5996 81.9941 58.4056 82.8001 59.3996 82.8001C60.3937 82.8001 61.1996 81.9941 61.1996 81.0001V68.4001C61.1996 67.406 60.3937 66.6001 59.3996 66.6001C58.4056 66.6001 57.5996 67.406 57.5996 68.4001Z" fill="#4B5563"/>
<path d="M59.3996 46.7999C60.3937 46.7999 61.1996 45.994 61.1996 44.9999V43.1999C61.1996 42.2059 60.3937 41.3999 59.3996 41.3999C58.4056 41.3999 57.5996 42.2059 57.5996 43.1999V44.9999C57.5996 45.994 58.4056 46.7999 59.3996 46.7999Z" fill="#4B5563"/>
</svg>
