<svg width="86" height="41" viewBox="0 0 86 41" fill="none" xmlns="http://www.w3.org/2000/svg">
<path d="M43 0C54.1456 0 64.4398 1.36179 72.111 3.68414C75.938 4.84386 79.3092 6.29936 81.7731 8.06529C84.0521 9.6965 85.7033 11.7055 85.9656 14.0074L86 14.6429V26.3571C86 28.9284 84.2628 31.1571 81.7731 32.9347C79.3092 34.7006 75.9423 36.1561 72.111 37.3159C64.4398 39.6382 54.1456 41 43 41C31.8544 41 21.5602 39.6382 13.889 37.3159C10.062 36.1561 6.6908 34.7006 4.2269 32.9347C1.9479 31.3035 0.2967 29.2945 0.0343996 26.9926L0 26.3571V14.6429C0 12.0716 1.7372 9.84293 4.2269 8.06529C6.6908 6.29936 10.0577 4.84386 13.889 3.68414C21.5602 1.36179 31.8544 0 43 0ZM77.4 23.6629C75.7875 24.3833 74.003 25.0276 72.111 25.6016C64.4398 27.9239 54.1456 29.2857 43 29.2857C31.8544 29.2857 21.5602 27.9239 13.889 25.6016C12.0525 25.053 10.2838 24.4047 8.6 23.6629V26.3571C8.6 27.0219 9.03 27.8741 10.4576 28.8991C11.9067 29.9359 14.2072 31.0048 17.3806 31.9654C23.7188 33.8836 32.7746 35.1429 43 35.1429C53.2297 35.1429 62.2812 33.8836 68.6194 31.9654C71.7928 31.0048 74.0933 29.9359 75.5424 28.8991C76.9743 27.8741 77.4 27.0219 77.4 26.3571V23.6629Z" fill="#65A30D"/>
</svg>
