<svg width="80" height="80" viewBox="0 0 80 80" fill="none" xmlns="http://www.w3.org/2000/svg">
<path d="M4.6875 4.6875H18.75V0H0V18.75H4.6875V4.6875Z" fill="black"/>
<path d="M61.25 0V4.6875H75.3125V18.75H80V0H61.25Z" fill="black"/>
<path d="M75.3125 75.3125H61.25V80H80V61.25H75.3125V75.3125Z" fill="black"/>
<path d="M4.6875 61.25H0V80H18.75V75.3125H4.6875V61.25Z" fill="black"/>
<path d="M9.53125 9.375V32.8125H32.9688V18.75H37.6562V14.0625H32.9688V9.375H9.53125ZM28.2812 28.125H14.2188V14.0625H28.2812V28.125Z" fill="black"/>
<path d="M70.4688 70.3125V46.875H61.0938V42.1875H56.4062V46.875H42.3438V51.5625H47.0312V56.25H42.3438V60.9375H47.0312V70.3125H70.4688ZM51.7188 51.5625H65.7812V65.625H51.7188V51.5625Z" fill="black"/>
<path d="M23.5938 42.1875H32.9688V37.5H9.53125V42.1875H18.9062V46.875H14.2188V51.5625H18.9062V60.9375H14.2188V65.625H18.9062V70.3125H42.3438V65.625H37.6562V60.9375H32.9688V65.625H23.5938V60.9375H28.2812V56.25H23.5938V42.1875Z" fill="black"/>
<path d="M18.9062 18.75H23.5938V23.4375H18.9062V18.75Z" fill="black"/>
<path d="M56.4062 18.75H61.0938V23.4375H56.4062V18.75Z" fill="black"/>
<path d="M61.0938 32.8125H70.4688V9.375H47.0312V32.8125H56.4062V37.5H61.0938V32.8125ZM51.7188 28.125V14.0625H65.7812V28.125H51.7188Z" fill="black"/>
<path d="M70.4688 42.1875V37.5C69.3347 37.5 62.2357 37.5 61.0938 37.5V42.1875H70.4688Z" fill="black"/>
<path d="M56.4062 56.25H61.0938V60.9375H56.4062V56.25Z" fill="black"/>
<path d="M37.6562 51.5625H42.3438V56.25H37.6562V51.5625Z" fill="black"/>
<path d="M28.2812 56.25H32.9688C32.9688 55.116 32.9688 48.017 32.9688 46.875H28.2812V56.25Z" fill="black"/>
<path d="M32.9688 42.1875H37.6562V46.875H32.9688V42.1875Z" fill="black"/>
<path d="M14.2188 51.5625H9.53125V60.9375H14.2188C14.2188 59.8035 14.2188 52.7045 14.2188 51.5625Z" fill="black"/>
<path d="M9.53125 65.625H14.2188V70.3125H9.53125V65.625Z" fill="black"/>
<path d="M37.6562 9.375H42.3438V14.0625H37.6562V9.375Z" fill="black"/>
<path d="M37.6562 28.125H42.3438C42.3438 26.991 42.3438 19.892 42.3438 18.75H37.6562V28.125Z" fill="black"/>
<path d="M42.3438 37.5V32.8125H37.6562V42.1875H56.4062V37.5H42.3438Z" fill="black"/>
</svg>
