<svg width="234" height="246" viewBox="0 0 234 246" fill="none" xmlns="http://www.w3.org/2000/svg">
<path d="M2 20.4944V11.0945C2 6.07176 6.07176 2 11.0945 2H24.6767" stroke="#2E363F" stroke-width="2.48" stroke-linecap="round"/>
<path d="M2 225.614V235.014C2 240.037 6.07176 244.108 11.0945 244.108H24.6767" stroke="#2E363F" stroke-width="2.48" stroke-linecap="round"/>
<path d="M232 225.614V235.014C232 240.037 227.928 244.108 222.905 244.108H209.323" stroke="#2E363F" stroke-width="2.48" stroke-linecap="round"/>
<path d="M231.051 20.4944V11.0945C231.051 6.07176 226.979 2 221.956 2H208.374" stroke="#2E363F" stroke-width="2.48" stroke-linecap="round"/>
<rect x="27.7148" y="33.4285" width="178.571" height="178.571" rx="12" fill="white"/>
<g clip-path="url(#clip0_607_7377)">
<path d="M89.3781 52.178H45.5723V95.9838H89.3781V52.178ZM80.6169 87.2226H54.3334V60.9391H80.6169V87.2226Z" fill="#022D61"/>
<path d="M71.8569 69.7019H63.0957V78.4631H71.8569V69.7019Z" fill="#022D61"/>
<path d="M141.945 52.178V95.9838H185.751V52.178H141.945ZM176.99 87.2226H150.706V60.9391H176.99V87.2226Z" fill="#022D61"/>
<path d="M168.23 69.7019H159.469V78.4631H168.23V69.7019Z" fill="#022D61"/>
<path d="M45.5723 192.356H89.3781V148.55H45.5723V192.356ZM54.3334 157.311H80.6169V183.595H54.3334V157.311Z" fill="#022D61"/>
<path d="M71.8569 166.074H63.0957V174.835H71.8569V166.074Z" fill="#022D61"/>
<path d="M133.186 52.178H115.664V60.9391H133.186V52.178Z" fill="#022D61"/>
<path d="M115.663 87.2246H124.424V78.4635H133.185V69.7023H106.902V60.9412H98.1406V69.7023V74.0829V78.4635H115.663V87.2246Z" fill="#022D61"/>
<path d="M106.902 87.2231H98.1406V95.9843H106.902V87.2231Z" fill="#022D61"/>
<path d="M133.185 95.9851H124.424V104.746H98.1406V113.507H133.185V95.9851Z" fill="#022D61"/>
<path d="M54.3334 131.031H63.0946V122.269H54.3334V104.747H45.5723V139.792H54.3334V131.031Z" fill="#022D61"/>
<path d="M71.8569 104.747H63.0957V113.508H71.8569V104.747Z" fill="#022D61"/>
<path d="M98.1409 139.792H115.663V131.031H106.902V122.269H89.3797V104.747H80.6186V122.269H71.8574V139.792H80.6186V131.031H84.9992H89.3797H98.1409V139.792Z" fill="#022D61"/>
<path d="M133.185 122.267H124.424V139.789H133.185V122.267Z" fill="#022D61"/>
<path d="M124.424 148.55H98.1406V157.311H115.663V183.595H98.1406V192.356H124.424V183.595H141.946V174.834H124.424V148.55Z" fill="#022D61"/>
<path d="M106.902 166.074H98.1406V174.835H106.902V166.074Z" fill="#022D61"/>
<path d="M141.947 148.55H133.186V166.073H141.947V148.55Z" fill="#022D61"/>
<path d="M176.99 166.074H150.707V192.358H159.468V174.835H176.99V166.074Z" fill="#022D61"/>
<path d="M185.751 183.597H168.229V192.358H185.751V183.597Z" fill="#022D61"/>
<path d="M185.751 148.55H176.99V157.311H185.751V148.55Z" fill="#022D61"/>
<path d="M150.706 157.314H159.468V131.03H141.945V139.791H150.706V157.314Z" fill="#022D61"/>
<path d="M168.229 113.508H159.468V104.747H150.706V113.508H141.945V122.269H176.99V113.508H185.751V104.747H168.229V113.508Z" fill="#022D61"/>
<path d="M185.751 131.03H168.229V139.791H185.751V131.03Z" fill="#022D61"/>
</g>
<defs>
<clipPath id="clip0_607_7377">
<rect x="45.5723" y="52.1785" width="140.179" height="140.179" rx="12" fill="white"/>
</clipPath>
</defs>
</svg>
