<svg width="18" height="18" viewBox="0 0 18 18" fill="none" xmlns="http://www.w3.org/2000/svg">
<g clip-path="url(#clip0_678_11134)">
<path d="M11.3321 0V8.50672C11.3321 9.31271 11.1498 9.90679 10.7469 10.2888C10.344 10.6709 9.77885 10.8619 9.03263 10.8619C8.28043 10.8619 7.69817 10.6693 7.28621 10.2843C6.87432 9.89926 6.66816 9.30681 6.66816 8.50662V0H3.60742V8.50672C3.60742 9.9933 4.12039 11.1456 5.11141 11.9635C6.10236 12.7815 7.41562 13.1903 9.03351 13.1903C10.6335 13.1903 11.9251 12.7815 12.9133 11.9635C13.9012 11.1456 14.3929 9.9933 14.3929 8.50672V0H11.3321Z" fill="#374151"/>
<path d="M17.3803 15.5957H0.619141V18.0006H17.3803V15.5957Z" fill="#374151"/>
</g>
<defs>
<clipPath id="clip0_678_11134">
<rect width="18" height="18" fill="white"/>
</clipPath>
</defs>
</svg>
