<?xml version="1.0" standalone="no"?>
<!DOCTYPE svg PUBLIC "-//W3C//DTD SVG 1.1//EN" "http://www.w3.org/Graphics/SVG/1.1/DTD/svg11.dtd" >
<svg xmlns="http://www.w3.org/2000/svg">
<metadata>Generated by IcoMoon</metadata>
<defs>
<font id="icomoon" horiz-adv-x="1024">
<font-face units-per-em="1024" ascent="960" descent="-64" />
<missing-glyph horiz-adv-x="1024" />
<glyph unicode="&#x20;" horiz-adv-x="512" d="" />
<glyph unicode="&#xe903;" glyph-name="phone" d="M864.717 400.592c-10.428 0-21.333 3.319-31.761 5.689-21.123 4.655-41.882 10.833-62.106 18.489-21.993 8.001-46.171 7.586-67.874-1.166s-39.407-25.222-49.698-46.243l-10.428-21.333c-46.177 25.685-88.606 57.591-126.104 94.817-37.226 37.498-69.129 79.929-94.815 126.103l19.911 13.274c21.019 10.291 37.489 27.993 46.241 49.698s9.168 45.88 1.166 67.872c-7.527 20.271-13.703 41.017-18.489 62.104-2.37 10.429-4.267 21.333-5.689 32.237-5.757 33.393-23.247 63.633-49.322 85.275s-59.019 33.262-92.901 32.77h-142.222c-20.431 0.192-40.664-4.021-59.32-12.351s-35.3-20.583-48.795-35.923c-13.496-15.341-23.528-33.409-29.414-52.974s-7.486-40.17-4.693-60.411c25.256-198.608 115.96-383.143 257.785-524.449 141.825-141.312 326.687-231.344 525.388-255.875h18.011c34.958-0.051 68.71 12.772 94.817 36.028 14.996 13.414 26.977 29.855 35.152 48.247 8.169 18.386 12.351 38.298 12.254 58.419v142.222c-0.58 32.927-12.572 64.637-33.929 89.708-21.356 25.077-50.751 41.96-83.166 47.773v0zM888.422 116.15c-0.011-6.736-1.451-13.386-4.233-19.519-2.782-6.127-6.832-11.594-11.89-16.037-5.296-4.574-11.492-7.993-18.182-10.035-6.696-2.037-13.744-2.657-20.69-1.82-177.545 22.767-342.461 103.993-468.731 230.861-126.271 126.872-206.711 292.171-228.632 469.823-0.754 6.944-0.093 13.97 1.944 20.651s5.408 12.88 9.908 18.223c4.443 5.057 9.911 9.11 16.042 11.889s12.782 4.221 19.513 4.229h142.222c11.024 0.246 21.79-3.36 30.442-10.196s14.652-16.474 16.965-27.256c1.896-12.958 4.267-25.758 7.111-38.4 5.476-24.991 12.765-49.549 21.807-73.482l-66.371-30.814c-5.675-2.604-10.779-6.303-15.020-10.885s-7.536-9.957-9.694-15.815c-2.158-5.858-3.138-12.086-2.883-18.324s1.739-12.365 4.368-18.028c68.229-146.145 185.706-263.621 331.853-331.853 11.543-4.739 24.485-4.739 36.028 0 5.911 2.116 11.349 5.387 15.986 9.614 4.636 4.233 8.391 9.347 11.036 15.041l29.394 66.367c24.508-8.761 49.522-16.043 74.906-21.806 12.641-2.844 25.441-5.217 38.394-7.111 10.786-2.315 20.423-8.311 27.261-16.964 6.832-8.653 10.439-19.416 10.194-30.441l0.95-147.911z" />
<glyph unicode="&#xe905;" glyph-name="user" d="M676.978 463.929c30.354 26.275 54.704 58.773 71.389 95.288s25.32 76.192 25.32 116.339c0 75.439-29.969 147.789-83.31 201.133-53.344 53.344-125.693 83.312-201.132 83.312s-147.789-29.968-201.133-83.312c-53.344-53.344-83.312-125.693-83.312-201.133-0.001-40.147 8.636-79.824 25.323-116.339s41.034-69.013 71.389-95.288c-79.636-36.061-147.202-94.295-194.618-167.739-47.416-73.442-72.676-158.994-72.76-246.409 0-15.087 5.994-29.559 16.662-40.23s25.139-16.664 40.226-16.664c15.088 0 29.558 5.994 40.227 16.664s16.663 25.143 16.663 40.23c0 90.522 35.962 177.343 99.974 241.357 64.012 64.012 150.832 99.974 241.36 99.974s177.347-35.962 241.359-99.974c64.014-64.014 99.977-150.835 99.977-241.357 0-15.087 5.994-29.559 16.657-40.23 10.67-10.67 25.143-16.664 40.23-16.664s29.559 5.994 40.23 16.664c10.663 10.67 16.657 25.143 16.657 40.23-0.082 87.415-25.341 172.967-72.759 246.409-47.418 73.445-114.982 131.679-194.617 167.739zM489.245 504.889c-33.755 0-66.752 10.010-94.818 28.763s-49.94 45.408-62.858 76.592c-12.917 31.186-16.297 65.501-9.712 98.607s22.84 63.516 46.708 87.384c23.868 23.868 54.278 40.122 87.384 46.708s67.422 3.205 98.606-9.712c31.186-12.917 57.84-34.792 76.593-62.858s28.763-61.062 28.763-94.818c0-45.264-17.981-88.673-49.988-120.679s-75.416-49.988-120.679-49.988z" />
<glyph unicode="&#xe906;" glyph-name="all-ads" horiz-adv-x="1071" d="M977.455 913.455h-859.301c-39.492 0-71.608-32.116-71.608-71.608v-787.691c0-39.494 32.116-71.61 71.608-71.61h859.301c39.494 0 71.61 32.116 71.61 71.61v787.691c0 39.492-32.116 71.608-71.61 71.608zM118.154 841.846h859.301v-143.217h-859.301v143.217zM118.154 54.156v572.865h859.301l0.037-572.865h-859.338zM633.125 588.491c-13.424 5.55-28.784 2.506-39.024-7.769-61.119-61.118-156.037-61.118-225.318-61.118h-53.706c-69.102 0-125.315-56.212-125.315-125.313 0-65.094 50.090-118.118 113.643-124.137l30.29-151.412c3.831-19.265 22.593-31.977 42.142-28.072 19.406 3.868 31.973 22.733 28.070 42.142l-27.247 136.164c68.493-0.074 158.542-2.188 217.441-61.086 10.24-10.24 25.6-13.317 39.024-7.768 13.354 5.516 22.090 18.586 22.090 33.047v322.239c0 14.465-8.737 27.533-22.090 33.083zM332.98 340.582h-17.902c-29.61 0-53.706 24.097-53.706 53.709 0 29.608 24.096 53.704 53.706 53.704h17.902v-107.413zM583.61 303.062c-58.899 30.501-124.528 36.124-179.022 37.199v108.055c54.494 1.075 120.124 6.698 179.022 37.204v-182.458zM905.849 394.296c0-19.763-16.040-35.803-35.803-35.803h-71.61c-19.763 0-35.803 16.040-35.803 35.803 0 19.768 16.040 35.807 35.803 35.807h71.61c19.763 0 35.803-16.040 35.803-35.807zM731.62 501.7c-9.882 17.115-4.008 39.027 13.107 48.909l62.013 35.804c17.078 9.918 38.991 4.010 48.905-13.104 9.882-17.115 4.012-39.027-13.103-48.909l-62.013-35.803c-16.97-9.812-38.954-4.157-48.91 13.103zM855.65 215.273c-9.956-17.222-31.939-22.914-48.91-13.107l-62.013 35.807c-17.152 9.882-22.984 31.795-13.103 48.905 9.844 17.152 31.758 23.026 48.905 13.107l62.013-35.803c17.115-9.886 22.989-31.795 13.107-48.91zM261.371 770.241c0-19.764-16.040-35.804-35.804-35.804s-35.805 16.040-35.805 35.804c0 19.764 16.040 35.804 35.805 35.804s35.804-16.040 35.804-35.804zM368.783 770.241c0-19.764-16.040-35.804-35.804-35.804s-35.804 16.040-35.804 35.804c0 19.764 16.040 35.804 35.804 35.804s35.804-16.040 35.804-35.804zM476.197 770.241c0-19.764-16.042-35.804-35.806-35.804s-35.804 16.040-35.804 35.804c0 19.764 16.040 35.804 35.804 35.804s35.806-16.040 35.806-35.804z" />
<glyph unicode="&#xe907;" glyph-name="dashboard" d="M292.714 944.596c-17.329 1.182-38.437 1.182-63.721 1.182h-2.874c-25.285 0-46.393 0.001-63.722-1.182-18.039-1.231-35.079-3.884-51.599-10.727-38.333-15.878-68.789-46.334-84.667-84.667-6.843-16.52-9.496-33.56-10.727-51.599-1.182-17.329-1.182-38.436-1.182-63.721v-2.873c0-25.285-0.001-46.393 1.182-63.722 1.231-18.039 3.884-35.079 10.727-51.599 15.878-38.333 46.334-68.789 84.667-84.667 16.52-6.843 33.56-9.496 51.599-10.727 17.329-1.182 38.436-1.182 63.721-1.182h2.874c25.285-0.001 46.392-0.001 63.722 1.182 18.039 1.231 35.079 3.884 51.599 10.727 38.333 15.878 68.789 46.334 84.667 84.667 6.843 16.52 9.496 33.559 10.727 51.599 1.182 17.329 1.182 38.437 1.182 63.722v2.874c0.001 25.285 0.001 46.392-1.182 63.721-1.231 18.039-3.884 35.079-10.727 51.599-15.878 38.333-46.334 68.789-84.667 84.667-16.52 6.843-33.559 9.496-51.599 10.727zM143.454 855.031c4.389 1.818 11.057 3.495 24.752 4.429 14.078 0.96 32.259 0.984 59.35 0.984s45.272-0.023 59.35-0.984c13.695-0.935 20.363-2.611 24.752-4.429 17.424-7.217 31.267-21.061 38.485-38.485 1.818-4.389 3.495-11.057 4.429-24.752 0.96-14.078 0.984-32.259 0.984-59.35s-0.023-45.272-0.984-59.35c-0.934-13.695-2.611-20.363-4.429-24.752-7.217-17.424-21.061-31.267-38.485-38.485-4.39-1.818-11.057-3.495-24.752-4.429-14.078-0.96-32.259-0.984-59.35-0.984s-45.272 0.023-59.35 0.984c-13.694 0.934-20.363 2.611-24.752 4.429-17.424 7.217-31.268 21.061-38.485 38.485-1.818 4.39-3.495 11.057-4.429 24.752-0.96 14.078-0.984 32.259-0.984 59.35s0.023 45.272 0.984 59.35c0.935 13.694 2.611 20.363 4.429 24.752 7.217 17.424 21.061 31.268 38.485 38.485zM861.605 944.596c-17.328 1.182-38.44 1.182-63.721 1.182h-2.873c-25.287 0-46.399 0.001-63.727-1.182-18.039-1.231-35.078-3.884-51.598-10.727-38.332-15.878-68.79-46.334-84.668-84.667-6.844-16.52-9.495-33.56-10.724-51.599-1.183-17.329-1.183-38.436-1.183-63.721v-2.874c0-25.285 0-46.392 1.183-63.722 1.229-18.039 3.88-35.079 10.724-51.599 15.878-38.333 46.336-68.789 84.668-84.667 16.521-6.843 33.559-9.496 51.598-10.727 17.328-1.182 38.44-1.182 63.721-1.182h2.879c25.281-0.001 46.393-0.001 63.721 1.182 18.039 1.231 35.078 3.884 51.598 10.727 38.332 15.878 68.79 46.334 84.668 84.667 6.844 16.52 9.495 33.559 10.724 51.599 1.183 17.329 1.183 38.437 1.183 63.722v2.874c0 25.285 0 46.392-1.183 63.721-1.229 18.039-3.88 35.079-10.724 51.599-15.878 38.333-46.336 68.789-84.668 84.667-16.521 6.843-33.559 9.496-51.598 10.727zM712.34 855.031c4.392 1.818 11.059 3.495 24.752 4.429 14.080 0.96 32.262 0.984 59.352 0.984s45.272-0.023 59.352-0.984c13.693-0.935 20.361-2.611 24.752-4.429 17.419-7.217 31.266-21.061 38.485-38.485 1.815-4.389 3.493-11.057 4.426-24.752 0.961-14.078 0.984-32.259 0.984-59.35s-0.023-45.272-0.984-59.35c-0.933-13.695-2.611-20.363-4.426-24.752-7.219-17.424-21.066-31.267-38.485-38.485-4.392-1.818-11.059-3.495-24.752-4.429-14.080-0.96-32.262-0.984-59.352-0.984s-45.272 0.023-59.352 0.984c-13.693 0.934-20.361 2.611-24.752 4.429-17.419 7.217-31.266 21.061-38.48 38.485-1.82 4.39-3.499 11.057-4.432 24.752-0.961 14.078-0.984 32.259-0.984 59.35s0.023 45.272 0.984 59.35c0.933 13.694 2.611 20.363 4.432 24.752 7.214 17.424 21.060 31.268 38.48 38.485zM292.714 375.706c-17.329 1.183-38.437 1.183-63.722 1.183h-2.874c-25.285 0-46.392 0-63.721-1.183-18.039-1.229-35.079-3.88-51.599-10.724-38.333-15.878-68.789-46.336-84.667-84.668-6.843-16.521-9.496-33.559-10.727-51.598-1.182-17.328-1.182-38.44-1.182-63.721v-2.879c0-25.281-0.001-46.393 1.182-63.721 1.231-18.039 3.884-35.078 10.727-51.598 15.878-38.332 46.334-68.79 84.667-84.668 16.52-6.844 33.56-9.495 51.599-10.724 17.329-1.183 38.436-1.183 63.721-1.183h2.874c25.285 0 46.392 0 63.722 1.183 18.039 1.229 35.079 3.88 51.599 10.724 38.333 15.878 68.789 46.336 84.667 84.668 6.843 16.521 9.496 33.559 10.727 51.598 1.182 17.328 1.182 38.44 1.182 63.721v2.879c0.001 25.281 0.001 46.393-1.182 63.721-1.231 18.039-3.884 35.078-10.727 51.598-15.878 38.332-46.334 68.79-84.667 84.668-16.52 6.844-33.559 9.495-51.599 10.724zM143.454 286.14c4.389 1.82 11.057 3.499 24.752 4.432 14.078 0.961 32.259 0.984 59.35 0.984s45.272-0.023 59.35-0.984c13.695-0.933 20.363-2.611 24.752-4.432 17.424-7.214 31.267-21.060 38.485-38.48 1.818-4.392 3.495-11.059 4.429-24.752 0.96-14.080 0.984-32.262 0.984-59.352s-0.023-45.272-0.984-59.352c-0.934-13.693-2.611-20.361-4.429-24.752-7.217-17.419-21.061-31.266-38.485-38.485-4.39-1.815-11.057-3.493-24.752-4.426-14.078-0.961-32.259-0.984-59.35-0.984s-45.272 0.023-59.35 0.984c-13.694 0.933-20.363 2.611-24.752 4.426-17.424 7.219-31.268 21.066-38.485 38.485-1.818 4.392-3.495 11.059-4.429 24.752-0.96 14.080-0.984 32.262-0.984 59.352s0.023 45.272 0.984 59.352c0.935 13.693 2.611 20.361 4.429 24.752 7.217 17.419 21.061 31.266 38.485 38.48zM861.605 375.706c-17.328 1.183-38.44 1.183-63.721 1.183h-2.879c-25.281 0-46.393 0-63.721-1.183-18.039-1.229-35.078-3.88-51.598-10.724-38.332-15.878-68.79-46.336-84.668-84.668-6.844-16.521-9.495-33.559-10.724-51.598-1.183-17.328-1.183-38.44-1.183-63.721v-2.879c0-25.281 0-46.393 1.183-63.721 1.229-18.039 3.88-35.078 10.724-51.598 15.878-38.332 46.336-68.79 84.668-84.668 16.521-6.844 33.559-9.495 51.598-10.724 17.328-1.183 38.44-1.183 63.721-1.183h2.879c25.281 0 46.393 0 63.721 1.183 18.039 1.229 35.078 3.88 51.598 10.724 38.332 15.878 68.79 46.336 84.668 84.668 6.844 16.521 9.495 33.559 10.724 51.598 1.183 17.328 1.183 38.44 1.183 63.721v2.879c0 25.281 0 46.393-1.183 63.721-1.229 18.039-3.88 35.078-10.724 51.598-15.878 38.332-46.336 68.79-84.668 84.668-16.521 6.844-33.559 9.495-51.598 10.724zM712.34 286.14c4.392 1.82 11.059 3.499 24.752 4.432 14.080 0.961 32.262 0.984 59.352 0.984s45.272-0.023 59.352-0.984c13.693-0.933 20.361-2.611 24.752-4.432 17.419-7.214 31.266-21.060 38.485-38.48 1.815-4.392 3.493-11.059 4.426-24.752 0.961-14.080 0.984-32.262 0.984-59.352s-0.023-45.272-0.984-59.352c-0.933-13.693-2.611-20.361-4.426-24.752-7.219-17.419-21.066-31.266-38.485-38.485-4.392-1.815-11.059-3.493-24.752-4.426-14.080-0.961-32.262-0.984-59.352-0.984s-45.272 0.023-59.352 0.984c-13.693 0.933-20.361 2.611-24.752 4.426-17.419 7.219-31.266 21.066-38.48 38.485-1.82 4.392-3.499 11.059-4.432 24.752-0.961 14.080-0.984 32.262-0.984 59.352s0.023 45.272 0.984 59.352c0.933 13.693 2.611 20.361 4.432 24.752 7.214 17.419 21.060 31.266 38.48 38.48z" />
<glyph unicode="&#xe908;" glyph-name="help" horiz-adv-x="922" d="M919.828 30.341c-12.068 52.731-75.028 257.818-316.831 331.054 25.682 15.411 48.456 34.857 67.292 57.426h94.054c54.523 0 98.872 42.31 98.872 94.314v128.572c0 21.794-7.808 41.868-20.869 57.856-126.085 346.947-635.964 347.552-762.516-0.004-13.058-15.988-20.867-36.060-20.867-57.852v-128.572c0-52.006 44.354-94.314 98.869-94.314h94.056c18.84-22.569 41.611-42.015 67.296-57.426-241.713-73.196-305.112-278.226-317.301-330.87-10.603-44.503 24.538-94.525 80.236-94.525 163.919 0 599.351 0 757.938 0.481 54.313 0.005 90.086 47.928 79.77 93.86zM800.261 641.708v-128.572c0-18.889-16.113-34.254-35.912-34.254h-56.612c27.525 61.545 27.525 135.538 0 197.083h56.612c19.799 0.002 35.912-15.365 35.912-34.256zM214.447 478.881h-56.614c-19.801 0-35.908 15.368-35.908 34.254v128.572c0 18.891 16.109 34.256 35.908 34.256h56.614c-27.528-61.545-27.528-135.536 0-197.083zM166.242 736.026c126.349 219.375 463.42 219.225 589.705 0h-85.658c-102.876 127.688-315.57 127.64-418.401 0h-85.647zM256.703 577.423c0 107.508 91.687 194.971 204.386 194.971 138.964 2.583 241.641-138.17 192.177-261.371h-124.785c-41.704-1.469-41.708-58.591 0-60.060h88.038c-120.949-136.559-359.81-54.455-359.816 126.46zM854.461 3.067c-3.538-4.147-8.786-6.523-14.5-6.523-158.587-0.486-593.947-0.486-757.841-0.486-11.614-0.271-21.297 10.87-18.705 21.75 97.133 399.34 692.926 408.177 794.85-0.072 1.096-5.207-0.287-10.552-3.804-14.669z" />
<glyph unicode="&#xe909;" glyph-name="my-wallet" d="M684.39 442.608c-19.638 0-35.556-15.919-35.556-35.556 0-19.639 15.918-35.556 35.556-35.556h129.291c19.638 0 35.556 15.918 35.556 35.556 0 19.636-15.918 35.556-35.556 35.556h-129.291zM874.547 856.767c-4.176 23.95-12.425 45.853-29.844 64.009-20.059 20.917-45.136 29.436-72.459 33.266-25.583 3.586-57.668 3.584-95.528 3.583h-259.226c-77.658 0-138.963 0.001-187.695-5.503-49.95-5.642-90.908-17.428-125.91-43.939-21.016-15.919-39.439-35.142-54.625-56.932-25.134-36.066-36.279-78.128-41.638-129.698-5.255-50.562-5.254-114.269-5.254-195.442v-2.055c0-15.918-0.113-31.372-0.222-46.256-0.207-28.239-0.399-54.429 0.226-77.856l-0.004-24.924c0-76.009-0.001-135.6 4.526-183.205 4.614-48.526 14.18-88.257 35.643-123.284 22.477-36.676 53.315-67.516 89.994-89.993 35.026-21.464 74.758-31.033 123.282-35.647 47.605-4.523 107.196-4.523 183.207-4.523h145.956c76.015 0 135.6 0 183.205 4.523 48.526 4.614 88.257 14.182 123.284 35.647 36.676 22.477 67.516 53.316 89.993 89.993 32.245 52.622 38.167 117.242 39.68 208.64 0.489 29.394 0.489 62.418 0.489 99.487v1.343c0 64.649 0 117.287-2.702 160.564-3.721 59.488-12.72 106.292-37.467 146.677-22.477 36.679-53.316 67.517-89.993 89.994-3.965 2.43-8.004 4.714-12.117 6.859-0.245 28.616-1.132 53.627-4.801 74.675zM674.219 886.514c41.040 0 68.090-0.082 88.155-2.894 18.881-2.647 26.226-7.080 31.010-12.069 4.426-4.614 8.42-11.58 11.105-26.995 1.798-10.308 2.782-22.906 3.3-39.022-19.57 3.581-40.687 5.788-63.687 7.208-43.145 2.662-95.573 2.662-159.892 2.662h-145.187c-76.013 0-135.601 0.001-183.208-4.526-48.523-4.614-88.256-14.18-123.282-35.643-18.881-11.571-36.215-25.357-51.657-41.015 5.204 34.48 13.725 57.715 26.728 76.373 10.978 15.754 24.224 29.546 39.22 40.905 20.752 15.718 47.435 25.048 90.955 29.963 44.276 5.001 101.567 5.054 181.923 5.054h254.519zM169.688 714.601c21.974 13.466 49.538 21.365 92.857 25.483 43.848 4.169 100.062 4.207 178.343 4.207h142.223c65.638 0 115.905-0.015 156.609-2.527 40.664-2.509 69.097-7.401 91.506-15.912 8.397-3.187 15.991-6.905 23.086-11.251 27.108-16.613 49.903-39.407 66.514-66.517 11.691-19.079 19.143-42.27 23.603-76.184h-260.039c-91.045 0-164.85-73.805-164.85-164.849s73.805-164.847 164.85-164.847h264.676c-2.742-69.234-10.297-107.241-28.24-136.522-16.612-27.108-39.407-49.903-66.514-66.514-21.976-13.466-49.539-21.367-92.86-25.486-43.85-4.17-100.062-4.204-178.341-4.204h-142.223c-78.281 0-134.495 0.034-178.343 4.204-43.319 4.119-70.882 12.021-92.857 25.486-27.111 16.612-49.905 39.407-66.518 66.514-13.466 21.976-21.365 49.539-25.483 92.86-4.169 43.844-4.207 100.062-4.207 178.341 0 78.282 0.038 134.496 4.207 178.343 4.119 43.319 12.018 70.883 25.483 92.857 16.613 27.11 39.407 49.904 66.518 66.517zM590.655 407.051c0 51.77 41.967 93.738 93.736 93.738h265.062c1.058-34.319 1.064-74.811 1.064-123.906 0-22.938 0-44.043-0.108-63.568h-266.018c-51.769 0-93.736 41.967-93.736 93.736z" />
<glyph unicode="&#xe90a;" glyph-name="our-product" horiz-adv-x="931" d="M912.189 437.476l-200.318 66.772v310.646c0 11.784-7.54 22.247-18.721 25.974l-219.038 73.013c-5.618 1.873-11.696 1.869-17.317 0l-219.037-73.013c-11.18-3.725-18.721-14.188-18.721-25.974v-310.646l-200.317-66.772c-11.18-3.728-18.72-14.192-18.72-25.977v-330.38c0-11.785 7.54-22.249 18.72-25.977l219.038-73.011c2.811-0.936 5.735-1.406 8.659-1.406s5.848 0.47 8.659 1.406l210.378 70.125 210.381-70.125c2.807-0.936 5.734-1.406 8.657-1.406s5.846 0.47 8.657 1.406l219.038 73.011c11.18 3.728 18.721 14.192 18.721 25.977v330.38c0 11.785-7.54 22.249-18.721 25.977zM684.493 367.351l-132.454 44.148 132.454 44.153 132.454-44.153-132.454-44.148zM246.417 455.652l132.453-44.153-132.453-44.148-132.456 44.148 132.456 44.153zM438.075 722.148v-272.659l-164.278 54.758v272.66l164.278-54.76zM657.11 504.248l-164.278-54.758v272.659l164.278 54.76v-272.66zM273.797 318.753l164.278 54.761v-272.659l-164.278-54.761v272.659zM465.455 859.047l132.454-44.153-132.454-44.151-132.456 44.151 132.456 44.153zM54.759 373.513l164.278-54.761v-272.659l-164.278 54.761v272.659zM492.833 373.513l164.278-54.761v-272.659l-164.278 54.761v272.659zM711.871 46.094v272.659l164.278 54.761v-272.659l-164.278-54.761z" />
<glyph unicode="&#xe90b;" glyph-name="promotion" d="M485.187 890.198c-7.396 7.667-17.83 11.334-28.185 9.617-10.322-1.601-19.31-8.201-24.197-17.784l-207.213-405.779-112.948-117.073c-34.744-36.050-45.372-87.235-33.089-133.135-40.661-53.535-37.767-131.256 9.824-180.654 25.693-26.604 59.424-39.905 93.156-39.905 28.812 0 57.302 10.317 81.097 29.737 11.56-3.333 23.362-5.601 35.292-5.601 23.104 0.015 46.031 6.733 66.547 19.215l84.828-87.9c16.030-16.635 37.108-24.934 58.186-24.934s42.172 8.3 58.218 24.934c32.092 33.27 32.092 87.404 0 120.668l-81.5 84.49 19.792 20.516 391.436 214.84c9.226 5.069 15.596 14.382 17.172 25.098 1.541 10.701-1.9 21.553-9.293 29.203l-419.123 434.447zM135.956 93.67c-17.155 17.802-22.589 42.988-16.817 65.72l80.197-83.139c-21.914-5.98-46.208-0.364-63.379 17.418v0zM252.377 117.806l-93.156 96.568c-25.66 26.604-25.66 69.919 0 96.538l93.156 96.568 186.279-193.106-93.156-96.553c-25.66-26.634-67.431-26.65-93.124-0.015v0zM520.141 33.336c4.132-4.285 4.756-9.4 4.756-12.068s-0.625-7.782-4.741-12.047c-6.303-6.502-16.963-6.584-23.297-0.020l-81.516 84.47 23.297 24.151 81.5-84.485zM491.296 256.328l-198.435 205.74 177.292 347.178 356.082-369.094-334.939-183.823zM610.596 857.596v68.269c0 18.851 14.725 34.134 32.927 34.134s32.927-15.284 32.927-34.134v-68.269c0-18.85-14.725-34.134-32.927-34.134s-32.927 15.284-32.927 34.134zM972.8 618.672c0-18.85-14.725-34.135-32.927-34.135h-65.859c-18.196 0-32.927 15.284-32.927 34.135s14.73 34.135 32.927 34.135h65.859c18.202 0 32.927-15.284 32.927-34.135zM751.954 731.076c-12.861 13.334-12.861 34.934 0 48.268l65.853 68.269c12.861 13.334 33.7 13.334 46.561 0s12.861-34.934 0-48.268l-65.853-68.269c-6.431-6.667-14.858-10-23.281-10-8.428 0-16.85 3.333-23.281 10z" />
<glyph unicode="&#xe90c;" glyph-name="transfer-history" horiz-adv-x="922" d="M460.801 702.938c-140.57 0-254.934-114.364-254.934-254.934 0-140.568 114.364-254.934 254.934-254.934s254.934 114.365 254.934 254.934c0 140.57-114.365 254.934-254.934 254.934zM460.801 253.071c-107.486 0-194.934 87.444-194.934 194.932 0 107.486 87.448 194.934 194.934 194.934 107.488 0 194.933-87.448 194.933-194.934 0-107.488-87.444-194.932-194.933-194.932zM468.857 895.632l13.156 13.156c11.716 11.714 11.716 30.71 0 42.426-11.714 11.716-30.71 11.714-42.426 0l-64.266-64.268c-5.626-5.626-8.788-13.256-8.788-21.212s3.16-15.586 8.788-21.212l64.268-64.268c5.858-5.858 13.536-8.786 21.212-8.786s15.356 2.928 21.212 8.788c11.716 11.716 11.716 30.71 0 42.426l-12.95 12.948c209.998-4.416 379.47-176.596 379.47-387.63 0-16.568 13.43-29.998 29.998-29.998s30.003 13.43 30.003 29.998c0 244.188-196.5 443.314-439.677 447.632zM476.867 478.005h-31.49c-10.39 0-18.844 8.482-18.844 18.938 0 9.628 7.804 17.462 17.396 17.462h49.004c16.568 0 29.999 13.432 29.999 30s-13.43 30-29.999 30h-2.132v2.132c0 16.568-13.432 30-30 30s-30-13.432-30-30v-3.27c-36.442-6.262-64.268-38.096-64.268-76.356 0-43.51 35.37-78.909 78.844-78.909h31.49c10.038 0 18.202-8.166 18.202-18.196 0-10.035-8.164-18.202-18.202-18.202h-48.2c-16.568 0-30-13.435-30-29.998 0-16.568 13.432-30.003 30-30.003h2.134v-2.13c0-16.568 13.432-30.003 30-30.003s30 13.435 30 30.003v3.4c36.493 6.595 64.269 38.569 64.269 76.933 0 43.121-35.082 78.2-78.203 78.2zM482.013 115.748c-11.714 11.715-30.71 11.715-42.426 0s-11.716-30.71 0-42.424l12.95-12.948c-209.996 4.413-379.468 176.589-379.468 387.625 0 16.568-13.432 30-30 30s-30-13.432-30-30c0-244.188 196.5-443.315 439.676-447.631l-13.156-13.158c-11.716-11.715-11.716-30.71 0-42.424 5.856-5.857 13.534-8.786 21.212-8.786s15.356 2.929 21.212 8.786l64.266 64.266c5.627 5.627 8.791 13.256 8.791 21.212s-3.159 15.585-8.791 21.212l-64.266 64.271z" />
<glyph unicode="&#xe90d;" horiz-adv-x="1252" d="M845.483 553.576c-30.51 0-55.245 24.783-55.245 55.351 0 17.493 8.101 33.091 20.747 43.236-48.868 44.771-113.863 72.073-185.207 72.073-151.848 0-274.946-123.675-274.946-276.238s123.098-276.239 274.946-276.239c151.848 0 274.95 123.676 274.95 276.237 0 40.942-8.869 79.804-24.775 114.753-8.732-5.798-19.211-9.173-30.47-9.173z" />
<glyph unicode="&#xe90e;" horiz-adv-x="1252" d="M625.778 886.233c12.271 0 22.221 9.949 22.221 22.222v26.989c0 12.273-9.95 22.222-22.221 22.222s-22.221-9.949-22.221-22.222v-26.989c0-12.273 9.95-22.222 22.221-22.222z" />
<glyph unicode="&#xe90f;" horiz-adv-x="1252" d="M337.944 829.954c4.342-4.356 10.040-6.534 15.74-6.534 5.675 0 11.351 2.16 15.689 6.482 8.693 8.664 8.715 22.733 0.051 31.427l-19.295 19.358c-8.665 8.694-22.736 8.716-31.427 0.051-8.693-8.664-8.715-22.733-0.051-31.427l19.294-19.358z" />
<glyph unicode="&#xe910;" horiz-adv-x="1252" d="M897.877 823.42c5.695 0 11.395 2.178 15.741 6.533l19.291 19.358c8.664 8.693 8.647 22.762-0.051 31.427-8.687 8.664-22.761 8.644-31.425-0.051l-19.297-19.355c-8.664-8.694-8.641-22.762 0.051-31.427 4.341-4.322 10.012-6.484 15.69-6.484z" />
<glyph unicode="&#xe911;" horiz-adv-x="1252" d="M625.778 9.762c-12.271 0-22.221-9.95-22.221-22.221v-26.988c0-12.277 9.95-22.221 22.221-22.221s22.221 9.944 22.221 22.221v26.988c0 12.271-9.95 22.221-22.221 22.221z" />
<glyph unicode="&#xe912;" horiz-adv-x="1252" d="M913.613 66.048c-8.664 8.693-22.733 8.715-31.425 0.051s-8.715-22.733-0.051-31.425l19.297-19.359c4.341-4.352 10.041-6.531 15.741-6.531 5.672 0 11.349 2.156 15.684 6.48 8.698 8.664 8.715 22.733 0.051 31.425l-19.297 19.359z" />
<glyph unicode="&#xe913;" horiz-adv-x="1252" d="M337.942 66.048l-19.296-19.359c-8.664-8.693-8.642-22.761 0.051-31.425 4.338-4.324 10.011-6.48 15.689-6.48 5.698 0 11.398 2.173 15.74 6.531l19.296 19.359c8.665 8.693 8.643 22.761-0.051 31.425s-22.764 8.641-31.429-0.051z" />
<glyph unicode="&#xe914;" horiz-adv-x="1252" d="M55.276 462.517l0.001 0.001c2.433 3.99 57.786 94.025 155.059 185.242 57.428 53.851 117.662 96.902 179.052 127.898h0.001c77.535 39.146 157.079 59.059 236.39 59.059 79.314 0 158.857-19.913 236.39-59.059 61.389-30.995 121.623-74.047 179.052-127.898 97.269-91.208 152.622-181.235 155.062-185.243h-1141.006zM55.276 462.517c-5.434-8.917-5.435-20.126-0.001-29.044M55.276 462.517l1141.006-29.045c-2.441-4.007-57.793-94.033-155.062-185.243-57.429-53.851-117.663-96.905-179.052-127.898-77.534-39.145-157.076-59.056-236.39-59.056s-158.857 19.911-236.39 59.056c-61.39 30.993-121.624 74.047-179.052 127.898-97.275 91.216-152.629 181.251-155.061 185.244M55.275 433.473l4.859 2.959M55.275 433.473c0 0 0-0.001 0.001-0.001l4.858 2.96M60.134 436.432c-4.327 7.1-4.327 16.024 0 23.125 2.298 3.768 57.342 93.326 154.093 184.053 57.089 53.533 116.884 96.251 177.725 126.969 76.82 38.785 155.491 58.449 233.826 58.449s157.008-19.664 233.825-58.449c60.843-30.718 120.639-73.436 177.727-126.969 96.751-90.727 151.797-180.285 154.095-184.053 4.324-7.1 4.324-16.025 0-23.125-2.298-3.769-57.344-93.324-154.095-184.056-57.088-53.532-116.884-96.25-177.727-126.965-76.817-38.787-155.489-58.448-233.825-58.448-78.337 0-157.008 19.661-233.826 58.448-60.84 30.714-120.636 73.432-177.725 126.965-96.753 90.732-151.798 180.287-154.093 184.056zM1002.212 288.176c-83.82-78.404-216.792-171.082-376.434-171.082-159.639 0-292.613 92.678-376.433 171.082v0c-69.745 65.234-117.599 131.29-136.902 159.818 19.305 28.531 67.159 94.583 136.902 159.819 83.82 78.403 216.794 171.084 376.433 171.084 159.642 0 292.614-92.681 376.434-171.084 69.746-65.233 117.595-131.287 136.903-159.818-19.308-28.531-67.157-94.584-136.903-159.819z" />
<glyph unicode="&#xe915;" horiz-adv-x="1252" d="M567.094 530.699c-0.078 0.205-0.158 0.409-0.24 0.609-3.98 9.687-13.309 15.943-23.778 15.943-10.48-0.011-19.84-6.289-23.8-15.993-0.069-0.167-0.135-0.333-0.197-0.502l-57.736-151.886c-4.36-11.474 1.405-24.309 12.876-28.672 2.598-0.984 5.267-1.451 7.891-1.451 8.96 0 17.405 5.456 20.778 14.33l8.933 23.501h62.069l8.829-23.438c4.324-11.48 17.141-17.283 28.626-12.959s17.289 17.146 12.965 28.626l-57.216 151.893zM528.712 431.023l14.28 37.569 14.151-37.569h-28.431z" />
<glyph unicode="&#xe916;" horiz-adv-x="1252" d="M709.188 544.972h-42.257c-5.905 0-11.56-2.347-15.73-6.525s-6.508-9.842-6.497-15.742l0.302-149.497c0.011-5.905 2.372-11.554 6.554-15.718 4.164-4.136 9.802-6.463 15.673-6.463h0.085c1.274 0.006 31.431 0.119 43.497 0.33 46.848 0.819 80.856 41.464 80.856 96.642-0.006 58.002-33.149 96.973-82.483 96.973zM710.036 395.796c-4.818-0.084-12.823-0.153-20.628-0.207l-0.21 104.938h19.991c35.294 0 38.036-40.207 38.036-52.529 0-25.66-11.497-51.754-37.188-52.202z" />
<glyph unicode="&#xe917;" glyph-name="gift" horiz-adv-x="914" d="M833.547 604.406l-100.374 36.534c36.29 29.988 51.785 77.554 40.678 122.753-21.837 88.806-130.114 122.518-198.521 62.044l-69.303-61.264-13.711 91.879c-13.557 90.458-118.283 133.978-191.956 80.078-36.838-26.95-56.434-73.408-47.744-120.58l-94.636 34.444c-46.56 16.95-98.238-7.146-115.188-53.712l-40.98-112.594c-5.658-15.546 2.358-32.738 17.906-38.394 6.306-2.294 461.483-167.965 468.168-170.397-18.944 0-433.806 0-452.058 0-16.544 0-29.956-13.411-29.956-29.956v-419.376c0-49.551 40.314-89.867 89.866-89.867h599.11c49.551 0 89.863 40.316 89.863 89.867v341.292l23.175-8.433c15.473-5.636 32.709 2.293 38.393 17.902l40.982 112.596c16.944 46.563-7.15 98.235-53.716 115.182zM305.426-4.089h-209.687c-16.518 0-29.956 13.44-29.956 29.956v389.42h239.643v-419.376zM425.245-4.089h-59.908v419.376h59.908v-419.376zM615.007 780.849c34.75 30.722 89.611 13.488 100.663-31.462 11.787-47.926-34.538-89.482-80.903-72.634-39.435 14.354-57.915 21.080-97.404 35.454l77.645 68.642zM335.733 888.075c37.441 27.388 90.474 5.164 97.334-40.606l15.36-102.89c-11.056 4.024-86.523 31.494-97.397 35.45-46.368 16.886-55.126 78.913-15.298 108.046zM349.845 589.195l-281.487 102.454 30.736 84.444c5.65 15.522 22.876 23.55 38.396 17.904 31.5-11.464 243.621-88.67 253.334-92.206l-40.979-112.596zM462.442 548.213l-56.298 20.491 40.982 112.593 56.298-20.492-40.982-112.592zM724.802 25.867c0-16.516-13.44-29.956-29.959-29.956h-209.682v419.376h167.329l72.313-26.32v-363.099zM830.961 509.714l-30.735-84.443-281.487 102.451 40.982 112.595 253.334-92.207c15.525-5.65 23.552-22.875 17.905-38.396z" />
<glyph unicode="&#xe919;" glyph-name="scanner" d="M979.752 675.556c-17.457 0-31.604 14.151-31.604 31.605v161.976c0 15.249-12.406 27.654-27.656 27.654h-161.974c-17.457 0-31.607 14.151-31.607 31.605s14.15 31.605 31.607 31.605h161.974c50.1 0 90.863-40.762 90.863-90.864v-161.976c0-17.454-14.146-31.605-31.604-31.605zM31.605 675.556c-17.456 0-31.605 14.151-31.605 31.605v161.976c0 50.102 40.762 90.864 90.864 90.864h161.976c17.456 0 31.605-14.151 31.605-31.605s-14.149-31.605-31.605-31.605h-161.976c-15.249 0-27.654-12.405-27.654-27.654v-161.976c0-17.454-14.149-31.605-31.605-31.605zM252.84-51.359h-161.976c-50.102 0-90.864 40.759-90.864 90.863v161.974c0 17.454 14.149 31.607 31.605 31.607s31.605-14.154 31.605-31.607v-161.974c0-15.25 12.405-27.656 27.654-27.656h161.976c17.456 0 31.605-14.15 31.605-31.604s-14.149-31.604-31.605-31.604zM920.493-51.359h-161.974c-17.457 0-31.607 14.15-31.607 31.604s14.15 31.604 31.607 31.604h161.974c15.25 0 27.656 12.406 27.656 27.656v161.974c0 17.454 14.146 31.607 31.604 31.607s31.604-14.154 31.604-31.607v-161.974c0-50.104-40.763-90.863-90.863-90.863zM383.211 485.93h-165.926c-50.102 0-90.864 40.763-90.864 90.863v165.926c0 50.102 40.763 90.864 90.864 90.864h165.926c50.1 0 90.863-40.762 90.863-90.864v-165.926c0-50.1-40.763-90.863-90.863-90.863zM217.286 770.373c-15.25 0-27.654-12.405-27.654-27.654v-165.926c0-15.25 12.405-27.656 27.654-27.656h165.926c15.25 0 27.656 12.406 27.656 27.656v165.926c0 15.25-12.406 27.654-27.656 27.654h-165.926zM383.211 75.059h-165.926c-50.102 0-90.864 40.763-90.864 90.863v165.926c0 50.104 40.763 90.867 90.864 90.867h165.926c50.1 0 90.863-40.763 90.863-90.867v-165.926c0-50.1-40.763-90.863-90.863-90.863zM217.286 359.504c-15.25 0-27.654-12.406-27.654-27.656v-165.926c0-15.25 12.405-27.652 27.654-27.652h165.926c15.25 0 27.656 12.402 27.656 27.652v165.926c0 15.25-12.406 27.656-27.656 27.656h-165.926zM794.074 485.93h-165.926c-50.104 0-90.867 40.763-90.867 90.863v165.926c0 50.102 40.763 90.864 90.867 90.864h165.926c50.1 0 90.863-40.762 90.863-90.864v-165.926c0-50.1-40.763-90.863-90.863-90.863zM628.148 770.373c-15.25 0-27.656-12.405-27.656-27.654v-165.926c0-15.25 12.406-27.656 27.656-27.656h165.926c15.246 0 27.652 12.406 27.652 27.656v165.926c0 15.25-12.406 27.654-27.652 27.654h-165.926zM833.578 264.689h-75.059v106.667c0 28.319-23.040 51.359-51.359 51.359h-118.519c-28.319 0-51.359-23.040-51.359-51.359v-118.519c0-28.319 23.040-51.359 51.359-51.359h106.667v-75.059c0-28.319 23.036-51.359 51.359-51.359h86.911c28.319 0 51.359 23.040 51.359 51.359v86.911c0 28.319-23.040 51.359-51.359 51.359zM600.493 359.504h94.815v-94.815h-94.815v94.815zM821.726 138.27h-63.207v63.207h63.207v-63.207zM316.048 612.343h-31.605c-17.456 0-31.605 14.151-31.605 31.605v31.605c0 17.454 14.149 31.605 31.605 31.605h31.605c17.456 0 31.605-14.151 31.605-31.605v-31.605c0-17.454-14.149-31.605-31.605-31.605zM726.915 612.343h-31.607c-17.454 0-31.604 14.151-31.604 31.605v31.605c0 17.454 14.15 31.605 31.604 31.605h31.607c17.454 0 31.604-14.151 31.604-31.605v-31.605c0-17.454-14.15-31.605-31.604-31.605zM316.048 201.481h-31.605c-17.456 0-31.605 14.15-31.605 31.604v31.607c0 17.454 14.149 31.604 31.605 31.604h31.605c17.456 0 31.605-14.15 31.605-31.604v-31.607c0-17.454-14.149-31.604-31.605-31.604z" />
<glyph unicode="&#xe91a;" glyph-name="search" horiz-adv-x="1109" d="M450.633 136.051c95.343-0.004 187.955 30.537 263.172 86.788l283.767-272.457c21.197-19.657 54.976-19.093 75.447 1.259 19.972 19.853 19.972 51.332 0 71.185l-283.767 272.457c145.374 179.678 111.522 438.485-75.614 578.065s-456.683 107.077-602.057-72.601c-145.374-179.677-111.521-438.487 75.614-578.066 75.339-56.192 168.035-86.677 263.437-86.63zM222.629 766.884c125.925 120.909 330.088 120.911 456.018 0.005 125.926-120.906 125.926-316.935 0.004-437.844-125.926-120.909-330.091-120.909-456.018-0.004-0.002 0.004-0.002 0.004-0.004 0.004-125.925 120.026-126.667 315.34-1.66 436.246 0.553 0.532 1.105 1.063 1.66 1.593z" />
<glyph unicode="&#xe91c;" glyph-name="alert" horiz-adv-x="1092" d="M427.149 856.27c52.197 92.795 185.801 92.795 237.998 0l380.951-677.241c51.193-91.013-14.575-203.469-119.002-203.469h-761.897c-104.424 0-170.194 112.456-118.999 203.469l380.949 677.241zM614.408 180.347c0-37.697-30.564-68.267-68.267-68.267s-68.267 30.57-68.267 68.267c0 37.704 30.564 68.267 68.267 68.267s68.267-30.563 68.267-68.267zM546.142 726.484c-37.702 0-68.267-30.564-68.267-68.267v-204.8c0-37.703 30.564-68.267 68.267-68.267s68.267 30.564 68.267 68.267v204.8c0 37.702-30.564 68.267-68.267 68.267z" />
<glyph unicode="&#xe91d;" glyph-name="arrow-down-2" horiz-adv-x="1638" d="M24.685 883.62c29.921 30.521 76.743 33.296 109.738 8.324l9.453-8.324 675.325-688.898 675.328 688.898c29.921 30.521 76.739 33.296 109.732 8.324l9.452-8.324c29.921-30.521 32.645-78.282 8.161-111.938l-8.161-9.643-734.917-749.659c-29.921-30.521-76.743-33.296-109.737-8.324l-9.453 8.324-734.92 749.659c-32.913 33.574-32.913 88.008 0 121.581z" />
<glyph unicode="&#xe91f;" glyph-name="by-bank" d="M5.366-51.106c5.596-8.060 14.794-12.89 24.638-12.89h963.988c9.847 0 19.042 4.83 24.64 12.89 5.623 8.085 6.912 18.398 3.456 27.622-11.686 31.262-33.54 58.684-42.419 68.996-5.683 6.647-14.003 10.487-22.767 10.487h-889.808c-8.76 0-17.080-3.84-22.764-10.487-8.876-10.313-30.732-37.734-42.422-68.996-3.456-9.225-2.168-19.537 3.458-27.622zM120 477.999h182v-361.997h-182v361.997zM422 477.999h180.001v-361.997h-180.001v361.997zM722.001 477.999h181.999v-361.997h-181.999v361.997zM64.934 546.834c5.632-5.654 13.47-8.834 21.222-8.834 0.004 0 0.010 0.004 0.014 0.004s0.010-0.004 0.014 0.016h851.63c0.004-0.020 0.013-0.016 0.013-0.016 0.004 0 0.013-0.004 0.017-0.004 7.753 0 15.59 3.178 21.222 8.834 6.101 6.104 51.721 53.614 64.93 111.166h-1023.996c13.21-57.552 58.828-105.062 64.934-111.166zM1004.915 718.001l-479.488 238.836c-8.435 4.218-18.398 4.218-26.833 0l-479.49-238.836h985.811z" />
<glyph unicode="&#xe920;" glyph-name="by-product" d="M576.623 960h-60.041v-114.060h60.041v114.060zM664.030 940.314l-39.236-107.106 56.358-20.648 39.236 107.106-56.358 20.648zM429.214 940.273l-56.36-20.648 39.238-107.106 56.362 20.648-39.241 107.106zM822.042 699.875h-225.293l48.064-89.622h225.289l-48.060 89.622zM271.166 699.875l-48.062-89.622h225.289l48.064 89.622h-225.29zM608.892 550.241l-62.289 116.176-62.293-116.176h-223.226v-140.15c26.012 13.969 66.392 27.477 125.222 27.477 64.451 0 105.612-17.651 130.286-34.577 8.265-5.683 14.686-11.307 19.507-16.128h121.101c32.678 0 61.513-16.887 78.178-42.381l96.708 66.594c0.017 0.017 0.017 0.017 0.038 0.038v139.126h-223.232zM981.325 444.864c-44.16-5.423-90.325-55.189-104.388-73.899l-2.944-3.921-124.139-85.504c-0.439-3.499-1.079-6.963-1.924-10.342-9.984-40.823-46.882-71.177-90.722-71.177h-201.719v60.032h201.719c9.886 0 18.769 4.301 24.87 11.145 5.568 6.221 8.845 14.549 8.478 23.612-0.734 18.057-16.243 32.017-34.317 32.017h-151.364l-7.706 13.623c-2.982 3.942-30.554 37.082-110.854 37.082-16.742 0-31.384-1.297-44.114-3.388-28.254-4.642-54.584-17.297-76.378-35.866l-4.728-4.032-15.408-15.748 133.386-248.017h308.871l200.316 146.291 135.206 216.346c-13.167 9.903-26.633 13.628-42.142 11.746zM154.537 361.207l-154.016-80.418 180.028-344.811 158.238 82.603-184.25 342.626z" />
<glyph unicode="&#xe921;" glyph-name="chat-helpandfaq" horiz-adv-x="853" d="M137.618 418.822h70.867c-68.072 88.164-68.066 229.043 0.002 317.202h-62.845c120.528 219.376 442.071 219.225 562.539 0h-62.854c68.073-88.164 68.068-229.044 0-317.202h70.866c52.008 0 94.316 42.308 94.316 94.313v128.572c0 21.794-7.45 41.869-19.911 57.859-120.277 346.947-606.671 347.548-727.391-0.006-12.457-15.988-19.906-36.061-19.906-57.85v-128.572c0-52.008 42.31-94.316 94.316-94.316zM849.852 26.863c-36.534 167.93-189.921 340.557-422.955 340.582-223.557 0-384.144-162.725-423.323-340.090-10.014-47.076 25.966-91.364 73.968-91.346 151.109 0 552.513 0 698.709 0.466 47.642 0 83.246 43.733 73.6 90.388zM491.193 511.030h134.935c46.492 132.105-58.559 278.938-199.225 276.382-115.783 0.002-209.983-94.196-209.983-209.981 0.434-201.355 258.247-285.372 377.509-126.461h-103.236c-39.785 1.468-39.785 58.593 0 60.060z" />
<glyph unicode="&#xe922;" glyph-name="date-calendar" horiz-adv-x="945" d="M689.766 902.468l0.047-36.905c135.613-10.629 225.197-103.038 225.343-244.751l0.536-414.807c0.193-154.51-96.874-249.572-252.463-249.821l-380.060-0.492c-154.618-0.197-252.902 97.134-253.096 252.085l-0.535 409.935c-0.194 142.649 86.229 234.811 221.842 247.261l-0.048 36.905c-0.048 21.651 15.992 37.938 37.379 37.938 21.387 0.049 37.427-16.189 37.476-37.84l0.048-34.444 288.724 0.394-0.047 34.444c-0.047 21.651 15.99 37.889 37.38 37.938 20.901 0.049 37.427-16.189 37.474-37.839zM104.442 602.507l735.907 0.984v17.222c-2.087 105.793-55.166 161.298-150.437 169.564l0.047-37.888c0-21.159-16.475-37.938-37.376-37.938-21.39-0.049-37.478 16.681-37.478 37.84l-0.047 39.857-288.725-0.393 0.048-39.808c0-21.208-15.991-37.938-37.378-37.938-21.387-0.049-37.476 16.632-37.476 37.84l-0.049 37.889c-94.783-9.497-147.23-65.198-147.084-171.926l0.048-15.303zM632.119 378.864v-0.54c0.484-22.634 18.956-39.81 41.366-39.318 21.87 0.544 39.322 19.291 38.837 41.925-1.024 21.65-18.57 39.318-40.393 39.266-22.359-0.492-39.857-18.7-39.81-41.334zM672.268 157.928c-22.359 0.492-40.393 19.145-40.44 41.779-0.488 22.634 17.447 41.381 39.81 41.921h0.484c22.847 0 41.366-18.649 41.366-41.775 0.047-23.127-18.424-41.874-41.22-41.925zM431.86 378.077c0.969-22.634 19.488-40.298 41.85-39.314 21.87 1.032 39.322 19.732 38.349 42.366-0.536 22.142-18.519 39.365-40.393 39.318-22.359-0.985-39.857-19.732-39.806-42.37zM473.903 160.146c-22.359-0.985-40.83 16.679-41.85 39.314 0 22.634 17.451 41.334 39.81 42.366 21.87 0.051 39.904-17.172 40.393-39.266 1.020-22.682-16.479-41.381-38.353-42.413zM231.598 376.355c0.972-22.634 19.491-40.35 41.85-39.314 21.873 0.985 39.323 19.732 38.302 42.366-0.486 22.142-18.471 39.365-40.392 39.314-22.359-0.985-39.809-19.732-39.761-42.366zM273.643 159.898c-22.359-1.032-40.83 16.683-41.85 39.318-0.049 22.634 17.45 41.381 39.809 42.366 21.873 0.047 39.906-17.176 40.392-39.318 1.021-22.634-16.429-41.381-38.351-42.366z" />
<glyph unicode="&#xe923;" glyph-name="d-mart-shop" horiz-adv-x="1097" d="M1016.309 68.352h-18.878v471.45c-17.587 7.581-32.589 20.169-43.077 35.979-17.426-26.299-47.276-43.725-81.156-43.725-33.883 0-63.733 17.426-81.156 43.725-17.426-26.299-47.276-43.725-81.159-43.725-33.88 0-63.729 17.426-81.156 43.725-17.426-26.299-47.272-43.725-81.156-43.725s-63.729 17.426-81.156 43.725c-17.426-26.299-47.115-43.725-80.995-43.725-34.045 0-64.054 17.587-81.48 44.211-17.587-25.977-47.113-43.081-80.834-43.081-33.882 0-63.731 17.426-81.156 43.725-10.487-15.813-25.492-28.559-43.24-35.979v-472.58h-18.877c-19.523 0-35.334-15.81-35.334-35.335v-67.12h1006.145v67.12c0 19.525-15.813 35.335-35.335 35.335zM474.997 68.352h-265.411v327.369c0 21.943 17.748 39.852 39.852 39.852h185.706c21.943 0 39.852-17.909 39.852-39.852v-327.369zM869.164 222.274c0-14.197-11.458-25.651-25.655-25.651h-216.364c-14.197 0-25.816 11.454-25.816 25.651v195.712c0 14.197 11.619 25.655 25.816 25.655h216.364c14.197 0 25.655-11.458 25.655-25.655v-195.712zM965.808 674.036h125.367l-49.532 104.874c-5.325 11.294-16.622 18.555-29.206 18.555h-88.093l41.465-123.429zM172.961 798.589h-88.094c-12.424 0-23.879-7.261-29.203-18.555l-49.533-104.874h125.203l41.627 123.429zM970.489 641.768v-12.424c0-35.819 29.041-65.021 65.020-65.021 35.818 0 64.859 29.202 64.859 65.021v12.424h-129.88zM873.198 564.323c35.818 0 65.020 29.202 65.020 65.021v12.424h-130.044v-12.424c0-35.819 29.206-65.021 65.024-65.021zM753.642 766.486l-6.294 30.978h-110.844l8.389-123.429h127.462l-18.714 92.451zM159.086 630.474c0-35.819 29.203-65.021 65.022-65.021s65.022 29.202 65.022 65.021v11.294h-130.044v-11.294zM890.299 797.464h-110.036l18.717-92.45 6.29-30.978h126.493l-41.465 123.429zM321.398 629.344c0-35.819 29.042-65.021 65.023-65.021 35.818 0 64.859 29.202 64.859 65.021v12.424h-129.882v-12.424zM126.817 630.469v12.423h-130.044v-12.423c0-35.819 29.203-65.020 65.022-65.020s65.022 29.202 65.022 65.020zM316.88 797.464h-109.876l-41.143-122.299h126.333l24.685 122.299zM493.071 797.464l-8.393-123.429h127.788l-8.229 123.429h-111.166zM710.883 564.323c35.818 0 65.024 29.202 65.024 65.021v12.424h-130.044v-12.424c0-35.819 29.202-65.021 65.020-65.021zM460.639 797.464h-110.683l-25.009-123.429h127.463l8.229 123.429zM483.551 629.344c0-35.819 29.202-65.021 65.020-65.021s65.020 29.202 65.020 65.021v12.424h-130.041v-12.424zM217.654 829.733h779.777v32.753c0 37.271-30.171 67.603-67.441 67.603h-762.675c-37.271 0-67.603-30.333-67.603-67.603v-31.624h118.265l-0.323-1.129z" />
<glyph unicode="&#xe924;" glyph-name="down" horiz-adv-x="683" d="M11.378 889.861c0-9.746 3.58-19.482 10.741-26.918l267.373-277.656-120.726-125.368c-14.321-14.872-14.321-38.967 0-53.839l377.357-391.871h-58.143c-20.258 0-36.663-17.033-36.663-38.072 0-21.036 16.404-38.072 36.663-38.072h146.647c1.205 0 2.417 0.072 3.608 0.191 0.604 0.058 1.184 0.177 1.768 0.266 0.591 0.089 1.184 0.16 1.765 0.276 0.717 0.14 1.403 0.348 2.103 0.526 0.447 0.13 0.905 0.229 1.355 0.369 0.734 0.229 1.44 0.505 2.157 0.782 0.399 0.16 0.812 0.29 1.201 0.457 0.737 0.317 1.454 0.683 2.161 1.041 0.362 0.177 0.724 0.348 1.079 0.536 0.782 0.437 1.526 0.911 2.27 1.396 0.27 0.171 0.536 0.317 0.792 0.498 0.986 0.683 1.939 1.406 2.857 2.181l0.027 0.017c1.939 1.649 3.714 3.492 5.301 5.502l0.017 0.031c0.744 0.952 1.444 1.942 2.103 2.966 0.171 0.266 0.314 0.543 0.474 0.823 0.468 0.771 0.928 1.546 1.348 2.359 0.191 0.369 0.341 0.744 0.515 1.12 0.352 0.734 0.696 1.478 1.004 2.243 0.16 0.406 0.283 0.833 0.437 1.249 0.266 0.744 0.536 1.475 0.754 2.239 0.133 0.468 0.229 0.942 0.355 1.41 0.171 0.724 0.372 1.437 0.505 2.181 0.113 0.604 0.181 1.219 0.266 1.833 0.085 0.604 0.201 1.208 0.259 1.833 0.113 1.239 0.181 2.499 0.181 3.748v152.289c0 21.036-16.404 38.072-36.663 38.072s-36.663-17.036-36.663-38.072v-60.382l-351.436 364.954 120.725 125.372c14.322 14.872 14.322 38.963 0 53.835l-293.293 304.574c-14.321 14.872-37.521 14.872-51.842 0-7.16-7.436-10.741-17.172-10.741-26.918z" />
<glyph unicode="&#xe925;" glyph-name="kyc" horiz-adv-x="983" d="M983.040 427.52c0-271.458-220.062-491.52-491.52-491.52s-491.52 220.062-491.52 491.52c0 271.459 220.061 491.52 491.52 491.52s491.52-220.061 491.52-491.52zM552.96 673.28c0-33.932-27.509-61.44-61.44-61.44s-61.44 27.508-61.44 61.44c0 33.932 27.509 61.44 61.44 61.44s61.44-27.508 61.44-61.44zM430.080 488.96c-33.932 0-61.44-27.509-61.44-61.44s27.508-61.44 61.44-61.44v-184.32c0-33.931 27.509-61.44 61.44-61.44h61.44c33.931 0 61.44 27.509 61.44 61.44s-27.509 61.44-61.44 61.44v184.32c0 33.931-27.509 61.44-61.44 61.44h-61.44z" />
<glyph unicode="&#xe926;" glyph-name="location" d="M512 640c-105.858 0-192-86.142-192-192 0-105.854 86.142-192 192-192 105.854 0 192 86.146 192 192 0 105.858-86.146 192-192 192zM512 320c-70.591 0-128 57.409-128 128s57.409 128 128 128c70.591 0 128-57.409 128-128s-57.409-128-128-128zM992 480h-97.601c-15.486 186.24-164.161 334.912-350.399 350.4v97.6c0 17.664-14.336 32-32 32s-32-14.336-32-32v-97.6c-186.24-15.488-334.912-164.224-350.4-350.4h-97.6c-17.664 0-32-14.336-32-32s14.336-32 32-32h97.6c15.488-186.238 164.16-334.913 350.4-350.399v-97.601c0-17.664 14.336-32 32-32s32 14.336 32 32v97.601c186.238 15.486 334.913 164.161 350.399 350.399h97.601c17.664 0 32 14.271 32 32 0 17.599-14.336 32-32 32zM512 128c-176.448 0-320 143.551-320 320 0 176.448 143.552 320 320 320 176.449 0 320-143.552 320-320 0-176.449-143.551-320-320-320z" />
<glyph unicode="&#xe927;" glyph-name="plus" d="M614.4 38.4c0-27.155-10.788-53.203-29.992-72.41-19.204-19.2-45.249-29.99-72.408-29.99s-53.204 10.79-72.408 29.99c-19.204 19.206-29.992 45.254-29.992 72.41v307.2h-307.2c-27.158 0-53.204 10.788-72.408 29.992s-29.992 45.249-29.992 72.408c0 27.158 10.789 53.204 29.992 72.408s45.249 29.992 72.408 29.992h307.2v307.2c0 27.158 10.788 53.204 29.992 72.408s45.249 29.992 72.408 29.992c27.158 0 53.204-10.789 72.408-29.992s29.992-45.249 29.992-72.408v-307.2h307.2c27.155 0 53.203-10.788 72.41-29.992 19.2-19.204 29.99-45.249 29.99-72.408s-10.79-53.204-29.99-72.408c-19.206-19.204-45.254-29.992-72.41-29.992h-307.2v-307.2z" />
<glyph unicode="&#xe928;" glyph-name="promote" horiz-adv-x="1138" d="M1104.441 614.667h-135.555c-18.421 0-33.331-14.909-33.331-33.333s14.911-33.333 33.331-33.333h135.555c18.426 0 33.337 14.909 33.337 33.333s-14.911 33.333-33.337 33.333zM1134.273 796.244c-8.238 16.471-28.257 23.111-44.726 14.909l-135.555-66.666c-16.469-8.236-23.142-28.256-14.911-44.727 8.192-16.331 28.092-23.169 44.726-14.909l135.555 66.666c16.469 8.236 23.142 28.256 14.911 44.727zM1119.363 411.175l-135.555 66.667c-16.469 8.138-36.426 1.596-44.726-14.909-8.232-16.471-1.559-36.491 14.911-44.727l135.555-66.668c16.634-8.26 36.534-1.422 44.726 14.911 8.232 16.469 1.559 36.49-14.911 44.725zM802.224 948c-36.824 0-66.668-29.847-66.668-66.666v-666.658c0-36.818 29.844-66.668 66.668-66.668 36.818 0 66.662 29.85 66.662 66.668v666.658c0 36.822-29.844 66.666-66.662 66.666zM401.209 242.944c-2.531-15.889-15.713-28.279-32.311-28.279h-40.82c-2.873 0-5.44-0.95-8.098-1.627l-5.429 58.789-28.531 9.506h-175.242l27.782-257.616c13.629-54.397 68.687-86.027 121.254-72.721 53.482 13.346 86.133 67.738 73.634 116.241l-7.5 81.192c0.74-0.051 1.371-0.427 2.129-0.427h40.822c45.984 0 84.416 31.363 96.042 73.694l-63.731 21.248zM335.556 760.896v-425.803l333.327-111.104v648.011l-333.327-111.104zM99.998 748c-55.14 0-99.998-44.858-99.998-99.998v-199.997c0-55.142 44.858-99.998 99.998-99.998h168.887v399.994h-168.887z" />
<glyph unicode="&#xe929;" glyph-name="redeem-coin" horiz-adv-x="1075" d="M569.211 407.629c137.928 0 250.168 112.242 250.168 250.167s-112.241 250.166-250.168 250.166c-137.926 0-250.323-112.241-250.323-250.166s112.398-250.167 250.323-250.167zM569.211 875.849c120.269 0 218.051-97.783 218.051-218.053s-97.782-218.055-218.051-218.055c-120.262 0-218.21 97.786-218.21 218.055s97.948 218.053 218.21 218.053zM569.206 482.941c96.343 0 174.7 78.363 174.7 174.861 0 96.341-78.356 174.861-174.7 174.861-96.34 0-174.856-78.52-174.856-174.861 0-96.498 78.516-174.861 174.856-174.861zM494.384 688.794l34.681 5.135c4.823 0.643 8.991 3.693 11.244 8.185l15.411 31.314c5.458 11.078 21.361 11.078 26.813 0l15.416-31.314c2.248-4.492 6.426-7.542 11.244-8.185l34.678-5.135c12.206-1.772 17.024-16.699 8.192-25.371l-25.052-24.407c-3.528-3.371-5.135-8.35-4.173-13.172l5.78-34.521c2.089-12.199-10.598-21.513-21.514-15.735l-30.991 16.378c-4.337 2.25-9.636 2.25-13.967 0l-30.991-16.378c-10.916-5.778-23.603 3.536-21.517 15.735l5.942 34.521c0.804 4.822-0.804 9.801-4.335 13.172l-25.050 24.407c-8.828 8.672-4.014 23.599 8.189 25.371zM276.174 847.528c5.865-6.605 16.003-7.252 22.666-1.34 6.633 5.888 7.229 16.033 1.341 22.666l-19.671 22.157c-5.873 6.617-16.026 7.228-22.666 1.349-6.633-5.896-7.229-16.041-1.341-22.674l19.672-22.157zM350.531 898.764c8.765 1.317 14.81 9.487 13.493 18.252l-4.39 29.299c-1.31 8.773-9.503 14.834-18.26 13.501-8.765-1.317-14.811-9.495-13.493-18.26l4.39-29.291c1.326-8.862 9.612-14.844 18.26-13.501zM192.206 797.67l28.57-7.832c8.442-2.332 17.364 2.611 19.726 11.242 2.344 8.554-2.689 17.382-11.242 19.726l-28.57 7.832c-8.585 2.376-17.382-2.689-19.726-11.242s2.689-17.39 11.243-19.726zM862.121 847.528l19.671 22.157c5.888 6.632 5.294 16.778-1.341 22.674-6.63 5.88-16.794 5.268-22.666-1.349l-19.671-22.157c-5.888-6.632-5.289-16.778 1.341-22.666 6.661-5.91 16.799-5.266 22.666 1.34zM787.763 898.763c8.694-1.351 16.937 4.688 18.258 13.501l4.388 29.291c1.321 8.765-4.726 16.943-13.491 18.26-8.812 1.341-16.952-4.728-18.258-13.501l-4.393-29.299c-1.316-8.765 4.731-16.935 13.496-18.252zM917.514 789.838l28.57 7.832c8.556 2.336 13.588 11.172 11.244 19.726s-11.187 13.618-19.727 11.242l-28.57-7.832c-8.556-2.344-13.588-11.172-11.244-19.726 2.371-8.652 11.305-13.569 19.727-11.242zM1007.882 289.449c-21.033 23.281-53.949 30.996-82.852 20.393-17.725 35.451-59.003 45.486-89.759 28.099l-14.449-8.346c8.668 21.033 5.135 45.916-10.921 63.903-21.356 24.243-57.964 27.612-83.497 8.028l-168.115-130.058-85.74 53.944c-80.766 57.487-207.295 16.225-212.752 14.295l-75.145-26.337c-0.808 21.842-18.789 39.342-40.95 39.342h-102.923c-22.478 0-40.781-18.304-40.781-40.94v-279.229c0-22.477 18.303-40.95 40.781-40.95h102.923c21.036 0 38.378 15.898 40.628 36.291 86.219-25.876 76.838-43.766 138.568-69.524 80.829-33.521 214.546-32.727 326.434 25.533l338.959 187.54c43.643 24.202 52.035 82.263 19.589 118.016zM335.425-11.935c-55.948 23.188-55.453 47.227-150.772 73.221v218.209l85.419 29.86c1.286 0.323 116.251 38.057 184.653-10.593 17.206-10.834-62.33 39.255 168.276-105.974 14.295-7.875 23.424-24.96 18.463-44.8-6.625-21.903-29.819-33.469-51.379-25.047-67.907 26.726-117.748 46.408-142.584 56.197-8.189 3.215-17.503-0.799-20.714-9.149-3.371-8.192 0.804-17.5 8.993-20.716l142.581-56.197c38.211-15.278 82.002 5.745 93.773 45.763 0.164 0.635 0.323 1.121 0.486 1.766 353.628 187.259 231.639 122.66 258.033 136.637 0.154 0.164 0.476 0.164 0.64 0.323 17.664 8.991 39.337 5.14 52.664-9.636 19.364-21.396 13.471-54.702-11.238-68.398l-338.473-187.223c-116.736-60.692-242.621-47.852-298.82-24.243z" />
<glyph unicode="&#xe92a;" glyph-name="right-arrow" horiz-adv-x="1325" d="M699.106 922.157c28.693 32.888 78.634 36.306 111.547 7.635l483.653-421.34c17.221-15.005 27.106-36.719 27.106-59.549 0-22.832-9.885-44.547-27.106-59.552l-483.653-421.34c-32.913-28.672-82.854-25.254-111.547 7.635s-25.272 82.793 7.641 111.462l324.614 282.793h-948.537c-43.663 0-79.059 35.37-79.059 79.002 0 43.628 35.396 78.999 79.059 78.999h948.537l-324.614 282.792c-32.913 28.672-36.334 78.576-7.641 111.464z" />
<glyph unicode="&#xe92c;" glyph-name="send" d="M996.204 948.792c20.201-14 30.805-38.2 27.005-62.4l-128-832.001c-3.004-19.399-14.802-36.398-32-46-17.203-9.597-37.803-10.798-56.001-3.197l-239.201 99.396-137-148.196c-17.8-19.405-45.8-25.805-70.4-16.202-24.6 9.597-40.6 33.399-40.6 59.802v167.196c0 8.004 3 15.599 8.4 21.402l335.202 365.8c11.6 12.6 11.196 32-0.802 44s-31.403 12.8-43.998 1.399l-406.802-361.399-176.6 88.4c-21.2 10.598-34.8 31.801-35.4 55.398-0.6 23.601 11.8 45.602 32.2 57.401l895.998 512c21.402 12.2 47.804 11 67.999-2.8z" />
<glyph unicode="&#xe92e;" glyph-name="time" d="M512-44.308c-271.754 0-492.308 220.062-492.308 492.308 0 271.754 220.554 492.308 492.308 492.308 272.246 0 492.308-220.554 492.308-492.308 0-272.246-220.062-492.308-492.308-492.308zM669.046 265.354c5.908-3.446 12.308-5.415 19.2-5.415 12.308 0 24.615 6.4 31.508 18.215 10.338 17.231 4.923 39.877-12.8 50.708l-175.262 104.369v227.446c0 20.677-16.738 36.923-36.923 36.923s-36.923-16.246-36.923-36.923v-248.615c0-12.8 6.892-24.615 18.215-31.508l192.985-115.2z" />
<glyph unicode="&#xe92f;" glyph-name="transfer-coin" horiz-adv-x="975" d="M632.861-42.92c-9.138 0.044-17.896 4.398-24.381 12.117-13.507 16.301-13.507 42.633 0 58.934l249.032 305.113h-822.682c-19.236 0-34.83 18.71-34.83 41.794s15.593 41.794 34.83 41.794h905.578c19.237-0.093 34.762-18.885 34.684-41.969-0.039-10.879-3.608-21.314-9.952-29.082l-307.2-376.164c-6.602-8.080-15.653-12.605-25.078-12.537v0zM940.407 500.42h-905.58c-19.236 0.096-34.764 18.887-34.684 41.971 0.038 10.878 3.61 21.316 9.955 29.082l307.2 376.163c13.546 16.391 35.597 16.498 49.256 0.243 0.066-0.079 0.137-0.164 0.202-0.243 13.504-16.3 13.504-42.632 0-58.932l-249.034-304.692h822.685c19.237 0 34.826-18.712 34.826-41.796s-15.589-41.796-34.826-41.796v0z" />
<glyph unicode="&#xe930;" glyph-name="true" horiz-adv-x="1229" d="M409.593 161.274l-286.72 286.72-95.573-95.574 382.293-382.293 819.197 819.2-95.57 95.573-723.627-723.626z" />
<glyph unicode="&#xe931;" glyph-name="up" horiz-adv-x="1536" d="M105.205-46.93c14.619 0 29.223 5.371 40.377 16.113l416.487 401.060 188.052-181.089c22.308-21.484 58.445-21.484 80.753 0l587.807 566.036v-87.215c0-30.389 25.549-54.993 57.108-54.993s57.108 24.604 57.108 54.993v219.97c0 1.805-0.102 3.623-0.282 5.413-0.092 0.902-0.271 1.776-0.404 2.65-0.133 0.888-0.236 1.776-0.415 2.649-0.21 1.074-0.522 2.105-0.788 3.151-0.195 0.673-0.343 1.36-0.548 2.034-0.343 1.103-0.763 2.162-1.178 3.236-0.236 0.602-0.43 1.218-0.686 1.805-0.471 1.103-1.024 2.177-1.562 3.237-0.266 0.544-0.517 1.088-0.799 1.618-0.655 1.174-1.372 2.291-2.099 3.408-0.251 0.401-0.476 0.802-0.742 1.189-1.029 1.475-2.115 2.907-3.272 4.282-0.015 0.014-0.015 0.029-0.031 0.043-2.468 2.907-5.233 5.571-8.253 7.948-0.015 0.014-0.031 0.014-0.046 0.029-1.428 1.117-2.913 2.162-4.444 3.151-0.404 0.258-0.819 0.473-1.234 0.716-1.162 0.702-2.319 1.389-3.543 2.019-0.548 0.286-1.116 0.516-1.679 0.773-1.101 0.53-2.217 1.045-3.359 1.504-0.609 0.243-1.249 0.43-1.874 0.659-1.116 0.401-2.217 0.802-3.364 1.131-0.696 0.2-1.413 0.344-2.109 0.53-1.085 0.258-2.156 0.559-3.272 0.759-0.906 0.172-1.833 0.272-2.755 0.401-0.906 0.129-1.812 0.301-2.749 0.387-1.859 0.172-3.748 0.272-5.622 0.272h-228.429c-31.56 0-57.108-24.603-57.108-54.993s25.549-54.992 57.108-54.992h90.568l-547.43-527.155-188.052 181.089c-22.308 21.481-58.45 21.481-80.758 0l-456.86-439.941c-22.307-21.484-22.307-56.284 0-77.763 11.154-10.742 25.758-16.113 40.377-16.113z" />
<glyph unicode="&#xe932;" glyph-name="upload-image" horiz-adv-x="1229" d="M1150.776 925.8h-1072.756c-43.086 0-78.020-34.932-78.020-78.018v-799.7c0-43.080 34.934-78.013 78.020-78.013h1072.756c43.090 0 78.024 34.934 78.024 78.019v799.695c0 43.086-34.934 78.018-78.024 78.018zM1150.776 847.782v-567.411l-153.754 139.786c-23.112 21.007-58.65 20.168-80.732-1.93l-155.607-155.587-306.827 366.494c-23.193 27.697-65.674 27.969-89.215 0.605l-286.621-333.102v551.144h1072.756zM819.2 642.982c0 59.256 48.015 107.277 107.274 107.277s107.274-48.021 107.274-107.277c0-59.256-48.015-107.275-107.274-107.275-59.254-0.003-107.274 48.018-107.274 107.275z" />
<glyph unicode="&#xe933;" horiz-adv-x="922" d="M809.411 600.525c-23.117 0-53.74 0.512-91.863 0.512-92.974 0-169.426 76.954-169.426 170.803v164.659c0 12.954-10.337 23.501-23.168 23.501h-270.816c-126.385 0-228.538-103.731-228.538-230.861v-551.68c0-133.376 107.019-241.459 239.082-241.459h403.288c125.926 0 228.029 103.066 228.029 230.298v411.187c0 13.005-10.291 23.501-23.168 23.45-21.647-0.154-47.606-0.41-63.421-0.41z" />
<glyph unicode="&#xe934;" horiz-adv-x="922" d="M669.896 930.951c-15.309 15.923-42.035 4.966-42.035-17.101v-135.014c0-56.627 46.643-103.219 103.27-103.219 35.686-0.41 85.248-0.512 127.334-0.41 21.555 0.051 32.512 25.805 17.562 41.37-54.016 56.166-150.733 156.826-206.131 214.374z" />
<glyph unicode="&#xe935;" horiz-adv-x="922" d="M305.868 479.363h173.312c21.043 0 38.145 17.050 38.145 38.093s-17.102 38.144-38.145 38.144h-173.312c-21.043 0-38.093-17.101-38.093-38.144s17.050-38.093 38.093-38.093zM305.873 223.662h278.734c21.043 0 38.144 17.050 38.144 38.093s-17.101 38.144-38.144 38.144h-278.734c-21.043 0-38.093-17.101-38.093-38.144s17.050-38.093 38.093-38.093z" />
<glyph unicode="&#xe936;" glyph-name="userplan-email" horiz-adv-x="1138" d="M1137.778 223.858c0-158.72-127.431-287.289-286.151-287.858h-564.338c-158.151 0-287.289 128-287.289 286.72v0.569c0 0 0.341 251.79 0.796 378.425 0.057 23.78 27.364 37.092 45.966 22.3 135.168-107.236 376.889-302.763 379.904-305.323 40.391-32.37 91.591-50.631 143.929-50.631s103.538 18.261 143.929 51.257c3.015 1.991 239.332 191.659 376.548 300.658 18.66 14.848 46.080 1.536 46.137-22.187 0.569-125.668 0.569-373.931 0.569-373.931zM1107.962 807.879c-49.266 92.843-146.204 152.121-252.928 152.121h-567.752c-106.724 0-203.662-59.278-252.928-152.121-11.036-20.764-5.803-46.649 12.572-61.326l422.4-337.863c29.582-23.893 65.422-35.783 101.263-35.783 0.228 0 0.398 0 0.569 0s0.398 0 0.569 0c35.84 0 71.68 11.89 101.262 35.783l422.4 337.863c18.375 14.677 23.609 40.562 12.572 61.326z" />
<glyph unicode="&#xe937;" d="M513.024 960c-297.472 0-513.024-242.688-513.024-512 0-86.016 25.088-174.592 69.12-255.488 8.192-13.312 9.216-30.208 3.584-46.080l-34.304-114.688c-7.68-27.648 15.872-48.128 41.984-39.936l103.424 30.72c28.16 9.216 50.176-2.56 76.339-18.432 74.752-44.032 167.885-66.56 251.853-66.56 253.952 0 512 196.096 512 512 0 272.384-220.16 510.464-510.976 510.464z" />
<glyph unicode="&#xe938;" d="M511.001 381.921c-36.352 0.512-65.536 29.696-65.536 66.048 0 35.84 29.696 65.536 65.536 65.024 36.353 0 65.537-29.184 65.537-65.536 0-35.84-29.184-65.536-65.537-65.536zM274.949 381.921c-35.84 0-65.536 29.696-65.536 65.536 0 36.352 29.184 65.536 65.536 65.536s65.536-29.184 65.536-65.536c0-35.84-29.184-65.024-65.536-65.536zM681.487 447.457c0-35.84 29.184-65.536 65.536-65.536s65.536 29.696 65.536 65.536c0 36.352-29.184 65.536-65.536 65.536s-65.536-29.184-65.536-65.536z" />
<glyph unicode="&#xe939;" glyph-name="userplan-notification" horiz-adv-x="922" d="M858.598 466.159c-37.402 43.676-54.395 81.525-54.395 145.827v21.864c0 83.793-19.287 137.782-61.215 191.772-64.625 83.845-173.42 134.379-279.924 134.379h-4.529c-104.265 0-209.649-48.214-275.393-128.655-44.22-55.072-65.744-111.382-65.744-197.495v-21.864c0-64.302-15.877-102.151-54.397-145.827-28.343-32.177-37.401-73.531-37.401-118.29 0-44.81 14.706-87.25 44.22-121.748 38.52-41.354 92.917-67.753 148.484-72.346 80.451-9.175 160.901-12.631 242.522-12.631 81.572 0 162.022 5.775 242.519 12.631 55.516 4.593 109.916 30.991 148.434 72.346 29.466 34.499 44.221 76.938 44.221 121.748 0 44.759-9.057 86.113-37.402 118.29zM563.651 77.901c-25.6 5.468-181.562 5.468-207.158 0-21.881-5.053-45.543-16.809-45.543-42.593 1.272-24.596 15.673-46.305 35.62-60.073l-0.051-0.051c25.799-20.111 56.076-32.901 87.778-37.489 16.894-2.319 34.094-2.217 51.598 0 31.65 4.588 61.929 17.377 87.729 37.489l-0.051 0.051c19.948 13.768 34.345 35.476 35.62 60.073 0 25.784-23.665 37.54-45.542 42.593z" />
<glyph unicode="&#xe93a;" glyph-name="wating-time" d="M511.976 935.571c269.314 0 487.616-218.307 487.616-487.619 0-269.316-218.302-487.618-487.616-487.618-269.312 0-487.619 218.302-487.619 487.618h97.524c0-215.43 174.665-390.096 390.095-390.096s390.095 174.667 390.095 390.096c0 215.43-174.664 390.095-390.095 390.095-120.149 0-227.621-54.32-299.154-139.703l104.107-104.106h-292.572v292.571l119.32-119.272c89.381 102.888 221.233 168.034 368.298 168.034zM560.738 691.762v-223.573l158.135-158.135-68.998-68.999-186.661 186.759v263.948h97.524z" />
</font>
</defs>
</svg>
